<svg width="425" height="558" viewBox="0 0 425 558" fill="none" xmlns="http://www.w3.org/2000/svg">
<path opacity="0.5" d="M424.829 0H0.170875V0.269656H0V557.73H0.170875V558H424.829V557.73H425V0.269656H424.829V0ZM212.205 279.437V303.894H193.497V279.437H212.205ZM193.503 278.571V254.114H212.211V278.571H193.503ZM212.789 279.437H231.497V303.894H212.789V279.437ZM212.789 278.571V254.114H231.497V278.571H212.789ZM212.789 253.248V228.791H231.497V253.248H212.789ZM212.205 253.248H193.497V228.791H212.205V253.248ZM192.913 253.248H174.205V228.791H192.913V253.248ZM192.913 254.114V278.571H174.205V254.114H192.913ZM192.913 279.437V303.894H174.205V279.437H192.913ZM192.913 304.76V329.217H174.205V304.76H192.913ZM193.503 304.76H212.211V329.217H193.503V304.76ZM212.789 304.76H231.497V329.217H212.789V304.76ZM232.082 304.76H250.79V329.217H232.082V304.76ZM232.082 303.894V279.437H250.79V303.894H232.082ZM232.082 278.571V254.114H250.79V278.571H232.082ZM232.082 253.248V228.791H250.79V253.248H232.082ZM232.082 227.925V203.468H250.79V227.925H232.082ZM231.497 227.925H212.789V203.468H231.497V227.925ZM212.205 227.925H193.497V203.468H212.205V227.925ZM192.913 227.925H174.205V203.468H192.913V227.925ZM173.626 227.925H154.918V203.468H173.626V227.925ZM173.626 228.791V253.248H154.918V228.791H173.626ZM173.626 254.114V278.571H154.918V254.114H173.626ZM173.626 279.437V303.894H154.918V279.437H173.626ZM173.626 304.76V329.217H154.918V304.76H173.626ZM173.626 330.092V354.549H154.918V330.092H173.626ZM174.21 330.092H192.918V354.549H174.21V330.092ZM193.503 330.092H212.211V354.549H193.503V330.092ZM212.789 330.092H231.497V354.549H212.789V330.092ZM232.082 330.092H250.79V354.549H232.082V330.092ZM251.374 330.092H270.082V354.549H251.374V330.092ZM251.374 329.217V304.76H270.082V329.217H251.374ZM251.374 303.894V279.437H270.082V303.894H251.374ZM251.374 278.571V254.114H270.082V278.571H251.374ZM251.374 253.248V228.791H270.082V253.248H251.374ZM251.374 227.925V203.468H270.082V227.925H251.374ZM251.374 202.593V178.136H270.082V202.593H251.374ZM250.79 202.593H232.082V178.136H250.79V202.593ZM231.497 202.593H212.789V178.136H231.497V202.593ZM212.205 202.593H193.497V178.136H212.205V202.593ZM192.913 202.593H174.205V178.136H192.913V202.593ZM173.626 202.593H154.918V178.136H173.626V202.593ZM154.333 202.593H135.625V178.136H154.333V202.593ZM154.333 203.468V227.925H135.625V203.468H154.333ZM154.333 228.791V253.248H135.625V228.791H154.333ZM154.333 254.114V278.571H135.625V254.114H154.333ZM154.333 279.437V303.894H135.625V279.437H154.333ZM154.333 304.76V329.217H135.625V304.76H154.333ZM154.333 330.092V354.549H135.625V330.092H154.333ZM154.333 355.415V379.872H135.625V355.415H154.333ZM154.918 355.415H173.626V379.872H154.918V355.415ZM174.21 355.415H192.918V379.872H174.21V355.415ZM193.503 355.415H212.211V379.872H193.503V355.415ZM212.789 355.415H231.497V379.872H212.789V355.415ZM232.082 355.415H250.79V379.872H232.082V355.415ZM251.374 355.415H270.082V379.872H251.374V355.415ZM270.667 355.415H289.375V379.872H270.667V355.415ZM270.667 354.549V330.092H289.375V354.549H270.667ZM270.667 329.217V304.76H289.375V329.217H270.667ZM270.667 303.894V279.437H289.375V303.894H270.667ZM270.667 278.571V254.114H289.375V278.571H270.667ZM270.667 253.248V228.791H289.375V253.248H270.667ZM270.667 227.925V203.468H289.375V227.925H270.667ZM270.667 202.593V178.136H289.375V202.593H270.667ZM270.667 177.27V152.813H289.375V177.27H270.667ZM270.082 177.27H251.374V152.813H270.082V177.27ZM250.79 177.27H232.082V152.813H250.79V177.27ZM231.497 177.27H212.789V152.813H231.497V177.27ZM212.205 177.27H193.497V152.813H212.205V177.27ZM192.913 177.27H174.205V152.813H192.913V177.27ZM173.626 177.27H154.918V152.813H173.626V177.27ZM154.333 177.27H135.625V152.813H154.333V177.27ZM135.041 177.27H116.333V152.813H135.041V177.27ZM135.041 178.136V202.593H116.333V178.136H135.041ZM135.041 203.468V227.925H116.333V203.468H135.041ZM135.041 228.791V253.248H116.333V228.791H135.041ZM135.041 254.114V278.571H116.333V254.114H135.041ZM135.041 279.437V303.894H116.333V279.437H135.041ZM135.041 304.76V329.217H116.333V304.76H135.041ZM135.041 330.092V354.549H116.333V330.092H135.041ZM135.041 355.415V379.872H116.333V355.415H135.041ZM135.041 380.738V405.195H116.333V380.738H135.041ZM135.625 380.738H154.333V405.195H135.625V380.738ZM154.918 380.738H173.626V405.195H154.918V380.738ZM174.21 380.738H192.918V405.195H174.21V380.738ZM193.503 380.738H212.211V405.195H193.503V380.738ZM212.789 380.738H231.497V405.195H212.789V380.738ZM232.082 380.738H250.79V405.195H232.082V380.738ZM251.374 380.738H270.082V405.195H251.374V380.738ZM270.667 380.738H289.375V405.195H270.667V380.738ZM289.959 380.738H308.667V405.195H289.959V380.738ZM289.959 379.872V355.415H308.667V379.872H289.959ZM289.959 354.549V330.092H308.667V354.549H289.959ZM289.959 329.217V304.76H308.667V329.217H289.959ZM289.959 303.894V279.437H308.667V303.894H289.959ZM289.959 278.571V254.114H308.667V278.571H289.959ZM289.959 253.248V228.791H308.667V253.248H289.959ZM289.959 227.925V203.468H308.667V227.925H289.959ZM289.959 202.593V178.136H308.667V202.593H289.959ZM289.959 177.27V152.813H308.667V177.27H289.959ZM289.959 151.947V127.49H308.667V151.947H289.959ZM289.375 151.947H270.667V127.49H289.375V151.947ZM270.082 151.947H251.374V127.49H270.082V151.947ZM250.79 151.947H232.082V127.49H250.79V151.947ZM231.497 151.947H212.789V127.49H231.497V151.947ZM212.205 151.947H193.497V127.49H212.205V151.947ZM192.913 151.947H174.205V127.49H192.913V151.947ZM173.626 151.947H154.918V127.49H173.626V151.947ZM154.333 151.947H135.625V127.49H154.333V151.947ZM135.041 151.947H116.333V127.49H135.041V151.947ZM115.749 151.947H97.0406V127.49H115.749V151.947ZM115.749 152.813V177.27H97.0406V152.813H115.749ZM115.749 178.136V202.593H97.0406V178.136H115.749ZM115.749 203.468V227.925H97.0406V203.468H115.749ZM115.749 228.791V253.248H97.0406V228.791H115.749ZM115.749 254.114V278.571H97.0406V254.114H115.749ZM115.749 279.437V303.894H97.0406V279.437H115.749ZM115.749 304.76V329.217H97.0406V304.76H115.749ZM115.749 330.092V354.549H97.0406V330.092H115.749ZM115.749 355.415V379.872H97.0406V355.415H115.749ZM115.749 380.738V405.195H97.0406V380.738H115.749ZM115.749 406.061V430.518H97.0406V406.061H115.749ZM116.333 406.061H135.041V430.518H116.333V406.061ZM135.625 406.061H154.333V430.518H135.625V406.061ZM154.918 406.061H173.626V430.518H154.918V406.061ZM174.21 406.061H192.918V430.518H174.21V406.061ZM193.503 406.061H212.211V430.518H193.503V406.061ZM212.789 406.061H231.497V430.518H212.789V406.061ZM232.082 406.061H250.79V430.518H232.082V406.061ZM251.374 406.061H270.082V430.518H251.374V406.061ZM270.667 406.061H289.375V430.518H270.667V406.061ZM289.959 406.061H308.667V430.518H289.959V406.061ZM309.251 406.061H327.959V430.518H309.251V406.061ZM309.251 405.195V380.738H327.959V405.195H309.251ZM309.251 379.872V355.415H327.959V379.872H309.251ZM309.251 354.549V330.092H327.959V354.549H309.251ZM309.251 329.217V304.76H327.959V329.217H309.251ZM309.251 303.894V279.437H327.959V303.894H309.251ZM309.251 278.571V254.114H327.959V278.571H309.251ZM309.251 253.248V228.791H327.959V253.248H309.251ZM309.251 227.925V203.468H327.959V227.925H309.251ZM309.251 202.593V178.136H327.959V202.593H309.251ZM309.251 177.27V152.813H327.959V177.27H309.251ZM309.251 151.947V127.49H327.959V151.947H309.251ZM309.251 126.624V102.167H327.959V126.624H309.251ZM308.661 126.624H289.953V102.167H308.661V126.624ZM289.375 126.624H270.667V102.167H289.375V126.624ZM270.082 126.624H251.374V102.167H270.082V126.624ZM250.79 126.624H232.082V102.167H250.79V126.624ZM231.497 126.624H212.789V102.167H231.497V126.624ZM212.205 126.624H193.497V102.167H212.205V126.624ZM192.913 126.624H174.205V102.167H192.913V126.624ZM173.626 126.624H154.918V102.167H173.626V126.624ZM154.333 126.624H135.625V102.167H154.333V126.624ZM135.041 126.624H116.333V102.167H135.041V126.624ZM115.749 126.624H97.0406V102.167H115.749V126.624ZM96.4564 126.624H77.7483V102.167H96.4564V126.624ZM96.4564 127.49V151.947H77.7483V127.49H96.4564ZM96.4564 152.813V177.27H77.7483V152.813H96.4564ZM96.4564 178.136V202.593H77.7483V178.136H96.4564ZM96.4564 203.468V227.925H77.7483V203.468H96.4564ZM96.4564 228.791V253.248H77.7483V228.791H96.4564ZM96.4564 254.114V278.571H77.7483V254.114H96.4564ZM96.4564 279.437V303.894H77.7483V279.437H96.4564ZM96.4564 304.76V329.217H77.7483V304.76H96.4564ZM96.4564 330.092V354.549H77.7483V330.092H96.4564ZM96.4564 355.415V379.872H77.7483V355.415H96.4564ZM96.4564 380.738V405.195H77.7483V380.738H96.4564ZM96.4564 406.061V430.518H77.7483V406.061H96.4564ZM96.4564 431.384V455.841H77.7483V431.384H96.4564ZM97.0406 431.384H115.749V455.841H97.0406V431.384ZM116.333 431.384H135.041V455.841H116.333V431.384ZM135.625 431.384H154.333V455.841H135.625V431.384ZM154.918 431.384H173.626V455.841H154.918V431.384ZM174.21 431.384H192.918V455.841H174.21V431.384ZM193.503 431.384H212.211V455.841H193.503V431.384ZM212.789 431.384H231.497V455.841H212.789V431.384ZM232.082 431.384H250.79V455.841H232.082V431.384ZM251.374 431.384H270.082V455.841H251.374V431.384ZM270.667 431.384H289.375V455.841H270.667V431.384ZM289.959 431.384H308.667V455.841H289.959V431.384ZM309.251 431.384H327.959V455.841H309.251V431.384ZM328.544 431.384H347.252V455.841H328.544V431.384ZM328.544 430.518V406.061H347.252V430.518H328.544ZM328.544 405.195V380.738H347.252V405.195H328.544ZM328.544 379.872V355.415H347.252V379.872H328.544ZM328.544 354.549V330.092H347.252V354.549H328.544ZM328.544 329.217V304.76H347.252V329.217H328.544ZM328.544 303.894V279.437H347.252V303.894H328.544ZM328.544 278.571V254.114H347.252V278.571H328.544ZM328.544 253.248V228.791H347.252V253.248H328.544ZM328.544 227.925V203.468H347.252V227.925H328.544ZM328.544 202.593V178.136H347.252V202.593H328.544ZM328.544 177.27V152.813H347.252V177.27H328.544ZM328.544 151.947V127.49H347.252V151.947H328.544ZM328.544 126.624V102.167H347.252V126.624H328.544ZM328.544 101.301V76.8438H347.252V101.301H328.544ZM327.954 101.301H309.246V76.8438H327.954V101.301ZM308.661 101.301H289.953V76.8438H308.661V101.301ZM289.375 101.301H270.667V76.8438H289.375V101.301ZM270.082 101.301H251.374V76.8438H270.082V101.301ZM250.79 101.301H232.082V76.8438H250.79V101.301ZM231.497 101.301H212.789V76.8438H231.497V101.301ZM212.205 101.301H193.497V76.8438H212.205V101.301ZM192.913 101.301H174.205V76.8438H192.913V101.301ZM173.626 101.301H154.918V76.8438H173.626V101.301ZM154.333 101.301H135.625V76.8438H154.333V101.301ZM135.041 101.301H116.333V76.8438H135.041V101.301ZM115.749 101.301H97.0406V76.8438H115.749V101.301ZM96.4564 101.301H77.7483V76.8438H96.4564V101.301ZM77.164 101.301H58.4559V76.8438H77.164V101.301ZM77.164 102.167V126.624H58.4559V102.167H77.164ZM77.164 127.49V151.947H58.4559V127.49H77.164ZM77.164 152.813V177.27H58.4559V152.813H77.164ZM77.164 178.136V202.593H58.4559V178.136H77.164ZM77.164 203.468V227.925H58.4559V203.468H77.164ZM77.164 228.791V253.248H58.4559V228.791H77.164ZM77.164 254.114V278.571H58.4559V254.114H77.164ZM77.164 279.437V303.894H58.4559V279.437H77.164ZM77.164 304.76V329.217H58.4559V304.76H77.164ZM77.164 330.092V354.549H58.4559V330.092H77.164ZM77.164 355.415V379.872H58.4559V355.415H77.164ZM77.164 380.738V405.195H58.4559V380.738H77.164ZM77.164 406.061V430.518H58.4559V406.061H77.164ZM77.164 431.384V455.841H58.4559V431.384H77.164ZM77.164 456.716V481.173H58.4559V456.716H77.164ZM77.7538 456.716H96.4619V481.173H77.7538V456.716ZM97.0406 456.716H115.749V481.173H97.0406V456.716ZM116.333 456.716H135.041V481.173H116.333V456.716ZM135.625 456.716H154.333V481.173H135.625V456.716ZM154.918 456.716H173.626V481.173H154.918V456.716ZM174.21 456.716H192.918V481.173H174.21V456.716ZM193.503 456.716H212.211V481.173H193.503V456.716ZM212.789 456.716H231.497V481.173H212.789V456.716ZM232.082 456.716H250.79V481.173H232.082V456.716ZM251.374 456.716H270.082V481.173H251.374V456.716ZM270.667 456.716H289.375V481.173H270.667V456.716ZM289.959 456.716H308.667V481.173H289.959V456.716ZM309.251 456.716H327.959V481.173H309.251V456.716ZM328.544 456.716H347.252V481.173H328.544V456.716ZM347.831 456.716H366.539V481.173H347.831V456.716ZM347.831 455.841V431.384H366.539V455.841H347.831ZM347.831 430.518V406.061H366.539V430.518H347.831ZM347.831 405.195V380.738H366.539V405.195H347.831ZM347.831 379.872V355.415H366.539V379.872H347.831ZM347.831 354.549V330.092H366.539V354.549H347.831ZM347.831 329.217V304.76H366.539V329.217H347.831ZM347.831 303.894V279.437H366.539V303.894H347.831ZM347.831 278.571V254.114H366.539V278.571H347.831ZM347.831 253.248V228.791H366.539V253.248H347.831ZM347.831 227.925V203.468H366.539V227.925H347.831ZM347.831 202.593V178.136H366.539V202.593H347.831ZM347.831 177.27V152.813H366.539V177.27H347.831ZM347.831 151.947V127.49H366.539V151.947H347.831ZM347.831 126.624V102.167H366.539V126.624H347.831ZM347.831 101.301V76.8438H366.539V101.301H347.831ZM347.831 75.9776V51.5206H366.539V75.9776H347.831ZM347.246 75.9776H328.538V51.5206H347.246V75.9776ZM327.954 75.9776H309.246V51.5206H327.954V75.9776ZM308.661 75.9776H289.953V51.5206H308.661V75.9776ZM289.375 75.9776H270.667V51.5206H289.375V75.9776ZM270.082 75.9776H251.374V51.5206H270.082V75.9776ZM250.79 75.9776H232.082V51.5206H250.79V75.9776ZM231.497 75.9776H212.789V51.5206H231.497V75.9776ZM212.205 75.9776H193.497V51.5206H212.205V75.9776ZM192.913 75.9776H174.205V51.5206H192.913V75.9776ZM173.626 75.9776H154.918V51.5206H173.626V75.9776ZM154.333 75.9776H135.625V51.5206H154.333V75.9776ZM135.041 75.9776H116.333V51.5206H135.041V75.9776ZM115.749 75.9776H97.0406V51.5206H115.749V75.9776ZM96.4564 75.9776H77.7483V51.5206H96.4564V75.9776ZM77.164 75.9776H58.4559V51.5206H77.164V75.9776ZM57.8771 75.9776H39.169V51.5206H57.8771V75.9776ZM57.8771 76.8438V101.301H39.169V76.8438H57.8771ZM57.8771 102.167V126.624H39.169V102.167H57.8771ZM57.8771 127.49V151.947H39.169V127.49H57.8771ZM57.8771 152.813V177.27H39.169V152.813H57.8771ZM57.8771 178.136V202.593H39.169V178.136H57.8771ZM57.8771 203.468V227.925H39.169V203.468H57.8771ZM57.8771 228.791V253.248H39.169V228.791H57.8771ZM57.8771 254.114V278.571H39.169V254.114H57.8771ZM57.8771 279.437V303.894H39.169V279.437H57.8771ZM57.8771 304.76V329.217H39.169V304.76H57.8771ZM57.8771 330.092V354.549H39.169V330.092H57.8771ZM57.8771 355.415V379.872H39.169V355.415H57.8771ZM57.8771 380.738V405.195H39.169V380.738H57.8771ZM57.8771 406.061V430.518H39.169V406.061H57.8771ZM57.8771 431.384V455.841H39.169V431.384H57.8771ZM57.8771 456.716V481.173H39.169V456.716H57.8771ZM57.8771 482.039V506.496H39.169V482.039H57.8771ZM58.4614 482.039H77.1695V506.496H58.4614V482.039ZM77.7538 482.039H96.4619V506.496H77.7538V482.039ZM97.0406 482.039H115.749V506.496H97.0406V482.039ZM116.333 482.039H135.041V506.496H116.333V482.039ZM135.625 482.039H154.333V506.496H135.625V482.039ZM154.918 482.039H173.626V506.496H154.918V482.039ZM174.21 482.039H192.918V506.496H174.21V482.039ZM193.503 482.039H212.211V506.496H193.503V482.039ZM212.789 482.039H231.497V506.496H212.789V482.039ZM232.082 482.039H250.79V506.496H232.082V482.039ZM251.374 482.039H270.082V506.496H251.374V482.039ZM270.667 482.039H289.375V506.496H270.667V482.039ZM289.959 482.039H308.667V506.496H289.959V482.039ZM309.251 482.039H327.959V506.496H309.251V482.039ZM328.544 482.039H347.252V506.496H328.544V482.039ZM347.831 482.039H366.539V506.496H347.831V482.039ZM367.123 482.039H385.831V506.496H367.123V482.039ZM367.123 481.164V456.707H385.831V481.164H367.123ZM367.123 455.841V431.384H385.831V455.841H367.123ZM367.123 430.518V406.061H385.831V430.518H367.123ZM367.123 405.195V380.738H385.831V405.195H367.123ZM367.123 379.872V355.415H385.831V379.872H367.123ZM367.123 354.549V330.092H385.831V354.549H367.123ZM367.123 329.217V304.76H385.831V329.217H367.123ZM367.123 303.894V279.437H385.831V303.894H367.123ZM367.123 278.571V254.114H385.831V278.571H367.123ZM367.123 253.248V228.791H385.831V253.248H367.123ZM367.123 227.925V203.468H385.831V227.925H367.123ZM367.123 202.593V178.136H385.831V202.593H367.123ZM367.123 177.27V152.813H385.831V177.27H367.123ZM367.123 151.947V127.49H385.831V151.947H367.123ZM367.123 126.624V102.167H385.831V126.624H367.123ZM367.123 101.301V76.8438H385.831V101.301H367.123ZM367.123 75.9776V51.5206H385.831V75.9776H367.123ZM367.123 50.6463V26.1893H385.831V50.6463H367.123ZM366.539 50.6463H347.831V26.1893H366.539V50.6463ZM347.246 50.6463H328.538V26.1893H347.246V50.6463ZM327.954 50.6463H309.246V26.1893H327.954V50.6463ZM308.661 50.6463H289.953V26.1893H308.661V50.6463ZM289.375 50.6463H270.667V26.1893H289.375V50.6463ZM270.082 50.6463H251.374V26.1893H270.082V50.6463ZM250.79 50.6463H232.082V26.1893H250.79V50.6463ZM231.497 50.6463H212.789V26.1893H231.497V50.6463ZM212.205 50.6463H193.497V26.1893H212.205V50.6463ZM192.913 50.6463H174.205V26.1893H192.913V50.6463ZM173.626 50.6463H154.918V26.1893H173.626V50.6463ZM154.333 50.6463H135.625V26.1893H154.333V50.6463ZM135.041 50.6463H116.333V26.1893H135.041V50.6463ZM115.749 50.6463H97.0406V26.1893H115.749V50.6463ZM96.4564 50.6463H77.7483V26.1893H96.4564V50.6463ZM77.164 50.6463H58.4559V26.1893H77.164V50.6463ZM57.8771 50.6463H39.169V26.1893H57.8771V50.6463ZM38.5847 50.6463H19.8767V26.1893H38.5847V50.6463ZM38.5847 51.5206V75.9776H19.8767V51.5206H38.5847ZM38.5847 76.8438V101.301H19.8767V76.8438H38.5847ZM38.5847 102.167V126.624H19.8767V102.167H38.5847ZM38.5847 127.49V151.947H19.8767V127.49H38.5847ZM38.5847 152.813V177.27H19.8767V152.813H38.5847ZM38.5847 178.136V202.593H19.8767V178.136H38.5847ZM38.5847 203.468V227.925H19.8767V203.468H38.5847ZM38.5847 228.791V253.248H19.8767V228.791H38.5847ZM38.5847 254.114V278.571H19.8767V254.114H38.5847ZM38.5847 279.437V303.894H19.8767V279.437H38.5847ZM38.5847 304.76V329.217H19.8767V304.76H38.5847ZM38.5847 330.092V354.549H19.8767V330.092H38.5847ZM38.5847 355.415V379.872H19.8767V355.415H38.5847ZM38.5847 380.738V405.195H19.8767V380.738H38.5847ZM38.5847 406.061V430.518H19.8767V406.061H38.5847ZM38.5847 431.384V455.841H19.8767V431.384H38.5847ZM38.5847 456.716V481.173H19.8767V456.716H38.5847ZM38.5847 482.039V506.496H19.8767V482.039H38.5847ZM38.5847 507.362V531.819H19.8767V507.362H38.5847ZM39.169 507.362H57.8771V531.819H39.169V507.362ZM58.4614 507.362H77.1695V531.819H58.4614V507.362ZM77.7538 507.362H96.4619V531.819H77.7538V507.362ZM97.0406 507.362H115.749V531.819H97.0406V507.362ZM116.333 507.362H135.041V531.819H116.333V507.362ZM135.625 507.362H154.333V531.819H135.625V507.362ZM154.918 507.362H173.626V531.819H154.918V507.362ZM174.21 507.362H192.918V531.819H174.21V507.362ZM193.503 507.362H212.211V531.819H193.503V507.362ZM212.789 507.362H231.497V531.819H212.789V507.362ZM232.082 507.362H250.79V531.819H232.082V507.362ZM251.374 507.362H270.082V531.819H251.374V507.362ZM270.667 507.362H289.375V531.819H270.667V507.362ZM289.959 507.362H308.667V531.819H289.959V507.362ZM309.251 507.362H327.959V531.819H309.251V507.362ZM328.544 507.362H347.252V531.819H328.544V507.362ZM347.831 507.362H366.539V531.819H347.831V507.362ZM367.123 507.362H385.831V531.819H367.123V507.362ZM386.415 507.362H405.123V531.819H386.415V507.362ZM386.415 506.496V482.039H405.123V506.496H386.415ZM386.415 481.164V456.707H405.123V481.164H386.415ZM386.415 455.841V431.384H405.123V455.841H386.415ZM386.415 430.518V406.061H405.123V430.518H386.415ZM386.415 405.195V380.738H405.123V405.195H386.415ZM386.415 379.872V355.415H405.123V379.872H386.415ZM386.415 354.549V330.092H405.123V354.549H386.415ZM386.415 329.217V304.76H405.123V329.217H386.415ZM386.415 303.894V279.437H405.123V303.894H386.415ZM386.415 278.571V254.114H405.123V278.571H386.415ZM386.415 253.248V228.791H405.123V253.248H386.415ZM386.415 227.925V203.468H405.123V227.925H386.415ZM386.415 202.593V178.136H405.123V202.593H386.415ZM386.415 177.27V152.813H405.123V177.27H386.415ZM386.415 151.947V127.49H405.123V151.947H386.415ZM386.415 126.624V102.167H405.123V126.624H386.415ZM386.415 101.301V76.8438H405.123V101.301H386.415ZM386.415 75.9776V51.5206H405.123V75.9776H386.415ZM386.415 50.6463V26.1893H405.123V50.6463H386.415ZM386.415 25.3232V0.866168H405.123V25.3232H386.415ZM385.831 25.3232H367.123V0.866168H385.831V25.3232ZM366.539 25.3232H347.831V0.866168H366.539V25.3232ZM347.246 25.3232H328.538V0.866168H347.246V25.3232ZM327.954 25.3232H309.246V0.866168H327.954V25.3232ZM308.661 25.3232H289.953V0.866168H308.661V25.3232ZM289.375 25.3232H270.667V0.866168H289.375V25.3232ZM270.082 25.3232H251.374V0.866168H270.082V25.3232ZM250.79 25.3232H232.082V0.866168H250.79V25.3232ZM231.497 25.3232H212.789V0.866168H231.497V25.3232ZM212.205 25.3232H193.497V0.866168H212.205V25.3232ZM192.913 25.3232H174.205V0.866168H192.913V25.3232ZM173.626 25.3232H154.918V0.866168H173.626V25.3232ZM154.333 25.3232H135.625V0.866168H154.333V25.3232ZM135.041 25.3232H116.333V0.866168H135.041V25.3232ZM115.749 25.3232H97.0406V0.866168H115.749V25.3232ZM96.4564 25.3232H77.7483V0.866168H96.4564V25.3232ZM77.164 25.3232H58.4559V0.866168H77.164V25.3232ZM57.8771 25.3232H39.169V0.866168H57.8771V25.3232ZM38.5847 25.3232H19.8767V0.866168H38.5847V25.3232ZM19.2924 25.3232H0.584283V0.866168H19.2924V25.3232ZM19.2924 26.1893V50.6463H0.584283V26.1893H19.2924ZM19.2924 51.5206V75.9776H0.584283V51.5206H19.2924ZM19.2924 76.8438V101.301H0.584283V76.8438H19.2924ZM19.2924 102.167V126.624H0.584283V102.167H19.2924ZM19.2924 127.49V151.947H0.584283V127.49H19.2924ZM19.2924 152.813V177.27H0.584283V152.813H19.2924ZM19.2924 178.136V202.593H0.584283V178.136H19.2924ZM19.2924 203.468V227.925H0.584283V203.468H19.2924ZM19.2924 228.791V253.248H0.584283V228.791H19.2924ZM19.2924 254.114V278.571H0.584283V254.114H19.2924ZM19.2924 279.437V303.894H0.584283V279.437H19.2924ZM19.2924 304.76V329.217H0.584283V304.76H19.2924ZM19.2924 330.092V354.549H0.584283V330.092H19.2924ZM19.2924 355.415V379.872H0.584283V355.415H19.2924ZM19.2924 380.738V405.195H0.584283V380.738H19.2924ZM19.2924 406.061V430.518H0.584283V406.061H19.2924ZM19.2924 431.384V455.841H0.584283V431.384H19.2924ZM19.2924 456.716V481.173H0.584283V456.716H19.2924ZM19.2924 482.039V506.496H0.584283V482.039H19.2924ZM19.2924 507.362V531.819H0.584283V507.362H19.2924ZM19.2924 532.685V557.142H0.584283V532.685H19.2924ZM19.8767 532.685H38.5847V557.142H19.8767V532.685ZM39.169 532.685H57.8771V557.142H39.169V532.685ZM58.4614 532.685H77.1695V557.142H58.4614V532.685ZM77.7538 532.685H96.4619V557.142H77.7538V532.685ZM97.0406 532.685H115.749V557.142H97.0406V532.685ZM116.333 532.685H135.041V557.142H116.333V532.685ZM135.625 532.685H154.333V557.142H135.625V532.685ZM154.918 532.685H173.626V557.142H154.918V532.685ZM174.21 532.685H192.918V557.142H174.21V532.685ZM193.503 532.685H212.211V557.142H193.503V532.685ZM212.789 532.685H231.497V557.142H212.789V532.685ZM232.082 532.685H250.79V557.142H232.082V532.685ZM251.374 532.685H270.082V557.142H251.374V532.685ZM270.667 532.685H289.375V557.142H270.667V532.685ZM289.959 532.685H308.667V557.142H289.959V532.685ZM309.251 532.685H327.959V557.142H309.251V532.685ZM328.544 532.685H347.252V557.142H328.544V532.685ZM347.831 532.685H366.539V557.142H347.831V532.685ZM367.123 532.685H385.831V557.142H367.123V532.685ZM386.415 532.685H405.123V557.142H386.415V532.685ZM405.708 532.685H424.416V557.142H405.708V532.685ZM405.708 531.819V507.362H424.416V531.819H405.708ZM405.708 506.496V482.039H424.416V506.496H405.708ZM405.708 481.164V456.707H424.416V481.164H405.708ZM405.708 455.841V431.384H424.416V455.841H405.708ZM405.708 430.518V406.061H424.416V430.518H405.708ZM405.708 405.195V380.738H424.416V405.195H405.708ZM405.708 379.872V355.415H424.416V379.872H405.708ZM405.708 354.549V330.092H424.416V354.549H405.708ZM405.708 329.217V304.76H424.416V329.217H405.708ZM405.708 303.894V279.437H424.416V303.894H405.708ZM405.708 278.571V254.114H424.416V278.571H405.708ZM405.708 253.248V228.791H424.416V253.248H405.708ZM405.708 227.925V203.468H424.416V227.925H405.708ZM405.708 202.593V178.136H424.416V202.593H405.708ZM405.708 177.27V152.813H424.416V177.27H405.708ZM405.708 151.947V127.49H424.416V151.947H405.708ZM405.708 126.624V102.167H424.416V126.624H405.708ZM405.708 101.301V76.8438H424.416V101.301H405.708ZM405.708 75.9776V51.5206H424.416V75.9776H405.708ZM405.708 50.6463V26.1893H424.416V50.6463H405.708ZM405.708 25.3232V0.866168H424.416V25.3232H405.708Z" fill="url(#paint0_radial_584_1692)"/>
<defs>
<radialGradient id="paint0_radial_584_1692" cx="0" cy="0" r="1" gradientUnits="userSpaceOnUse" gradientTransform="translate(212.497 279.004) scale(200.718 297.553)">
<stop stop-color="#0033DA"/>
<stop offset="0.14" stop-color="#0033DA" stop-opacity="0.88"/>
<stop offset="0.45" stop-color="#0033DA" stop-opacity="0.58"/>
<stop offset="0.9" stop-color="#0033DA" stop-opacity="0.11"/>
<stop offset="1" stop-color="#0033DA" stop-opacity="0"/>
</radialGradient>
</defs>
</svg>
