<svg width="247" height="637" viewBox="0 0 247 637" fill="none" xmlns="http://www.w3.org/2000/svg">
<path d="M123.3 336.437C126.472 336.648 130.716 385.491 132.409 399.82C134.102 414.15 138.347 441.17 141.733 450.934C145.119 460.698 145.334 465.685 144.475 472.335C143.641 478.984 142.782 506.824 147.217 522.629C151.653 538.434 147.003 554.426 145.739 560.654C144.475 566.882 142.138 577.489 142.353 598.07C142.568 618.651 153.894 628.111 165.316 625.606C176.738 623.1 176.643 608.045 174.95 601.184C173.257 594.324 170.085 585.38 170.514 578.941C170.944 572.502 166.914 567.514 166.484 562.316C166.055 557.118 166.27 550.047 176.643 518.883C187.015 487.718 179.385 461.119 177.692 450.723C175.999 440.327 178.55 409.795 182.127 369.873C185.728 329.975 174.091 296.937 170.061 259.942C166.031 222.947 182.771 192.602 182.771 192.602C182.771 192.602 187.015 206.206 190.187 214.846C193.358 223.463 194.097 242.592 195.695 252.66C197.293 262.729 212.721 296.726 215.057 303.587C217.394 310.447 211.981 321.241 211.981 321.241C211.981 321.241 211.242 323.63 211.242 325.807C211.242 327.985 210.288 338.591 210.932 349.081C211.576 359.571 217.49 352.5 218.014 350.322C218.539 348.144 218.014 342.946 218.014 342.431C218.014 341.916 217.919 339.739 219.063 337.35C220.232 334.962 223.499 339.106 223.833 341.705C224.143 344.304 222.354 349.081 222.354 349.081C222.354 349.081 218.11 353.132 217.49 353.647C216.846 354.162 214.104 355.614 211.028 356.246C207.952 356.878 206.998 361.139 207.856 362.076C208.715 363.013 217.704 361.561 217.704 361.561C217.704 361.561 221.305 361.467 228.387 354.701C235.469 347.957 236.018 341.307 235.803 335.173C235.588 329.038 231.892 316.254 231.034 294.549C230.199 272.844 225.74 224.095 219.183 207.986C212.625 191.877 211.671 160.197 208.071 135.26C204.47 110.324 183.939 110.113 175.593 107.819C167.224 105.524 141.948 88.6891 141.518 85.1769C141.089 81.6414 144.38 79.0424 146.693 75.1087C149.03 71.1517 147.432 63.1674 147.432 63.1674C154.943 60.264 154.204 53.0992 153.989 50.8045C153.775 48.5099 151.867 48.3226 151.867 48.3226C151.867 48.3226 151.653 47.4797 151.223 46.2387C150.794 44.9978 151.223 40.0105 151.223 36.3578C151.223 17.2282 133.029 11 123.277 11C113.524 11 95.3298 17.2282 95.3298 36.3578C95.3298 39.9871 95.759 44.9743 95.3298 46.2387C94.9006 47.4797 94.686 48.3226 94.686 48.3226C94.686 48.3226 92.7784 48.5333 92.5638 50.8045C92.3492 53.0992 91.6099 60.264 99.1212 63.1674C99.1212 63.1674 97.5236 71.1751 99.8604 75.1087C102.197 79.0658 105.464 81.6648 105.035 85.1769C104.606 88.7125 79.3296 105.547 70.9598 107.819C62.5901 110.113 42.0593 110.324 38.4824 135.26C34.8818 160.197 33.928 191.9 27.3705 207.986C20.813 224.095 16.3539 272.82 15.5193 294.549C14.6848 316.254 10.9649 329.038 10.7503 335.173C10.5357 341.307 11.0603 347.957 18.1662 354.701C25.2483 361.444 28.8489 361.561 28.8489 361.561C28.8489 361.561 37.8386 363.013 38.6971 362.076C39.5316 361.139 38.6017 356.878 35.5256 356.246C32.4496 355.614 29.7073 354.162 29.0635 353.647C28.4197 353.132 24.1991 349.081 24.1991 349.081C24.1991 349.081 22.4107 344.304 22.7207 341.705C23.0306 339.106 26.3213 334.962 27.4897 337.35C28.6581 339.739 28.5389 341.916 28.5389 342.431C28.5389 342.946 28.0143 348.144 28.5389 350.322C29.0635 352.5 35.001 359.571 35.621 349.081C36.2648 338.591 35.311 327.985 35.311 325.807C35.311 323.63 34.5718 321.241 34.5718 321.241C34.5718 321.241 29.1827 310.424 31.4958 303.587C33.8088 296.75 49.2844 262.752 50.8582 252.66C52.432 242.569 53.195 223.463 56.3665 214.846C59.5379 206.23 63.7824 192.602 63.7824 192.602C63.7824 192.602 80.498 222.947 76.492 259.942C72.4621 296.937 60.8256 329.975 64.4262 369.873C68.0269 409.771 70.5545 440.327 68.8615 450.723C67.1684 461.119 59.5379 487.718 69.9107 518.883C80.2834 550.047 80.498 557.118 80.0688 562.316C79.6396 567.514 75.6335 572.502 76.0389 578.941C76.4681 585.38 73.2967 594.324 71.6037 601.184C69.9107 608.045 69.8153 623.1 81.2372 625.606C92.6591 628.111 103.986 618.651 104.2 598.07C104.415 577.489 102.078 566.906 100.814 560.654C99.5505 554.426 94.8768 538.41 99.3358 522.629C103.795 506.848 102.936 478.984 102.078 472.335C101.243 465.685 101.434 460.698 104.82 450.934C108.206 441.17 112.451 414.15 114.144 399.82C115.837 385.491 120.081 336.648 123.253 336.437H123.3Z" fill="#000E1F" fill-opacity="0.65"/>
<g filter="url(#filter0_d_584_1691)">
<path d="M123.3 336.437C126.472 336.648 130.716 385.491 132.409 399.82C134.102 414.15 138.347 441.17 141.733 450.934C145.119 460.698 145.334 465.685 144.475 472.335C143.641 478.984 142.782 506.824 147.217 522.629C151.653 538.434 147.003 554.426 145.739 560.654C144.475 566.882 142.138 577.489 142.353 598.07C142.568 618.651 153.894 628.111 165.316 625.606C176.738 623.1 176.643 608.045 174.95 601.184C173.257 594.324 170.085 585.38 170.514 578.941C170.944 572.502 166.914 567.514 166.484 562.316C166.055 557.118 166.27 550.047 176.643 518.883C187.015 487.718 179.385 461.119 177.692 450.723C175.999 440.327 178.55 409.795 182.127 369.873C185.728 329.975 174.091 296.937 170.061 259.942C166.031 222.947 182.771 192.602 182.771 192.602C182.771 192.602 187.015 206.206 190.187 214.846C193.358 223.463 194.097 242.592 195.695 252.66C197.293 262.729 212.721 296.726 215.057 303.587C217.394 310.447 211.981 321.241 211.981 321.241C211.981 321.241 211.242 323.63 211.242 325.807C211.242 327.985 210.288 338.591 210.932 349.081C211.576 359.571 217.49 352.5 218.014 350.322C218.539 348.144 218.014 342.946 218.014 342.431C218.014 341.916 217.919 339.739 219.063 337.35C220.232 334.962 223.499 339.106 223.833 341.705C224.143 344.304 222.354 349.081 222.354 349.081C222.354 349.081 218.11 353.132 217.49 353.647C216.846 354.162 214.104 355.614 211.028 356.246C207.952 356.878 206.998 361.139 207.856 362.076C208.715 363.013 217.704 361.561 217.704 361.561C217.704 361.561 221.305 361.467 228.387 354.701C235.469 347.957 236.018 341.307 235.803 335.173C235.588 329.038 231.892 316.254 231.034 294.549C230.199 272.844 225.74 224.095 219.183 207.986C212.625 191.877 211.671 160.197 208.071 135.26C204.47 110.324 183.939 110.113 175.593 107.819C167.224 105.524 141.948 88.6891 141.518 85.1769C141.089 81.6414 144.38 79.0424 146.693 75.1087C149.03 71.1517 147.432 63.1674 147.432 63.1674C154.943 60.264 154.204 53.0992 153.989 50.8045C153.775 48.5099 151.867 48.3226 151.867 48.3226C151.867 48.3226 151.653 47.4797 151.223 46.2387C150.794 44.9978 151.223 40.0105 151.223 36.3578C151.223 17.2282 133.029 11 123.277 11C113.524 11 95.3298 17.2282 95.3298 36.3578C95.3298 39.9871 95.759 44.9743 95.3298 46.2387C94.9006 47.4797 94.686 48.3226 94.686 48.3226C94.686 48.3226 92.7784 48.5333 92.5638 50.8045C92.3492 53.0992 91.6099 60.264 99.1212 63.1674C99.1212 63.1674 97.5236 71.1751 99.8604 75.1087C102.197 79.0658 105.464 81.6648 105.035 85.1769C104.606 88.7125 79.3296 105.547 70.9598 107.819C62.5901 110.113 42.0593 110.324 38.4824 135.26C34.8818 160.197 33.928 191.9 27.3705 207.986C20.813 224.095 16.3539 272.82 15.5193 294.549C14.6848 316.254 10.9649 329.038 10.7503 335.173C10.5357 341.307 11.0603 347.957 18.1662 354.701C25.2483 361.444 28.8489 361.561 28.8489 361.561C28.8489 361.561 37.8386 363.013 38.6971 362.076C39.5316 361.139 38.6017 356.878 35.5256 356.246C32.4496 355.614 29.7073 354.162 29.0635 353.647C28.4197 353.132 24.1991 349.081 24.1991 349.081C24.1991 349.081 22.4107 344.304 22.7207 341.705C23.0306 339.106 26.3213 334.962 27.4897 337.35C28.6581 339.739 28.5389 341.916 28.5389 342.431C28.5389 342.946 28.0143 348.144 28.5389 350.322C29.0635 352.5 35.001 359.571 35.621 349.081C36.2648 338.591 35.311 327.985 35.311 325.807C35.311 323.63 34.5718 321.241 34.5718 321.241C34.5718 321.241 29.1827 310.424 31.4958 303.587C33.8088 296.75 49.2844 262.752 50.8582 252.66C52.432 242.569 53.195 223.463 56.3665 214.846C59.5379 206.23 63.7824 192.602 63.7824 192.602C63.7824 192.602 80.498 222.947 76.492 259.942C72.4621 296.937 60.8256 329.975 64.4262 369.873C68.0269 409.771 70.5545 440.327 68.8615 450.723C67.1684 461.119 59.5379 487.718 69.9107 518.883C80.2834 550.047 80.498 557.118 80.0688 562.316C79.6396 567.514 75.6335 572.502 76.0389 578.941C76.4681 585.38 73.2967 594.324 71.6037 601.184C69.9107 608.045 69.8153 623.1 81.2372 625.606C92.6591 628.111 103.986 618.651 104.2 598.07C104.415 577.489 102.078 566.906 100.814 560.654C99.5505 554.426 94.8768 538.41 99.3358 522.629C103.795 506.848 102.936 478.984 102.078 472.335C101.243 465.685 101.434 460.698 104.82 450.934C108.206 441.17 112.451 414.15 114.144 399.82C115.837 385.491 120.081 336.648 123.253 336.437H123.3Z" stroke="#006FFF" stroke-miterlimit="10"/>
</g>
<defs>
<filter id="filter0_d_584_1691" x="0.213867" y="0.5" width="246.125" height="636" filterUnits="userSpaceOnUse" color-interpolation-filters="sRGB">
<feFlood flood-opacity="0" result="BackgroundImageFix"/>
<feColorMatrix in="SourceAlpha" type="matrix" values="0 0 0 0 0 0 0 0 0 0 0 0 0 0 0 0 0 0 127 0" result="hardAlpha"/>
<feOffset/>
<feGaussianBlur stdDeviation="5"/>
<feColorMatrix type="matrix" values="0 0 0 0 0 0 0 0 0 0.233945 0 0 0 0 1 0 0 0 0.47 0"/>
<feBlend mode="normal" in2="BackgroundImageFix" result="effect1_dropShadow_584_1691"/>
<feBlend mode="normal" in="SourceGraphic" in2="effect1_dropShadow_584_1691" result="shape"/>
</filter>
</defs>
</svg>
