<svg width="551" height="1501" viewBox="0 0 551 1501" fill="none" xmlns="http://www.w3.org/2000/svg">
<path d="M275.559 794.162C283.265 794.675 293.578 913.565 297.691 948.445C301.805 983.326 312.118 1049.1 320.345 1072.86C328.573 1096.63 329.094 1108.77 327.008 1124.96C324.98 1141.14 322.895 1208.91 333.671 1247.38C344.448 1285.85 333.15 1324.78 330.079 1339.94C327.008 1355.1 321.33 1380.92 321.852 1431.01C322.373 1481.11 349.894 1504.14 377.647 1498.04C405.399 1491.94 405.167 1455.29 401.054 1438.6C396.94 1421.9 389.234 1400.12 390.277 1384.45C391.32 1368.78 381.528 1356.64 380.486 1343.98C379.443 1331.33 379.964 1314.12 405.167 1238.26C430.371 1162.4 411.83 1097.66 407.717 1072.35C403.603 1047.05 409.803 972.725 418.493 875.55C427.242 778.432 398.968 698.013 389.176 607.962C379.385 517.911 420.058 444.047 420.058 444.047C420.058 444.047 430.371 477.16 438.077 498.191C445.782 519.165 447.579 565.729 451.46 590.237C455.342 614.744 492.829 697.5 498.507 714.199C504.185 730.898 491.032 757.173 491.032 757.173C491.032 757.173 489.236 762.986 489.236 768.287C489.236 773.587 486.919 799.405 488.483 824.939C490.048 850.472 504.416 833.26 505.691 827.96C506.966 822.659 505.691 810.006 505.691 808.752C505.691 807.499 505.459 802.198 508.24 796.385C511.079 790.571 519.017 800.659 519.828 806.986C520.581 813.312 516.236 824.939 516.236 824.939C516.236 824.939 505.923 834.799 504.416 836.053C502.852 837.307 496.189 840.84 488.715 842.379C481.241 843.918 478.923 854.291 481.009 856.571C483.095 858.85 504.938 855.317 504.938 855.317C504.938 855.317 513.686 855.089 530.894 838.617C548.102 822.203 549.435 806.017 548.913 791.084C548.392 776.152 539.411 745.033 537.325 692.199C535.298 639.366 524.463 520.704 508.53 481.492C492.597 442.28 490.279 365.167 481.531 304.468C472.782 243.769 422.897 243.256 402.618 237.671C382.282 232.085 320.867 191.107 319.824 182.558C318.781 173.951 326.777 167.625 332.397 158.05C338.075 148.418 334.193 128.983 334.193 128.983C352.443 121.916 350.647 104.476 350.126 98.8901C349.604 93.3047 344.969 92.8487 344.969 92.8487C344.969 92.8487 344.448 90.7969 343.405 87.7762C342.362 84.7555 343.405 72.6158 343.405 63.7247C343.405 17.1604 299.198 2 275.501 2C251.804 2 207.597 17.1604 207.597 63.7247C207.597 72.5588 208.64 84.6985 207.597 87.7762C206.554 90.7969 206.032 92.8487 206.032 92.8487C206.032 92.8487 201.397 93.3616 200.876 98.8901C200.354 104.476 198.558 121.916 216.809 128.983C216.809 128.983 212.927 148.475 218.605 158.05C224.283 167.682 232.221 174.008 231.178 182.558C230.135 191.164 168.72 232.142 148.383 237.671C128.047 243.256 78.1619 243.769 69.4711 304.468C60.7223 365.167 58.4048 442.337 42.4717 481.492C26.5385 520.704 15.704 639.309 13.6762 692.199C11.6483 745.033 2.6099 776.152 2.08845 791.084C1.567 806.017 2.84166 822.203 20.1074 838.617C37.3151 855.032 46.0639 855.317 46.0639 855.317C46.0639 855.317 67.9067 858.85 69.9925 856.571C72.0204 854.291 69.7608 843.918 62.2867 842.379C54.8126 840.84 48.1497 837.307 46.5853 836.053C45.021 834.799 34.7658 824.939 34.7658 824.939C34.7658 824.939 30.4204 813.312 31.1736 806.986C31.9268 800.659 39.9224 790.571 42.7614 796.385C45.6004 802.198 45.3107 807.499 45.3107 808.752C45.3107 810.006 44.036 822.659 45.3107 827.96C46.5853 833.26 61.012 850.472 62.5184 824.939C64.0828 799.405 61.7652 773.587 61.7652 768.287C61.7652 762.986 59.9691 757.173 59.9691 757.173C59.9691 757.173 46.875 730.841 52.4951 714.199C58.1151 697.557 95.7173 614.801 99.5412 590.237C103.365 565.672 105.219 519.165 112.925 498.191C120.631 477.217 130.944 444.047 130.944 444.047C130.944 444.047 171.559 517.911 161.825 607.962C152.034 698.013 123.76 778.432 132.508 875.55C141.257 972.668 147.399 1047.05 143.285 1072.35C139.171 1097.66 120.631 1162.4 145.834 1238.26C171.037 1314.12 171.559 1331.33 170.516 1343.98C169.473 1356.64 159.739 1368.78 160.724 1384.45C161.767 1400.12 154.061 1421.9 149.948 1438.6C145.834 1455.29 145.602 1491.94 173.355 1498.04C201.108 1504.14 228.628 1481.11 229.15 1431.01C229.671 1380.92 223.993 1355.16 220.923 1339.94C217.852 1324.78 206.496 1285.79 217.33 1247.38C228.165 1208.97 226.079 1141.14 223.993 1124.96C221.966 1108.77 222.429 1096.63 230.656 1072.86C238.884 1049.1 249.197 983.326 253.31 948.445C257.424 913.565 267.737 794.675 275.443 794.162H275.559Z" fill="#000E1F" fill-opacity="0.65"/>
<path d="M275.559 794.162C283.265 794.675 293.578 913.565 297.691 948.445C301.805 983.326 312.118 1049.1 320.345 1072.86C328.573 1096.63 329.094 1108.77 327.008 1124.96C324.98 1141.14 322.895 1208.91 333.671 1247.38C344.448 1285.85 333.15 1324.78 330.079 1339.94C327.008 1355.1 321.33 1380.92 321.852 1431.01C322.373 1481.11 349.894 1504.14 377.647 1498.04C405.399 1491.94 405.167 1455.29 401.054 1438.6C396.94 1421.9 389.234 1400.12 390.277 1384.45C391.32 1368.78 381.528 1356.64 380.486 1343.98C379.443 1331.33 379.964 1314.12 405.167 1238.26C430.371 1162.4 411.83 1097.66 407.717 1072.35C403.603 1047.05 409.803 972.725 418.493 875.55C427.242 778.432 398.968 698.013 389.176 607.962C379.385 517.911 420.058 444.047 420.058 444.047C420.058 444.047 430.371 477.16 438.077 498.191C445.782 519.165 447.579 565.729 451.46 590.237C455.342 614.744 492.829 697.5 498.507 714.199C504.185 730.898 491.032 757.173 491.032 757.173C491.032 757.173 489.236 762.986 489.236 768.287C489.236 773.587 486.919 799.405 488.483 824.939C490.048 850.472 504.416 833.26 505.691 827.96C506.966 822.659 505.691 810.006 505.691 808.752C505.691 807.499 505.459 802.198 508.24 796.385C511.079 790.571 519.017 800.659 519.828 806.986C520.581 813.312 516.236 824.939 516.236 824.939C516.236 824.939 505.923 834.799 504.416 836.053C502.852 837.307 496.189 840.84 488.715 842.379C481.241 843.918 478.923 854.291 481.009 856.571C483.095 858.85 504.938 855.317 504.938 855.317C504.938 855.317 513.686 855.089 530.894 838.617C548.102 822.203 549.435 806.017 548.913 791.084C548.392 776.152 539.411 745.033 537.325 692.199C535.298 639.366 524.463 520.704 508.53 481.492C492.597 442.28 490.279 365.167 481.531 304.468C472.782 243.769 422.897 243.256 402.618 237.671C382.282 232.085 320.867 191.107 319.824 182.558C318.781 173.951 326.777 167.625 332.397 158.05C338.075 148.418 334.193 128.983 334.193 128.983C352.443 121.916 350.647 104.476 350.126 98.8901C349.604 93.3047 344.969 92.8487 344.969 92.8487C344.969 92.8487 344.448 90.7969 343.405 87.7762C342.362 84.7555 343.405 72.6158 343.405 63.7247C343.405 17.1604 299.198 2 275.501 2C251.804 2 207.597 17.1604 207.597 63.7247C207.597 72.5588 208.64 84.6985 207.597 87.7762C206.554 90.7969 206.032 92.8487 206.032 92.8487C206.032 92.8487 201.397 93.3616 200.876 98.8901C200.354 104.476 198.558 121.916 216.809 128.983C216.809 128.983 212.927 148.475 218.605 158.05C224.283 167.682 232.221 174.008 231.178 182.558C230.135 191.164 168.72 232.142 148.383 237.671C128.047 243.256 78.1619 243.769 69.4711 304.468C60.7223 365.167 58.4048 442.337 42.4717 481.492C26.5385 520.704 15.704 639.309 13.6762 692.199C11.6483 745.033 2.6099 776.152 2.08845 791.084C1.567 806.017 2.84166 822.203 20.1074 838.617C37.3151 855.032 46.0639 855.317 46.0639 855.317C46.0639 855.317 67.9067 858.85 69.9925 856.571C72.0204 854.291 69.7608 843.918 62.2867 842.379C54.8126 840.84 48.1497 837.307 46.5853 836.053C45.021 834.799 34.7658 824.939 34.7658 824.939C34.7658 824.939 30.4204 813.312 31.1736 806.986C31.9268 800.659 39.9224 790.571 42.7614 796.385C45.6004 802.198 45.3107 807.499 45.3107 808.752C45.3107 810.006 44.036 822.659 45.3107 827.96C46.5853 833.26 61.012 850.472 62.5184 824.939C64.0828 799.405 61.7652 773.587 61.7652 768.287C61.7652 762.986 59.9691 757.173 59.9691 757.173C59.9691 757.173 46.875 730.841 52.4951 714.199C58.1151 697.557 95.7173 614.801 99.5412 590.237C103.365 565.672 105.219 519.165 112.925 498.191C120.631 477.217 130.944 444.047 130.944 444.047C130.944 444.047 171.559 517.911 161.825 607.962C152.034 698.013 123.76 778.432 132.508 875.55C141.257 972.668 147.399 1047.05 143.285 1072.35C139.171 1097.66 120.631 1162.4 145.834 1238.26C171.037 1314.12 171.559 1331.33 170.516 1343.98C169.473 1356.64 159.739 1368.78 160.724 1384.45C161.767 1400.12 154.061 1421.9 149.948 1438.6C145.834 1455.29 145.602 1491.94 173.355 1498.04C201.108 1504.14 228.628 1481.11 229.15 1431.01C229.671 1380.92 223.993 1355.16 220.923 1339.94C217.852 1324.78 206.496 1285.79 217.33 1247.38C228.165 1208.97 226.079 1141.14 223.993 1124.96C221.966 1108.77 222.429 1096.63 230.656 1072.86C238.884 1049.1 249.197 983.326 253.31 948.445C257.424 913.565 267.737 794.675 275.443 794.162H275.559Z" stroke="#006FFF" stroke-width="2.5" stroke-miterlimit="10"/>
</svg>
