<?xml version="1.0" encoding="UTF-8"?>
<svg xmlns="http://www.w3.org/2000/svg" xmlns:xlink="http://www.w3.org/1999/xlink" version="1.1" viewBox="0 0 336.3 274">
  <defs>
    <style>
      .cls-1 {
        mask: url(#mask);
      }

      .cls-2 {
        fill: #004fb7;
      }

      .cls-3 {
        fill: #006fff;
      }

      .cls-4 {
        mask: url(#mask-2);
      }

      .cls-5 {
        mask: url(#mask-3);
      }

      .cls-6 {
        mask: url(#mask-4);
      }

      .cls-7 {
        mask: url(#mask-1);
      }

      .cls-8 {
        fill: #fff;
      }

      .cls-9 {
        opacity: .7;
      }

      .cls-10 {
        opacity: .4;
      }

      .cls-11 {
        opacity: .2;
      }

      .cls-12 {
        opacity: .1;
      }
    </style>
    <mask id="mask" x="1.7" y="57.2" width="333" height="43" maskUnits="userSpaceOnUse">
      <g id="path-1-outside-1_273_204">
        <rect class="cls-8" x="1.7" y="57.2" width="333" height="43"/>
        <path d="M24.2,98.9c-3,0-5.9-.5-8.5-1.5-2.6-1-4.8-2.4-6.7-4.2-1.9-1.8-3.3-3.9-4.4-6.3-1-2.4-1.5-5.1-1.5-7.9s.5-5.5,1.5-7.9c1.1-2.4,2.5-4.5,4.5-6.3s4.1-3.2,6.7-4.2c2.6-1,5.4-1.5,8.4-1.5s5.8.5,8.4,1.5c2.6,1,4.8,2.4,6.7,4.2,1.9,1.8,3.4,3.9,4.5,6.3,1.1,2.4,1.6,5,1.6,7.9s-.5,5.5-1.6,8c-1.1,2.4-2.5,4.5-4.5,6.3-1.9,1.8-4.1,3.1-6.7,4.1-2.5,1-5.3,1.5-8.3,1.5ZM24.1,91.3c1.7,0,3.3-.3,4.7-.9,1.5-.6,2.8-1.4,3.8-2.5,1.1-1.1,1.9-2.4,2.5-3.9.6-1.5.9-3.2.9-5s-.3-3.5-.9-5c-.6-1.5-1.4-2.8-2.5-3.9-1.1-1.1-2.3-1.9-3.8-2.5-1.5-.6-3.1-.9-4.8-.9s-3.3.3-4.8.9c-1.4.6-2.7,1.4-3.8,2.5-1.1,1.1-2,2.4-2.6,3.9-.6,1.5-.9,3.2-.9,5s.3,3.5.9,5c.6,1.5,1.5,2.8,2.5,3.9,1.1,1.1,2.4,1.9,3.9,2.5s3.1.9,4.8.9ZM51.3,98.2v-38.5h7.4l22.7,27.7h-3.6v-27.7h8.8v38.5h-7.3l-22.8-27.7h3.6v27.7h-8.8ZM103.4,75.2h18.5v6.9h-18.5v-6.9ZM104,91.1h21v7.2h-29.8v-38.5h29.1v7.2h-20.2v24.2ZM149.7,98.2v-22.7h-9v-5.3h24.4v5.3h-9v22.7h-6.5ZM181.5,98.7c-2.2,0-4.3-.4-6.2-1.1-1.9-.7-3.5-1.7-4.9-3-1.4-1.3-2.4-2.8-3.2-4.6-.7-1.8-1.1-3.7-1.1-5.8s.4-4,1.1-5.8c.8-1.8,1.9-3.3,3.2-4.6s3-2.3,4.9-3c1.9-.7,3.9-1.1,6.1-1.1s4.2.4,6.1,1.1c1.9.7,3.5,1.7,4.8,3,1.4,1.3,2.5,2.8,3.2,4.6.8,1.7,1.2,3.7,1.2,5.8s-.4,4-1.2,5.8c-.8,1.8-1.9,3.3-3.2,4.6-1.4,1.3-3,2.3-4.8,3-1.8.7-3.9,1.1-6,1.1ZM181.4,93.2c1.3,0,2.4-.2,3.4-.6,1.1-.4,2-1,2.8-1.8.8-.8,1.4-1.7,1.8-2.8.5-1.1.7-2.3.7-3.6s-.2-2.5-.7-3.6c-.4-1.1-1-2-1.8-2.8-.8-.8-1.7-1.4-2.8-1.8s-2.2-.6-3.5-.6-2.4.2-3.5.6c-1,.4-2,1-2.8,1.8-.8.8-1.4,1.7-1.9,2.8-.4,1.1-.6,2.3-.6,3.6s.2,2.5.6,3.6c.5,1.1,1.1,2,1.8,2.8.8.8,1.7,1.4,2.8,1.8s2.2.6,3.5.6ZM232.1,98.9c-3,0-5.9-.5-8.5-1.5-2.6-1-4.8-2.4-6.7-4.2-1.9-1.8-3.3-3.9-4.4-6.3-1-2.4-1.5-5.1-1.5-7.9s.5-5.5,1.5-7.9c1.1-2.4,2.5-4.5,4.5-6.3s4.1-3.2,6.7-4.2c2.6-1,5.4-1.5,8.4-1.5s5.8.5,8.4,1.5c2.6,1,4.8,2.4,6.7,4.2,1.9,1.8,3.4,3.9,4.5,6.3,1.1,2.4,1.6,5,1.6,7.9s-.5,5.5-1.6,8c-1.1,2.4-2.5,4.5-4.5,6.3-1.9,1.8-4.1,3.1-6.7,4.1-2.5,1-5.3,1.5-8.3,1.5ZM232,91.3c1.7,0,3.3-.3,4.7-.9,1.5-.6,2.8-1.4,3.8-2.5,1.1-1.1,1.9-2.4,2.5-3.9.6-1.5.9-3.2.9-5s-.3-3.5-.9-5c-.6-1.5-1.4-2.8-2.5-3.9-1.1-1.1-2.3-1.9-3.8-2.5s-3.1-.9-4.8-.9-3.3.3-4.8.9c-1.4.6-2.7,1.4-3.8,2.5-1.1,1.1-2,2.4-2.6,3.9-.6,1.5-.9,3.2-.9,5s.3,3.5.9,5c.6,1.5,1.5,2.8,2.5,3.9,1.1,1.1,2.4,1.9,3.9,2.5,1.5.6,3.1.9,4.8.9ZM259.3,98.2v-38.5h7.4l22.7,27.7h-3.6v-27.7h8.8v38.5h-7.3l-22.8-27.7h3.6v27.7h-8.8ZM311.3,75.2h18.5v6.9h-18.5v-6.9ZM312,91.1h21v7.2h-29.8v-38.5h29.1v7.2h-20.2v24.2Z"/>
      </g>
    </mask>
    <mask id="mask-1" x="1.7" y="113.2" width="333" height="43" maskUnits="userSpaceOnUse">
      <g id="path-3-outside-2_273_204">
        <rect class="cls-8" x="1.7" y="113.2" width="333" height="43"/>
        <path d="M24.2,154.9c-3,0-5.9-.5-8.5-1.5-2.6-1-4.8-2.4-6.7-4.2-1.9-1.8-3.3-3.9-4.4-6.3-1-2.4-1.5-5.1-1.5-7.9s.5-5.5,1.5-7.9c1.1-2.4,2.5-4.5,4.5-6.3,1.9-1.8,4.1-3.2,6.7-4.2,2.6-1,5.4-1.5,8.4-1.5s5.8.5,8.4,1.5c2.6,1,4.8,2.4,6.7,4.2,1.9,1.8,3.4,3.9,4.5,6.3,1.1,2.4,1.6,5,1.6,7.9s-.5,5.5-1.6,8c-1.1,2.4-2.5,4.5-4.5,6.3-1.9,1.8-4.1,3.1-6.7,4.1-2.5,1-5.3,1.5-8.3,1.5ZM24.1,147.3c1.7,0,3.3-.3,4.7-.9,1.5-.6,2.8-1.4,3.8-2.5,1.1-1.1,1.9-2.4,2.5-3.9.6-1.5.9-3.2.9-5s-.3-3.5-.9-5c-.6-1.5-1.4-2.8-2.5-3.9-1.1-1.1-2.3-1.9-3.8-2.5-1.5-.6-3.1-.9-4.8-.9s-3.3.3-4.8.9c-1.4.6-2.7,1.4-3.8,2.5-1.1,1.1-2,2.4-2.6,3.9-.6,1.5-.9,3.2-.9,5s.3,3.5.9,5c.6,1.5,1.5,2.8,2.5,3.9,1.1,1.1,2.4,1.9,3.9,2.5,1.5.6,3.1.9,4.8.9ZM51.3,154.2v-38.5h7.4l22.7,27.7h-3.6v-27.7h8.8v38.5h-7.3l-22.8-27.7h3.6v27.7h-8.8ZM103.4,131.2h18.5v6.9h-18.5v-6.9ZM104,147.1h21v7.1h-29.8v-38.5h29.1v7.2h-20.2v24.2ZM149.7,154.2v-22.7h-9v-5.3h24.4v5.3h-9v22.7h-6.5ZM181.5,154.7c-2.2,0-4.3-.4-6.2-1.1-1.9-.7-3.5-1.7-4.9-3-1.4-1.3-2.4-2.8-3.2-4.6-.7-1.8-1.1-3.7-1.1-5.8s.4-4,1.1-5.8c.8-1.8,1.9-3.3,3.2-4.6s3-2.3,4.9-3c1.9-.7,3.9-1.1,6.1-1.1s4.2.4,6.1,1.1c1.9.7,3.5,1.7,4.8,3,1.4,1.3,2.5,2.8,3.2,4.6.8,1.7,1.2,3.7,1.2,5.8s-.4,4-1.2,5.8c-.8,1.8-1.9,3.3-3.2,4.6-1.4,1.3-3,2.3-4.8,3-1.8.7-3.9,1.1-6,1.1ZM181.4,149.2c1.3,0,2.4-.2,3.4-.6,1.1-.4,2-1,2.8-1.8s1.4-1.7,1.8-2.8c.5-1.1.7-2.3.7-3.6s-.2-2.5-.7-3.6c-.4-1.1-1-2-1.8-2.8-.8-.8-1.7-1.4-2.8-1.8-1.1-.4-2.2-.6-3.5-.6s-2.4.2-3.5.6c-1,.4-2,1-2.8,1.8s-1.4,1.7-1.9,2.8c-.4,1.1-.6,2.3-.6,3.6s.2,2.5.6,3.6c.5,1.1,1.1,2,1.8,2.8.8.8,1.7,1.4,2.8,1.8,1.1.4,2.2.6,3.5.6ZM232.1,154.9c-3,0-5.9-.5-8.5-1.5-2.6-1-4.8-2.4-6.7-4.2-1.9-1.8-3.3-3.9-4.4-6.3-1-2.4-1.5-5.1-1.5-7.9s.5-5.5,1.5-7.9c1.1-2.4,2.5-4.5,4.5-6.3,1.9-1.8,4.1-3.2,6.7-4.2,2.6-1,5.4-1.5,8.4-1.5s5.8.5,8.4,1.5c2.6,1,4.8,2.4,6.7,4.2,1.9,1.8,3.4,3.9,4.5,6.3,1.1,2.4,1.6,5,1.6,7.9s-.5,5.5-1.6,8c-1.1,2.4-2.5,4.5-4.5,6.3-1.9,1.8-4.1,3.1-6.7,4.1-2.5,1-5.3,1.5-8.3,1.5ZM232,147.3c1.7,0,3.3-.3,4.7-.9,1.5-.6,2.8-1.4,3.8-2.5s1.9-2.4,2.5-3.9c.6-1.5.9-3.2.9-5s-.3-3.5-.9-5c-.6-1.5-1.4-2.8-2.5-3.9-1.1-1.1-2.3-1.9-3.8-2.5-1.5-.6-3.1-.9-4.8-.9s-3.3.3-4.8.9c-1.4.6-2.7,1.4-3.8,2.5s-2,2.4-2.6,3.9c-.6,1.5-.9,3.2-.9,5s.3,3.5.9,5c.6,1.5,1.5,2.8,2.5,3.9,1.1,1.1,2.4,1.9,3.9,2.5,1.5.6,3.1.9,4.8.9ZM259.3,154.2v-38.5h7.4l22.7,27.7h-3.6v-27.7h8.8v38.5h-7.3l-22.8-27.7h3.6v27.7h-8.8ZM311.3,131.2h18.5v6.9h-18.5v-6.9ZM312,147.1h21v7.1h-29.8v-38.5h29.1v7.2h-20.2v24.2Z"/>
      </g>
    </mask>
    <mask id="mask-2" x="1.7" y="171.2" width="333" height="43" maskUnits="userSpaceOnUse">
      <g id="path-5-outside-3_273_204">
        <rect class="cls-8" x="1.7" y="171.2" width="333" height="43"/>
        <path d="M24.2,212.9c-3,0-5.9-.5-8.5-1.5-2.6-1-4.8-2.4-6.7-4.2-1.9-1.8-3.3-3.9-4.4-6.3-1-2.4-1.5-5.1-1.5-7.9s.5-5.5,1.5-7.9c1.1-2.4,2.5-4.5,4.5-6.3,1.9-1.8,4.1-3.2,6.7-4.2,2.6-1,5.4-1.5,8.4-1.5s5.8.5,8.4,1.5c2.6,1,4.8,2.4,6.7,4.2,1.9,1.8,3.4,3.9,4.5,6.3,1.1,2.4,1.6,5,1.6,7.9s-.5,5.5-1.6,8c-1.1,2.4-2.5,4.5-4.5,6.3-1.9,1.8-4.1,3.1-6.7,4.1-2.5,1-5.3,1.5-8.3,1.5ZM24.1,205.3c1.7,0,3.3-.3,4.7-.9,1.5-.6,2.8-1.4,3.8-2.5,1.1-1.1,1.9-2.4,2.5-3.9.6-1.5.9-3.2.9-5s-.3-3.5-.9-5c-.6-1.5-1.4-2.8-2.5-3.9-1.1-1.1-2.3-1.9-3.8-2.5-1.5-.6-3.1-.9-4.8-.9s-3.3.3-4.8.9c-1.4.6-2.7,1.4-3.8,2.5-1.1,1.1-2,2.4-2.6,3.9-.6,1.5-.9,3.2-.9,5s.3,3.5.9,5c.6,1.5,1.5,2.8,2.5,3.9,1.1,1.1,2.4,1.9,3.9,2.5,1.5.6,3.1.9,4.8.9ZM51.3,212.2v-38.5h7.4l22.7,27.7h-3.6v-27.7h8.8v38.5h-7.3l-22.8-27.7h3.6v27.7h-8.8ZM103.4,189.2h18.5v6.9h-18.5v-6.9ZM104,205.1h21v7.1h-29.8v-38.5h29.1v7.1h-20.2v24.2ZM149.7,212.2v-22.7h-9v-5.3h24.4v5.3h-9v22.7h-6.5ZM181.5,212.7c-2.2,0-4.3-.4-6.2-1.1-1.9-.7-3.5-1.7-4.9-3-1.4-1.3-2.4-2.8-3.2-4.6-.7-1.8-1.1-3.7-1.1-5.8s.4-4,1.1-5.8c.8-1.8,1.9-3.3,3.2-4.6s3-2.3,4.9-3c1.9-.7,3.9-1.1,6.1-1.1s4.2.4,6.1,1.1c1.9.7,3.5,1.7,4.8,3,1.4,1.3,2.5,2.8,3.2,4.6.8,1.7,1.2,3.7,1.2,5.8s-.4,4-1.2,5.8c-.8,1.8-1.9,3.3-3.2,4.6-1.4,1.3-3,2.3-4.8,3-1.8.7-3.9,1.1-6,1.1ZM181.4,207.2c1.3,0,2.4-.2,3.4-.6,1.1-.4,2-1,2.8-1.8s1.4-1.7,1.8-2.8c.5-1.1.7-2.3.7-3.6s-.2-2.5-.7-3.6c-.4-1.1-1-2-1.8-2.8-.8-.8-1.7-1.4-2.8-1.8-1.1-.4-2.2-.6-3.5-.6s-2.4.2-3.5.6c-1,.4-2,1-2.8,1.8s-1.4,1.7-1.9,2.8c-.4,1.1-.6,2.3-.6,3.6s.2,2.5.6,3.6c.5,1.1,1.1,2,1.8,2.8.8.8,1.7,1.4,2.8,1.8,1.1.4,2.2.6,3.5.6ZM232.1,212.9c-3,0-5.9-.5-8.5-1.5-2.6-1-4.8-2.4-6.7-4.2-1.9-1.8-3.3-3.9-4.4-6.3-1-2.4-1.5-5.1-1.5-7.9s.5-5.5,1.5-7.9c1.1-2.4,2.5-4.5,4.5-6.3,1.9-1.8,4.1-3.2,6.7-4.2,2.6-1,5.4-1.5,8.4-1.5s5.8.5,8.4,1.5c2.6,1,4.8,2.4,6.7,4.2,1.9,1.8,3.4,3.9,4.5,6.3,1.1,2.4,1.6,5,1.6,7.9s-.5,5.5-1.6,8c-1.1,2.4-2.5,4.5-4.5,6.3-1.9,1.8-4.1,3.1-6.7,4.1-2.5,1-5.3,1.5-8.3,1.5ZM232,205.3c1.7,0,3.3-.3,4.7-.9,1.5-.6,2.8-1.4,3.8-2.5s1.9-2.4,2.5-3.9c.6-1.5.9-3.2.9-5s-.3-3.5-.9-5c-.6-1.5-1.4-2.8-2.5-3.9-1.1-1.1-2.3-1.9-3.8-2.5-1.5-.6-3.1-.9-4.8-.9s-3.3.3-4.8.9c-1.4.6-2.7,1.4-3.8,2.5s-2,2.4-2.6,3.9c-.6,1.5-.9,3.2-.9,5s.3,3.5.9,5c.6,1.5,1.5,2.8,2.5,3.9,1.1,1.1,2.4,1.9,3.9,2.5,1.5.6,3.1.9,4.8.9ZM259.3,212.2v-38.5h7.4l22.7,27.7h-3.6v-27.7h8.8v38.5h-7.3l-22.8-27.7h3.6v27.7h-8.8ZM311.3,189.2h18.5v6.9h-18.5v-6.9ZM312,205.1h21v7.1h-29.8v-38.5h29.1v7.1h-20.2v24.2Z"/>
      </g>
    </mask>
    <mask id="mask-3" x="1.7" y="230.2" width="333" height="43" maskUnits="userSpaceOnUse">
      <g id="path-7-outside-4_273_204">
        <rect class="cls-8" x="1.7" y="230.2" width="333" height="43"/>
        <path d="M24.2,271.9c-3,0-5.9-.5-8.5-1.5-2.6-1-4.8-2.4-6.7-4.2-1.9-1.8-3.3-3.9-4.4-6.3-1-2.4-1.5-5.1-1.5-7.9s.5-5.5,1.5-7.9c1.1-2.4,2.5-4.5,4.5-6.3,1.9-1.8,4.1-3.2,6.7-4.2,2.6-1,5.4-1.5,8.4-1.5s5.8.5,8.4,1.5c2.6,1,4.8,2.4,6.7,4.2,1.9,1.8,3.4,3.9,4.5,6.3,1.1,2.4,1.6,5,1.6,7.9s-.5,5.5-1.6,8c-1.1,2.4-2.5,4.5-4.5,6.3-1.9,1.8-4.1,3.1-6.7,4.1-2.5,1-5.3,1.5-8.3,1.5ZM24.1,264.3c1.7,0,3.3-.3,4.7-.9,1.5-.6,2.8-1.4,3.8-2.5s1.9-2.4,2.5-3.9c.6-1.5.9-3.2.9-5s-.3-3.5-.9-5c-.6-1.5-1.4-2.8-2.5-3.9-1.1-1.1-2.3-1.9-3.8-2.5-1.5-.6-3.1-.9-4.8-.9s-3.3.3-4.8.9c-1.4.6-2.7,1.4-3.8,2.5-1.1,1.1-2,2.4-2.6,3.9-.6,1.5-.9,3.2-.9,5s.3,3.5.9,5c.6,1.5,1.5,2.8,2.5,3.9,1.1,1.1,2.4,1.9,3.9,2.5s3.1.9,4.8.9ZM51.3,271.2v-38.5h7.4l22.7,27.7h-3.6v-27.7h8.8v38.5h-7.3l-22.8-27.7h3.6v27.7h-8.8ZM103.4,248.2h18.5v6.9h-18.5v-6.9ZM104,264.1h21v7.1h-29.8v-38.5h29.1v7.1h-20.2v24.2ZM149.7,271.2v-22.7h-9v-5.3h24.4v5.3h-9v22.7h-6.5ZM181.5,271.7c-2.2,0-4.3-.4-6.2-1.1-1.9-.7-3.5-1.7-4.9-3-1.4-1.3-2.4-2.8-3.2-4.6-.7-1.8-1.1-3.7-1.1-5.8s.4-4,1.1-5.8c.8-1.8,1.9-3.3,3.2-4.6s3-2.3,4.9-3c1.9-.7,3.9-1.1,6.1-1.1s4.2.4,6.1,1.1c1.9.7,3.5,1.7,4.8,3,1.4,1.3,2.5,2.8,3.2,4.6.8,1.7,1.2,3.7,1.2,5.8s-.4,4-1.2,5.8c-.8,1.8-1.9,3.3-3.2,4.6-1.4,1.3-3,2.3-4.8,3-1.8.7-3.9,1.1-6,1.1ZM181.4,266.2c1.3,0,2.4-.2,3.4-.6,1.1-.4,2-1,2.8-1.8.8-.8,1.4-1.7,1.8-2.8.5-1.1.7-2.3.7-3.6s-.2-2.5-.7-3.6c-.4-1.1-1-2-1.8-2.8-.8-.8-1.7-1.4-2.8-1.8-1.1-.4-2.2-.6-3.5-.6s-2.4.2-3.5.6c-1,.4-2,1-2.8,1.8s-1.4,1.7-1.9,2.8c-.4,1.1-.6,2.3-.6,3.6s.2,2.5.6,3.6c.5,1.1,1.1,2,1.8,2.8.8.8,1.7,1.4,2.8,1.8s2.2.6,3.5.6ZM232.1,271.9c-3,0-5.9-.5-8.5-1.5-2.6-1-4.8-2.4-6.7-4.2-1.9-1.8-3.3-3.9-4.4-6.3-1-2.4-1.5-5.1-1.5-7.9s.5-5.5,1.5-7.9c1.1-2.4,2.5-4.5,4.5-6.3,1.9-1.8,4.1-3.2,6.7-4.2,2.6-1,5.4-1.5,8.4-1.5s5.8.5,8.4,1.5c2.6,1,4.8,2.4,6.7,4.2,1.9,1.8,3.4,3.9,4.5,6.3,1.1,2.4,1.6,5,1.6,7.9s-.5,5.5-1.6,8c-1.1,2.4-2.5,4.5-4.5,6.3-1.9,1.8-4.1,3.1-6.7,4.1-2.5,1-5.3,1.5-8.3,1.5ZM232,264.3c1.7,0,3.3-.3,4.7-.9,1.5-.6,2.8-1.4,3.8-2.5,1.1-1.1,1.9-2.4,2.5-3.9.6-1.5.9-3.2.9-5s-.3-3.5-.9-5c-.6-1.5-1.4-2.8-2.5-3.9-1.1-1.1-2.3-1.9-3.8-2.5-1.5-.6-3.1-.9-4.8-.9s-3.3.3-4.8.9c-1.4.6-2.7,1.4-3.8,2.5s-2,2.4-2.6,3.9c-.6,1.5-.9,3.2-.9,5s.3,3.5.9,5c.6,1.5,1.5,2.8,2.5,3.9,1.1,1.1,2.4,1.9,3.9,2.5,1.5.6,3.1.9,4.8.9ZM259.3,271.2v-38.5h7.4l22.7,27.7h-3.6v-27.7h8.8v38.5h-7.3l-22.8-27.7h3.6v27.7h-8.8ZM311.3,248.2h18.5v6.9h-18.5v-6.9ZM312,264.1h21v7.1h-29.8v-38.5h29.1v7.1h-20.2v24.2Z"/>
      </g>
    </mask>
    <mask id="mask-4" x="1.7" y=".2" width="333" height="43" maskUnits="userSpaceOnUse">
      <g id="path-9-outside-5_273_204">
        <rect class="cls-8" x="1.7" y=".2" width="333" height="43"/>
        <path d="M24.2,41.9c-3,0-5.9-.5-8.5-1.5-2.6-1-4.8-2.4-6.7-4.2-1.9-1.8-3.3-3.9-4.4-6.3-1-2.4-1.5-5.1-1.5-7.9s.5-5.5,1.5-7.9c1.1-2.4,2.5-4.5,4.5-6.3,1.9-1.8,4.1-3.2,6.7-4.2s5.4-1.5,8.4-1.5,5.8.5,8.4,1.5c2.6,1,4.8,2.4,6.7,4.2,1.9,1.8,3.4,3.9,4.5,6.3,1.1,2.4,1.6,5,1.6,7.9s-.5,5.5-1.6,8c-1.1,2.4-2.5,4.5-4.5,6.3-1.9,1.8-4.1,3.1-6.7,4.1-2.5,1-5.3,1.5-8.3,1.5ZM24.1,34.3c1.7,0,3.3-.3,4.7-.9,1.5-.6,2.8-1.4,3.8-2.5s1.9-2.4,2.5-3.9c.6-1.5.9-3.2.9-5s-.3-3.5-.9-5c-.6-1.5-1.4-2.8-2.5-3.9-1.1-1.1-2.3-1.9-3.8-2.5-1.5-.6-3.1-.9-4.8-.9s-3.3.3-4.8.9c-1.4.6-2.7,1.4-3.8,2.5s-2,2.4-2.6,3.9c-.6,1.5-.9,3.2-.9,5s.3,3.5.9,5c.6,1.5,1.5,2.8,2.5,3.9,1.1,1.1,2.4,1.9,3.9,2.5s3.1.9,4.8.9ZM51.3,41.2V2.7h7.4l22.7,27.7h-3.6V2.7h8.8v38.5h-7.3l-22.8-27.7h3.6v27.7h-8.8ZM103.4,18.2h18.5v6.9h-18.5v-6.9ZM104,34.1h21v7.2h-29.8V2.7h29.1v7.1h-20.2v24.2ZM149.7,41.2v-22.7h-9v-5.3h24.4v5.3h-9v22.7h-6.5ZM181.5,41.7c-2.2,0-4.3-.4-6.2-1.1-1.9-.7-3.5-1.7-4.9-3-1.4-1.3-2.4-2.8-3.2-4.6-.7-1.8-1.1-3.7-1.1-5.8s.4-4,1.1-5.8c.8-1.8,1.9-3.3,3.2-4.6s3-2.3,4.9-3c1.9-.7,3.9-1.1,6.1-1.1s4.2.4,6.1,1.1c1.9.7,3.5,1.7,4.8,3,1.4,1.3,2.5,2.8,3.2,4.6.8,1.7,1.2,3.7,1.2,5.8s-.4,4-1.2,5.8c-.8,1.8-1.9,3.3-3.2,4.6-1.4,1.3-3,2.3-4.8,3-1.8.7-3.9,1.1-6,1.1ZM181.4,36.2c1.3,0,2.4-.2,3.4-.6,1.1-.4,2-1,2.8-1.8s1.4-1.7,1.8-2.8c.5-1.1.7-2.3.7-3.6s-.2-2.5-.7-3.6c-.4-1.1-1-2-1.8-2.8-.8-.8-1.7-1.4-2.8-1.8s-2.2-.6-3.5-.6-2.4.2-3.5.6c-1,.4-2,1-2.8,1.8-.8.8-1.4,1.7-1.9,2.8-.4,1.1-.6,2.3-.6,3.6s.2,2.5.6,3.6c.5,1.1,1.1,2,1.8,2.8.8.8,1.7,1.4,2.8,1.8s2.2.6,3.5.6ZM232.1,41.9c-3,0-5.9-.5-8.5-1.5-2.6-1-4.8-2.4-6.7-4.2-1.9-1.8-3.3-3.9-4.4-6.3-1-2.4-1.5-5.1-1.5-7.9s.5-5.5,1.5-7.9c1.1-2.4,2.5-4.5,4.5-6.3,1.9-1.8,4.1-3.2,6.7-4.2,2.6-1,5.4-1.5,8.4-1.5s5.8.5,8.4,1.5c2.6,1,4.8,2.4,6.7,4.2,1.9,1.8,3.4,3.9,4.5,6.3,1.1,2.4,1.6,5,1.6,7.9s-.5,5.5-1.6,8c-1.1,2.4-2.5,4.5-4.5,6.3-1.9,1.8-4.1,3.1-6.7,4.1-2.5,1-5.3,1.5-8.3,1.5ZM232,34.3c1.7,0,3.3-.3,4.7-.9,1.5-.6,2.8-1.4,3.8-2.5,1.1-1.1,1.9-2.4,2.5-3.9.6-1.5.9-3.2.9-5s-.3-3.5-.9-5c-.6-1.5-1.4-2.8-2.5-3.9-1.1-1.1-2.3-1.9-3.8-2.5-1.5-.6-3.1-.9-4.8-.9s-3.3.3-4.8.9c-1.4.6-2.7,1.4-3.8,2.5-1.1,1.1-2,2.4-2.6,3.9-.6,1.5-.9,3.2-.9,5s.3,3.5.9,5c.6,1.5,1.5,2.8,2.5,3.9,1.1,1.1,2.4,1.9,3.9,2.5,1.5.6,3.1.9,4.8.9ZM259.3,41.2V2.7h7.4l22.7,27.7h-3.6V2.7h8.8v38.5h-7.3l-22.8-27.7h3.6v27.7h-8.8ZM311.3,18.2h18.5v6.9h-18.5v-6.9ZM312,34.1h21v7.2h-29.8V2.7h29.1v7.1h-20.2v24.2Z"/>
      </g>
    </mask>
  </defs>
  <!-- Generator: Adobe Illustrator 28.6.0, SVG Export Plug-In . SVG Version: 1.2.0 Build 709)  -->
  <g>
    <g id="Capa_1">
      <g class="cls-9">
        <g class="cls-1">
          <path class="cls-3" d="M15.7,97.4l-.4.9h0s.4-.9.4-.9ZM9,93.2l-.7.7h0s.7-.7.7-.7ZM4.6,86.9l-.9.4h0s.9-.4.9-.4ZM4.6,71.1l-.9-.4h0s.9.4.9.4ZM15.7,60.6l-.4-.9h0l.4.9ZM32.5,60.6l-.4.9h0s.4-.9.4-.9ZM39.1,64.7l-.7.7h0s.7-.7.7-.7ZM43.6,71.1l-.9.4h0s.9-.4.9-.4ZM43.6,87l.9.4h0s-.9-.4-.9-.4ZM39.1,93.3l.7.7h0s-.7-.7-.7-.7ZM32.5,97.4l-.4-.9h0s.4.9.4.9ZM28.8,90.4l-.4-.9h0s.4.9.4.9ZM32.7,87.9l-.7-.7.7.7ZM35.2,84l-.9-.4h0s0,0,0,0l.9.4ZM35.2,74l-.9.4h0s0,0,0,0l.9-.4ZM32.7,70.1l-.7.7h0s0,0,0,0l.7-.7ZM28.9,67.5l-.4.9.4-.9ZM19.3,67.5l-.4-.9h0s.4.9.4.9ZM15.5,70.1l.7.7-.7-.7ZM12.9,74l-.9-.4h0s0,0,0,0l.9.4ZM12.9,84l-.9.4h0s0,0,0,0l.9-.4ZM15.5,87.9l-.7.7h0s0,0,0,0l.7-.7ZM19.3,90.4l-.4.9.4-.9ZM24.2,97.9c-2.9,0-5.6-.5-8.1-1.4l-.7,1.9c2.7,1,5.7,1.6,8.8,1.6v-2ZM16,96.5c-2.5-.9-4.6-2.3-6.4-4l-1.4,1.5c2,1.9,4.4,3.4,7,4.4l.7-1.9ZM9.7,92.5c-1.8-1.7-3.2-3.7-4.2-6l-1.8.8c1.1,2.5,2.7,4.8,4.6,6.6l1.4-1.4ZM5.5,86.5c-1-2.3-1.5-4.8-1.5-7.5h-2c0,3,.5,5.8,1.6,8.3l1.8-.8ZM4,79c0-2.7.5-5.2,1.5-7.5l-1.8-.8c-1.1,2.6-1.6,5.3-1.6,8.3h2ZM5.5,71.5c1-2.3,2.4-4.3,4.2-6l-1.4-1.5c-2,1.9-3.6,4.1-4.7,6.7l1.8.8ZM9.7,65.5c1.8-1.7,3.9-3,6.4-4l-.7-1.9c-2.7,1-5,2.5-7,4.4l1.4,1.5ZM16.1,61.5c2.4-.9,5.1-1.4,8-1.4v-2c-3.1,0-6,.5-8.7,1.6l.7,1.9ZM24.1,60.1c2.9,0,5.6.5,8,1.4l.7-1.9c-2.7-1-5.6-1.6-8.7-1.6v2ZM32.1,61.5c2.5.9,4.6,2.3,6.3,4l1.4-1.4c-2-1.9-4.3-3.4-7-4.4l-.7,1.9ZM38.4,65.5c1.8,1.7,3.2,3.7,4.2,6l1.8-.8c-1.1-2.5-2.7-4.8-4.7-6.7l-1.4,1.5ZM42.7,71.5c1,2.2,1.5,4.7,1.5,7.5h2c0-3-.6-5.8-1.7-8.3l-1.8.8ZM44.2,79c0,2.7-.5,5.3-1.5,7.6l1.8.8c1.1-2.6,1.7-5.4,1.7-8.4h-2ZM42.7,86.6c-1,2.3-2.4,4.3-4.2,6l1.4,1.5c2-1.9,3.6-4.1,4.7-6.7l-1.8-.8ZM38.4,92.5c-1.8,1.7-3.9,3-6.3,3.9l.7,1.9c2.7-1,5-2.5,7-4.3l-1.4-1.5ZM32.1,96.5c-2.4.9-5,1.4-7.9,1.4v2c3.1,0,6-.5,8.7-1.6l-.7-1.9ZM24.1,92.3c1.8,0,3.5-.3,5.1-1l-.8-1.9c-1.3.5-2.7.8-4.4.8v2ZM29.2,91.3c1.6-.6,3-1.6,4.2-2.8l-1.4-1.4c-1,1-2.2,1.8-3.5,2.3l.7,1.9ZM33.4,88.6c1.2-1.2,2.1-2.6,2.8-4.2l-1.9-.7c-.5,1.4-1.3,2.6-2.3,3.6l1.4,1.4ZM36.1,84.4c.7-1.6,1-3.4,1-5.4h-2c0,1.7-.3,3.3-.9,4.6l1.8.8ZM37.1,79c0-1.9-.3-3.7-1-5.4l-1.8.8c.6,1.4.9,2.9.9,4.6h2ZM36.1,73.6c-.6-1.6-1.6-3-2.8-4.2l-1.4,1.4c1,1,1.8,2.2,2.3,3.6l1.9-.7ZM33.4,69.4c-1.2-1.2-2.5-2.1-4.1-2.8l-.7,1.9c1.3.5,2.5,1.3,3.4,2.3l1.4-1.4ZM29.3,66.6c-1.6-.6-3.3-1-5.2-1v2c1.6,0,3.1.3,4.4.8l.7-1.9ZM24.1,65.7c-1.8,0-3.6.3-5.2,1l.7,1.9c1.3-.5,2.8-.8,4.4-.8v-2ZM18.9,66.6c-1.6.6-2.9,1.6-4.1,2.7l1.4,1.4c1-1,2.2-1.8,3.5-2.3l-.8-1.9ZM14.8,69.4c-1.2,1.2-2.1,2.6-2.8,4.2l1.8.8c.6-1.4,1.4-2.6,2.4-3.6l-1.4-1.4ZM12,73.6c-.6,1.6-.9,3.4-.9,5.4h2c0-1.7.3-3.3.8-4.6l-1.9-.7ZM11.1,79c0,1.9.3,3.7.9,5.4l1.9-.7c-.5-1.4-.8-3-.8-4.6h-2ZM12,84.4c.7,1.6,1.6,3,2.7,4.2l1.4-1.4c-1-1-1.7-2.2-2.3-3.6l-1.8.8ZM14.8,88.6c1.2,1.2,2.6,2.1,4.2,2.8l.7-1.9c-1.3-.5-2.5-1.3-3.5-2.3l-1.4,1.4ZM18.9,91.3c1.6.6,3.3,1,5.2,1v-2c-1.6,0-3.1-.3-4.4-.8l-.7,1.9ZM51.3,98.2h-1v1h1v-1ZM51.3,59.7v-1h-1v1h1ZM58.7,59.7l.8-.6-.3-.4h-.5v1ZM81.4,87.4v1h2.1l-1.3-1.6-.8.6ZM77.8,87.4h-1v1h1v-1ZM77.8,59.7v-1h-1v1h1ZM86.6,59.7h1v-1h-1v1ZM86.6,98.2v1h1v-1h-1ZM79.3,98.2l-.8.6.3.4h.5v-1ZM56.5,70.5v-1h-2.1l1.3,1.6.8-.6ZM60.1,70.5h1v-1h-1v1ZM60.1,98.2v1h1v-1h-1ZM52.3,98.2v-38.5h-2v38.5h2ZM51.3,60.7h7.4v-2h-7.4v2ZM57.9,60.4l22.7,27.7,1.5-1.3-22.7-27.7-1.5,1.3ZM81.4,86.4h-3.6v2h3.6v-2ZM78.8,87.4v-27.7h-2v27.7h2ZM77.8,60.7h8.8v-2h-8.8v2ZM85.6,59.7v38.5h2v-38.5h-2ZM86.6,97.2h-7.3v2h7.3v-2ZM80.1,97.6l-22.8-27.7-1.5,1.3,22.8,27.7,1.5-1.3ZM56.5,71.5h3.6v-2h-3.6v2ZM59.1,70.5v27.7h2v-27.7h-2ZM60.1,97.2h-8.8v2h8.8v-2ZM103.4,75.2v-1h-1v1h1ZM121.9,75.2h1v-1h-1v1ZM121.9,82.2v1h1v-1h-1ZM103.4,82.2h-1v1h1v-1ZM104,91.1h-1v1h1v-1ZM125,91.1h1v-1h-1v1ZM125,98.2v1h1v-1h-1ZM95.2,98.2h-1v1h1v-1ZM95.2,59.7v-1h-1v1h1ZM124.3,59.7h1v-1h-1v1ZM124.3,66.9v1h1v-1h-1ZM104,66.9v-1h-1v1h1ZM103.4,76.2h18.5v-2h-18.5v2ZM120.9,75.2v6.9h2v-6.9h-2ZM121.9,81.2h-18.5v2h18.5v-2ZM104.4,82.2v-6.9h-2v6.9h2ZM104,92.1h21v-2h-21v2ZM124,91.1v7.2h2v-7.2h-2ZM125,97.2h-29.8v2h29.8v-2ZM96.2,98.2v-38.5h-2v38.5h2ZM95.2,60.7h29.1v-2h-29.1v2ZM123.3,59.7v7.2h2v-7.2h-2ZM124.3,65.9h-20.2v2h20.2v-2ZM103,66.9v24.2h2v-24.2h-2ZM149.7,98.2h-1v1h1v-1ZM149.7,75.5h1v-1h-1v1ZM140.8,75.5h-1v1h1v-1ZM140.8,70.2v-1h-1v1h1ZM165.2,70.2h1v-1h-1v1ZM165.2,75.5v1h1v-1h-1ZM156.2,75.5v-1h-1v1h1ZM156.2,98.2v1h1v-1h-1ZM150.7,98.2v-22.7h-2v22.7h2ZM149.7,74.5h-9v2h9v-2ZM141.8,75.5v-5.3h-2v5.3h2ZM140.8,71.2h24.4v-2h-24.4v2ZM164.2,70.2v5.3h2v-5.3h-2ZM165.2,74.5h-9v2h9v-2ZM155.2,75.5v22.7h2v-22.7h-2ZM156.2,97.2h-6.5v2h6.5v-2ZM175.3,97.6l-.4.9h0s.4-.9.4-.9ZM170.4,94.6l-.7.7h0s.7-.7.7-.7ZM167.2,90l-.9.4h0s.9-.4.9-.4ZM167.2,78.5l-.9-.4h0s.9.4.9.4ZM175.4,70.8l-.4-.9.4.9ZM187.5,70.8l-.4.9h0s.4-.9.4-.9ZM192.4,73.9l-.7.7h0s.7-.7.7-.7ZM195.6,78.5l-.9.4h0s.9-.4.9-.4ZM195.6,90l.9.4h0s-.9-.4-.9-.4ZM192.4,94.6l.7.7h0s-.7-.7-.7-.7ZM187.5,97.6l-.4-.9h0s.4.9.4.9ZM184.9,92.5l-.4-.9h0s.4.9.4.9ZM187.7,90.7l-.7-.7.7.7ZM189.5,87.9l-.9-.4h0s0,0,0,0l.9.4ZM189.5,80.6l-.9.4h0s0,0,0,0l.9-.4ZM187.7,77.7l-.7.7h0s0,0,0,0l.7-.7ZM184.9,75.9l-.4.9.4-.9ZM178,75.9l-.4-.9h0s.4.9.4.9ZM175.2,77.7l.7.7-.7-.7ZM173.3,80.6l-.9-.4h0s0,0,0,0l.9.4ZM173.3,87.9l-.9.4h0s0,0,0,0l.9-.4ZM175.2,90.7l-.7.7h0s0,0,0,0l.7-.7ZM178,92.5l-.4.9.4-.9ZM181.5,97.7c-2.1,0-4-.3-5.8-1l-.7,1.9c2,.8,4.2,1.1,6.5,1.1v-2ZM175.7,96.7c-1.8-.7-3.3-1.6-4.6-2.8l-1.4,1.5c1.5,1.4,3.2,2.5,5.2,3.2l.7-1.9ZM171.1,93.9c-1.3-1.2-2.3-2.6-3-4.3l-1.8.8c.8,1.9,2,3.5,3.4,4.9l1.4-1.4ZM168.2,89.6c-.7-1.6-1-3.4-1-5.4h-2c0,2.2.4,4.3,1.2,6.2l1.8-.8ZM167.1,84.2c0-2,.4-3.7,1-5.4l-1.8-.8c-.8,1.9-1.2,3.9-1.2,6.2h2ZM168.2,78.9c.7-1.6,1.7-3.1,3-4.3l-1.4-1.5c-1.5,1.4-2.6,3-3.5,4.9l1.8.8ZM171.2,74.6c1.3-1.2,2.8-2.2,4.6-2.8l-.7-1.9c-2,.8-3.7,1.8-5.2,3.2l1.4,1.5ZM175.7,71.8c1.7-.7,3.6-1,5.7-1v-2c-2.3,0-4.4.4-6.4,1.1l.7,1.9ZM181.4,70.7c2.1,0,4,.3,5.7,1l.7-1.9c-2-.8-4.1-1.1-6.4-1.1v2ZM187.2,71.8c1.8.7,3.2,1.6,4.5,2.8l1.4-1.4c-1.5-1.4-3.2-2.5-5.2-3.3l-.7,1.9ZM191.7,74.6c1.3,1.2,2.3,2.6,3,4.3l1.8-.8c-.8-1.9-2-3.5-3.5-4.9l-1.4,1.5ZM194.7,78.9c.7,1.6,1.1,3.4,1.1,5.4h2c0-2.2-.4-4.3-1.2-6.2l-1.8.8ZM195.8,84.2c0,2-.4,3.7-1.1,5.4l1.8.8c.8-1.9,1.2-4,1.2-6.2h-2ZM194.7,89.6c-.7,1.6-1.7,3.1-3,4.3l1.4,1.5c1.5-1.4,2.6-3,3.5-4.9l-1.8-.8ZM191.7,93.9c-1.3,1.2-2.8,2.1-4.5,2.8l.7,1.9c2-.8,3.7-1.8,5.2-3.2l-1.4-1.5ZM187.2,96.7c-1.7.7-3.6,1-5.7,1v2c2.3,0,4.4-.4,6.4-1.1l-.7-1.9ZM181.4,94.2c1.4,0,2.6-.2,3.8-.7l-.8-1.9c-.9.4-1.9.6-3.1.6v2ZM185.2,93.5c1.2-.5,2.2-1.2,3.1-2.1l-1.4-1.4c-.7.7-1.5,1.2-2.5,1.6l.7,1.9ZM188.4,91.4c.9-.9,1.6-2,2.1-3.2l-1.9-.7c-.4,1-.9,1.8-1.6,2.5l1.4,1.4ZM190.4,88.3c.5-1.2.8-2.6.8-4h-2c0,1.2-.2,2.3-.6,3.3l1.8.8ZM191.2,84.2c0-1.4-.2-2.8-.8-4l-1.8.8c.4,1,.6,2,.6,3.3h2ZM190.5,80.2c-.5-1.2-1.2-2.3-2.1-3.2l-1.4,1.4c.7.7,1.2,1.5,1.6,2.5l1.9-.7ZM188.4,77.1c-.9-.9-1.9-1.6-3.1-2.1l-.7,1.9c.9.4,1.7.9,2.4,1.6l1.4-1.4ZM185.3,75c-1.2-.5-2.5-.7-3.9-.7v2c1.1,0,2.2.2,3.1.6l.7-1.9ZM181.4,74.3c-1.4,0-2.7.2-3.9.7l.7,1.9c.9-.4,2-.6,3.1-.6v-2ZM177.6,75c-1.2.5-2.2,1.2-3.1,2.1l1.4,1.4c.7-.7,1.5-1.2,2.4-1.6l-.8-1.9ZM174.5,77c-.9.9-1.6,2-2.1,3.2l1.8.8c.4-1,1-1.8,1.7-2.5l-1.4-1.4ZM172.4,80.2c-.5,1.2-.7,2.6-.7,4h2c0-1.2.2-2.3.6-3.3l-1.9-.7ZM171.7,84.2c0,1.4.2,2.8.7,4l1.9-.7c-.4-1-.6-2.1-.6-3.3h-2ZM172.4,88.3c.5,1.2,1.2,2.3,2,3.2l1.4-1.4c-.7-.7-1.2-1.5-1.6-2.5l-1.8.8ZM174.5,91.4c.9.9,1.9,1.6,3.1,2.1l.7-1.9c-.9-.4-1.8-.9-2.5-1.6l-1.4,1.4ZM177.6,93.5c1.2.5,2.5.7,3.9.7v-2c-1.1,0-2.2-.2-3.1-.6l-.7,1.9ZM223.6,97.4l-.4.9h0s.4-.9.4-.9ZM216.9,93.2l-.7.7h0s.7-.7.7-.7ZM212.5,86.9l-.9.4h0s.9-.4.9-.4ZM212.5,71.1l-.9-.4h0s.9.4.9.4ZM223.7,60.6l-.4-.9.4.9ZM240.4,60.6l-.4.9h0s.4-.9.4-.9ZM247.1,64.7l-.7.7h0s.7-.7.7-.7ZM251.5,71.1l-.9.4h0s.9-.4.9-.4ZM251.5,87l.9.4h0s-.9-.4-.9-.4ZM247.1,93.3l.7.7h0s-.7-.7-.7-.7ZM240.4,97.4l-.4-.9h0s.4.9.4.9ZM236.8,90.4l-.4-.9h0s.4.9.4.9ZM240.6,87.9l-.7-.7h0l.7.7ZM243.2,84l-.9-.4h0s0,0,0,0l.9.4ZM243.2,74l-.9.4h0s0,0,0,0l.9-.4ZM240.6,70.1l-.7.7h0s0,0,0,0l.7-.7ZM236.8,67.5l-.4.9.4-.9ZM227.3,67.5l-.4-.9h0s.4.9.4.9ZM223.5,70.1l.7.7-.7-.7ZM220.9,74l-.9-.4h0s0,0,0,0l.9.4ZM220.9,84l-.9.4h0s0,0,0,0l.9-.4ZM223.4,87.9l-.7.7h0s0,0,0,0l.7-.7ZM227.3,90.4l-.4.9.4-.9ZM232.1,97.9c-2.9,0-5.6-.5-8.1-1.4l-.7,1.9c2.7,1,5.7,1.6,8.8,1.6v-2ZM224,96.5c-2.5-.9-4.6-2.3-6.4-4l-1.4,1.5c2,1.9,4.4,3.4,7,4.4l.7-1.9ZM217.6,92.5c-1.8-1.7-3.2-3.7-4.2-6l-1.8.8c1.1,2.5,2.7,4.8,4.6,6.6l1.4-1.4ZM213.4,86.5c-1-2.3-1.5-4.8-1.5-7.5h-2c0,3,.5,5.8,1.6,8.3l1.8-.8ZM212,79c0-2.7.5-5.2,1.5-7.5l-1.8-.8c-1.1,2.6-1.6,5.3-1.6,8.3h2ZM213.4,71.5c1-2.3,2.4-4.3,4.2-6l-1.4-1.5c-2,1.9-3.6,4.1-4.7,6.7l1.8.8ZM217.7,65.5c1.8-1.7,3.9-3,6.4-4l-.7-1.9c-2.7,1-5,2.5-7,4.4l1.4,1.5ZM224,61.5c2.4-.9,5.1-1.4,8-1.4v-2c-3.1,0-6,.5-8.7,1.6l.7,1.9ZM232,60.1c2.9,0,5.6.5,8,1.4l.7-1.9c-2.7-1-5.6-1.6-8.7-1.6v2ZM240,61.5c2.5.9,4.6,2.3,6.3,4l1.4-1.4c-2-1.9-4.3-3.4-7-4.4l-.7,1.9ZM246.4,65.5c1.8,1.7,3.2,3.7,4.2,6l1.8-.8c-1.1-2.5-2.7-4.8-4.7-6.7l-1.4,1.5ZM250.6,71.5c1,2.2,1.5,4.7,1.5,7.5h2c0-3-.6-5.8-1.7-8.3l-1.8.8ZM252.1,79c0,2.7-.5,5.3-1.5,7.6l1.8.8c1.1-2.6,1.7-5.4,1.7-8.4h-2ZM250.6,86.6c-1,2.3-2.4,4.3-4.2,6l1.4,1.5c2-1.9,3.6-4.1,4.7-6.7l-1.8-.8ZM246.4,92.5c-1.8,1.7-3.9,3-6.3,3.9l.7,1.9c2.7-1,5-2.5,7-4.3l-1.4-1.5ZM240,96.5c-2.4.9-5,1.4-7.9,1.4v2c3.1,0,6-.5,8.7-1.6l-.7-1.9ZM232,92.3c1.8,0,3.5-.3,5.1-1l-.8-1.9c-1.3.5-2.7.8-4.4.8v2ZM237.1,91.3c1.6-.6,3-1.6,4.2-2.8l-1.4-1.4c-1,1-2.2,1.8-3.5,2.3l.7,1.9ZM241.3,88.6c1.2-1.2,2.1-2.6,2.8-4.2l-1.9-.7c-.5,1.4-1.3,2.6-2.3,3.6l1.4,1.4ZM244.1,84.4c.7-1.6,1-3.4,1-5.4h-2c0,1.7-.3,3.3-.9,4.6l1.8.8ZM245.1,79c0-1.9-.3-3.7-1-5.4l-1.8.8c.6,1.4.9,2.9.9,4.6h2ZM244.1,73.6c-.6-1.6-1.6-3-2.8-4.2l-1.4,1.4c1,1,1.8,2.2,2.3,3.6l1.9-.7ZM241.3,69.4c-1.2-1.2-2.5-2.1-4.1-2.8l-.7,1.9c1.3.5,2.5,1.3,3.4,2.3l1.4-1.4ZM237.2,66.6c-1.6-.6-3.3-1-5.2-1v2c1.6,0,3.1.3,4.4.8l.7-1.9ZM232,65.7c-1.8,0-3.6.3-5.2,1l.7,1.9c1.3-.5,2.8-.8,4.4-.8v-2ZM226.9,66.6c-1.6.6-2.9,1.6-4.1,2.7l1.4,1.4c1-1,2.2-1.8,3.5-2.3l-.8-1.9ZM222.8,69.4c-1.2,1.2-2.1,2.6-2.8,4.2l1.8.8c.6-1.4,1.4-2.6,2.4-3.6l-1.4-1.4ZM220,73.6c-.6,1.6-.9,3.4-.9,5.4h2c0-1.7.3-3.3.8-4.6l-1.9-.7ZM219,79c0,1.9.3,3.7.9,5.4l1.9-.7c-.5-1.4-.8-3-.8-4.6h-2ZM220,84.4c.7,1.6,1.6,3,2.7,4.2l1.4-1.4c-1-1-1.7-2.2-2.3-3.6l-1.8.8ZM222.7,88.6c1.2,1.2,2.6,2.1,4.2,2.8l.7-1.9c-1.3-.5-2.5-1.3-3.5-2.3l-1.4,1.4ZM226.9,91.3c1.6.6,3.3,1,5.2,1v-2c-1.6,0-3.1-.3-4.4-.8l-.7,1.9ZM259.3,98.2h-1v1h1v-1ZM259.3,59.7v-1h-1v1h1ZM266.6,59.7l.8-.6-.3-.4h-.5v1ZM289.3,87.4v1h2.1l-1.3-1.6-.8.6ZM285.8,87.4h-1v1h1v-1ZM285.8,59.7v-1h-1v1h1ZM294.6,59.7h1v-1h-1v1ZM294.6,98.2v1h1v-1h-1ZM287.3,98.2l-.8.6.3.4h.5v-1ZM264.5,70.5v-1h-2.1l1.3,1.6.8-.6ZM268.1,70.5h1v-1h-1v1ZM268.1,98.2v1h1v-1h-1ZM260.3,98.2v-38.5h-2v38.5h2ZM259.3,60.7h7.4v-2h-7.4v2ZM265.9,60.4l22.7,27.7,1.5-1.3-22.7-27.7-1.5,1.3ZM289.3,86.4h-3.6v2h3.6v-2ZM286.8,87.4v-27.7h-2v27.7h2ZM285.8,60.7h8.8v-2h-8.8v2ZM293.6,59.7v38.5h2v-38.5h-2ZM294.6,97.2h-7.3v2h7.3v-2ZM288,97.6l-22.8-27.7-1.5,1.3,22.8,27.7,1.5-1.3ZM264.5,71.5h3.6v-2h-3.6v2ZM267.1,70.5v27.7h2v-27.7h-2ZM268.1,97.2h-8.8v2h8.8v-2ZM311.3,75.2v-1h-1v1h1ZM329.9,75.2h1v-1h-1v1ZM329.9,82.2v1h1v-1h-1ZM311.3,82.2h-1v1h1v-1ZM312,91.1h-1v1h1v-1ZM332.9,91.1h1v-1h-1v1ZM332.9,98.2v1h1v-1h-1ZM303.1,98.2h-1v1h1v-1ZM303.1,59.7v-1h-1v1h1ZM332.2,59.7h1v-1h-1v1ZM332.2,66.9v1h1v-1h-1ZM312,66.9v-1h-1v1h1ZM311.3,76.2h18.5v-2h-18.5v2ZM328.9,75.2v6.9h2v-6.9h-2ZM329.9,81.2h-18.5v2h18.5v-2ZM312.3,82.2v-6.9h-2v6.9h2ZM312,92.1h21v-2h-21v2ZM331.9,91.1v7.2h2v-7.2h-2ZM332.9,97.2h-29.8v2h29.8v-2ZM304.1,98.2v-38.5h-2v38.5h2ZM303.1,60.7h29.1v-2h-29.1v2ZM331.2,59.7v7.2h2v-7.2h-2ZM332.2,65.9h-20.2v2h20.2v-2ZM311,66.9v24.2h2v-24.2h-2Z"/>
        </g>
      </g>
      <g class="cls-10">
        <g class="cls-7">
          <path class="cls-3" d="M15.7,153.4l-.4.9h0s.4-.9.4-.9ZM9,149.2l-.7.7h0s.7-.7.7-.7ZM4.6,142.9l-.9.4h0s.9-.4.9-.4ZM4.6,127.1l-.9-.4h0s.9.4.9.4ZM15.7,116.6l-.4-.9h0l.4.9ZM32.5,116.6l-.4.9h0s.4-.9.4-.9ZM39.1,120.7l-.7.7h0s.7-.7.7-.7ZM43.6,127.1l-.9.4h0s.9-.4.9-.4ZM43.6,143l.9.4h0s-.9-.4-.9-.4ZM39.1,149.3l.7.7h0l-.7-.7ZM32.5,153.4l-.4-.9h0s.4.9.4.9ZM28.8,146.4l-.4-.9h0s.4.9.4.9ZM32.7,143.9l-.7-.7.7.7ZM35.2,140l-.9-.4h0s0,0,0,0l.9.4ZM35.2,130l-.9.4h0s0,0,0,0l.9-.4ZM32.7,126.1l-.7.7h0s0,0,0,0l.7-.7ZM28.9,123.5l-.4.9.4-.9ZM19.3,123.5l-.4-.9h0s.4.9.4.9ZM15.5,126.1l.7.7-.7-.7ZM12.9,130l-.9-.4h0s0,0,0,0l.9.4ZM12.9,140l-.9.4h0s0,0,0,0l.9-.4ZM15.5,143.9l-.7.7h0s0,0,0,0l.7-.7ZM19.3,146.4l-.4.9.4-.9ZM24.2,153.9c-2.9,0-5.6-.5-8.1-1.4l-.7,1.9c2.7,1,5.7,1.6,8.8,1.6v-2ZM16,152.5c-2.5-.9-4.6-2.3-6.4-4l-1.4,1.5c2,1.9,4.4,3.4,7,4.4l.7-1.9ZM9.7,148.5c-1.8-1.7-3.2-3.7-4.2-6l-1.8.8c1.1,2.5,2.7,4.8,4.6,6.6l1.4-1.4ZM5.5,142.5c-1-2.3-1.5-4.8-1.5-7.5h-2c0,3,.5,5.8,1.6,8.3l1.8-.8ZM4,135c0-2.7.5-5.2,1.5-7.5l-1.8-.8c-1.1,2.6-1.6,5.3-1.6,8.3h2ZM5.5,127.5c1-2.3,2.4-4.3,4.2-6l-1.4-1.5c-2,1.9-3.6,4.1-4.7,6.7l1.8.8ZM9.7,121.5c1.8-1.7,3.9-3,6.4-4l-.7-1.9c-2.7,1-5,2.5-7,4.4l1.4,1.5ZM16.1,117.5c2.4-.9,5.1-1.4,8-1.4v-2c-3.1,0-6,.5-8.7,1.6l.7,1.9ZM24.1,116.1c2.9,0,5.6.5,8,1.4l.7-1.9c-2.7-1-5.6-1.6-8.7-1.6v2ZM32.1,117.5c2.5.9,4.6,2.3,6.3,4l1.4-1.4c-2-1.9-4.3-3.4-7-4.4l-.7,1.9ZM38.4,121.5c1.8,1.7,3.2,3.7,4.2,6l1.8-.8c-1.1-2.5-2.7-4.8-4.7-6.7l-1.4,1.5ZM42.7,127.5c1,2.2,1.5,4.7,1.5,7.5h2c0-3-.6-5.8-1.7-8.3l-1.8.8ZM44.2,135c0,2.7-.5,5.3-1.5,7.6l1.8.8c1.1-2.6,1.7-5.4,1.7-8.4h-2ZM42.7,142.6c-1,2.3-2.4,4.3-4.2,6l1.4,1.5c2-1.9,3.6-4.1,4.7-6.7l-1.8-.8ZM38.4,148.5c-1.8,1.7-3.9,3-6.3,3.9l.7,1.9c2.7-1,5-2.5,7-4.3l-1.4-1.5ZM32.1,152.5c-2.4.9-5,1.4-7.9,1.4v2c3.1,0,6-.5,8.7-1.6l-.7-1.9ZM24.1,148.3c1.8,0,3.5-.3,5.1-1l-.8-1.9c-1.3.5-2.7.8-4.4.8v2ZM29.2,147.3c1.6-.6,3-1.6,4.2-2.8l-1.4-1.4c-1,1-2.2,1.8-3.5,2.3l.7,1.9ZM33.4,144.6c1.2-1.2,2.1-2.6,2.8-4.2l-1.9-.7c-.5,1.4-1.3,2.6-2.3,3.6l1.4,1.4ZM36.1,140.4c.7-1.6,1-3.4,1-5.4h-2c0,1.7-.3,3.3-.9,4.6l1.8.8ZM37.1,135c0-1.9-.3-3.7-1-5.4l-1.8.8c.6,1.4.9,2.9.9,4.6h2ZM36.1,129.6c-.6-1.6-1.6-3-2.8-4.2l-1.4,1.4c1,1,1.8,2.2,2.3,3.6l1.9-.7ZM33.4,125.4c-1.2-1.2-2.5-2.1-4.1-2.8l-.7,1.9c1.3.5,2.5,1.3,3.4,2.3l1.4-1.4ZM29.3,122.6c-1.6-.6-3.3-1-5.2-1v2c1.6,0,3.1.3,4.4.8l.7-1.9ZM24.1,121.7c-1.8,0-3.6.3-5.2,1l.7,1.9c1.3-.5,2.8-.8,4.4-.8v-2ZM18.9,122.6c-1.6.6-2.9,1.6-4.1,2.7l1.4,1.4c1-1,2.2-1.8,3.5-2.3l-.8-1.8ZM14.8,125.4c-1.2,1.2-2.1,2.6-2.8,4.2l1.8.8c.6-1.4,1.4-2.6,2.4-3.6l-1.4-1.4ZM12,129.6c-.6,1.6-.9,3.4-.9,5.4h2c0-1.7.3-3.3.8-4.6l-1.9-.7ZM11.1,135c0,1.9.3,3.7.9,5.4l1.9-.7c-.5-1.4-.8-3-.8-4.6h-2ZM12,140.4c.7,1.6,1.6,3,2.7,4.2l1.4-1.4c-1-1-1.7-2.2-2.3-3.6l-1.8.8ZM14.8,144.6c1.2,1.2,2.6,2.1,4.2,2.8l.7-1.9c-1.3-.5-2.5-1.3-3.5-2.3l-1.4,1.4ZM18.9,147.3c1.6.6,3.3,1,5.2,1v-2c-1.6,0-3.1-.3-4.4-.8l-.7,1.9ZM51.3,154.2h-1v1h1v-1ZM51.3,115.7v-1h-1v1h1ZM58.7,115.7l.8-.6-.3-.4h-.5v1ZM81.4,143.4v1h2.1l-1.3-1.6-.8.6ZM77.8,143.4h-1v1h1v-1ZM77.8,115.7v-1h-1v1h1ZM86.6,115.7h1v-1h-1v1ZM86.6,154.2v1h1v-1h-1ZM79.3,154.2l-.8.6.3.4h.5v-1ZM56.5,126.5v-1h-2.1l1.3,1.6.8-.6ZM60.1,126.5h1v-1h-1v1ZM60.1,154.2v1h1v-1h-1ZM52.3,154.2v-38.5h-2v38.5h2ZM51.3,116.7h7.4v-2h-7.4v2ZM57.9,116.4l22.7,27.7,1.5-1.3-22.7-27.7-1.5,1.3ZM81.4,142.4h-3.6v2h3.6v-2ZM78.8,143.4v-27.7h-2v27.7h2ZM77.8,116.7h8.8v-2h-8.8v2ZM85.6,115.7v38.5h2v-38.5h-2ZM86.6,153.2h-7.3v2h7.3v-2ZM80.1,153.6l-22.8-27.7-1.5,1.3,22.8,27.7,1.5-1.3ZM56.5,127.5h3.6v-2h-3.6v2ZM59.1,126.5v27.7h2v-27.7h-2ZM60.1,153.2h-8.8v2h8.8v-2ZM103.4,131.2v-1h-1v1h1ZM121.9,131.2h1v-1h-1v1ZM121.9,138.2v1h1v-1h-1ZM103.4,138.2h-1v1h1v-1ZM104,147.1h-1v1h1v-1ZM125,147.1h1v-1h-1v1ZM125,154.2v1h1v-1h-1ZM95.2,154.2h-1v1h1v-1ZM95.2,115.7v-1h-1v1h1ZM124.3,115.7h1v-1h-1v1ZM124.3,122.9v1h1v-1h-1ZM104,122.9v-1h-1v1h1ZM103.4,132.2h18.5v-2h-18.5v2ZM120.9,131.2v6.9h2v-6.9h-2ZM121.9,137.2h-18.5v2h18.5v-2ZM104.4,138.2v-6.9h-2v6.9h2ZM104,148.1h21v-2h-21v2ZM124,147.1v7.1h2v-7.1h-2ZM125,153.2h-29.8v2h29.8v-2ZM96.2,154.2v-38.5h-2v38.5h2ZM95.2,116.7h29.1v-2h-29.1v2ZM123.3,115.7v7.2h2v-7.2h-2ZM124.3,121.9h-20.2v2h20.2v-2ZM103,122.9v24.2h2v-24.2h-2ZM149.7,154.2h-1v1h1v-1ZM149.7,131.5h1v-1h-1v1ZM140.8,131.5h-1v1h1v-1ZM140.8,126.2v-1h-1v1h1ZM165.2,126.2h1v-1h-1v1ZM165.2,131.5v1h1v-1h-1ZM156.2,131.5v-1h-1v1h1ZM156.2,154.2v1h1v-1h-1ZM150.7,154.2v-22.7h-2v22.7h2ZM149.7,130.5h-9v2h9v-2ZM141.8,131.5v-5.3h-2v5.3h2ZM140.8,127.2h24.4v-2h-24.4v2ZM164.2,126.2v5.3h2v-5.3h-2ZM165.2,130.5h-9v2h9v-2ZM155.2,131.5v22.7h2v-22.7h-2ZM156.2,153.2h-6.5v2h6.5v-2ZM175.3,153.6l-.4.9h0s.4-.9.4-.9ZM170.4,150.6l-.7.7h0s.7-.7.7-.7ZM167.2,146l-.9.4h0s.9-.4.9-.4ZM167.2,134.5l-.9-.4h0s.9.4.9.4ZM175.4,126.8l-.4-.9.4.9ZM187.5,126.8l-.4.9h0s.4-.9.4-.9ZM192.4,129.9l-.7.7h0s.7-.7.7-.7ZM195.6,134.5l-.9.4h0s.9-.4.9-.4ZM195.6,146l.9.4h0s-.9-.4-.9-.4ZM192.4,150.6l.7.7h0l-.7-.7ZM187.5,153.6l-.4-.9h0s.4.9.4.9ZM184.9,148.5l-.4-.9h0s.4.9.4.9ZM187.7,146.7l-.7-.7.7.7ZM189.5,143.9l-.9-.4h0s0,0,0,0l.9.4ZM189.5,136.6l-.9.4h0s0,0,0,0l.9-.4ZM187.7,133.7l-.7.7h0s0,0,0,0l.7-.7ZM184.9,131.9l-.4.9.4-.9ZM178,131.9l-.4-.9h0s.4.9.4.9ZM175.2,133.7l.7.7-.7-.7ZM173.3,136.6l-.9-.4h0s0,0,0,0l.9.4ZM173.3,143.9l-.9.4h0s0,0,0,0l.9-.4ZM175.2,146.7l-.7.7h0s0,0,0,0l.7-.7ZM178,148.5l-.4.9.4-.9ZM181.5,153.7c-2.1,0-4-.3-5.8-1l-.7,1.9c2,.8,4.2,1.1,6.5,1.1v-2ZM175.7,152.7c-1.8-.7-3.3-1.6-4.6-2.8l-1.4,1.5c1.5,1.4,3.2,2.5,5.2,3.2l.7-1.9ZM171.1,149.9c-1.3-1.2-2.3-2.6-3-4.3l-1.8.8c.8,1.9,2,3.5,3.4,4.9l1.4-1.4ZM168.2,145.6c-.7-1.6-1-3.4-1-5.4h-2c0,2.2.4,4.3,1.2,6.2l1.8-.8ZM167.1,140.2c0-2,.4-3.7,1-5.4l-1.8-.8c-.8,1.9-1.2,3.9-1.2,6.2h2ZM168.2,134.9c.7-1.6,1.7-3.1,3-4.3l-1.4-1.5c-1.5,1.4-2.6,3-3.5,4.9l1.8.8ZM171.2,130.6c1.3-1.2,2.8-2.2,4.6-2.8l-.7-1.9c-2,.8-3.7,1.8-5.2,3.2l1.4,1.5ZM175.7,127.8c1.7-.7,3.6-1,5.7-1v-2c-2.3,0-4.4.4-6.4,1.1l.7,1.9ZM181.4,126.7c2.1,0,4,.3,5.7,1l.7-1.9c-2-.8-4.1-1.1-6.4-1.1v2ZM187.2,127.8c1.8.7,3.2,1.6,4.5,2.8l1.4-1.4c-1.5-1.4-3.2-2.5-5.2-3.3l-.7,1.9ZM191.7,130.6c1.3,1.2,2.3,2.6,3,4.3l1.8-.8c-.8-1.9-2-3.5-3.5-4.9l-1.4,1.5ZM194.7,134.9c.7,1.6,1.1,3.4,1.1,5.4h2c0-2.2-.4-4.3-1.2-6.2l-1.8.8ZM195.8,140.2c0,2-.4,3.8-1.1,5.4l1.8.8c.8-1.9,1.2-4,1.2-6.2h-2ZM194.7,145.6c-.7,1.6-1.7,3.1-3,4.3l1.4,1.5c1.5-1.4,2.6-3,3.5-4.9l-1.8-.8ZM191.7,149.9c-1.3,1.2-2.8,2.1-4.5,2.8l.7,1.9c2-.8,3.7-1.8,5.2-3.2l-1.4-1.5ZM187.2,152.7c-1.7.7-3.6,1-5.7,1v2c2.3,0,4.4-.4,6.4-1.1l-.7-1.9ZM181.4,150.2c1.4,0,2.6-.2,3.8-.7l-.8-1.8c-.9.4-1.9.6-3.1.6v2ZM185.2,149.5c1.2-.5,2.2-1.2,3.1-2.1l-1.4-1.4c-.7.7-1.5,1.2-2.5,1.6l.7,1.9ZM188.4,147.4c.9-.9,1.6-2,2.1-3.2l-1.9-.7c-.4,1-.9,1.8-1.6,2.5l1.4,1.4ZM190.4,144.3c.5-1.2.8-2.6.8-4h-2c0,1.2-.2,2.3-.6,3.3l1.8.8ZM191.2,140.2c0-1.4-.2-2.8-.8-4l-1.8.8c.4,1,.6,2,.6,3.3h2ZM190.5,136.2c-.5-1.2-1.2-2.3-2.1-3.2l-1.4,1.4c.7.7,1.2,1.5,1.6,2.5l1.9-.7ZM188.4,133.1c-.9-.9-1.9-1.6-3.1-2.1l-.7,1.9c.9.4,1.7.9,2.4,1.6l1.4-1.4ZM185.3,131c-1.2-.5-2.5-.7-3.9-.7v2c1.1,0,2.2.2,3.1.6l.7-1.9ZM181.4,130.3c-1.4,0-2.7.2-3.9.7l.7,1.9c.9-.4,2-.6,3.1-.6v-2ZM177.6,131c-1.2.5-2.2,1.2-3.1,2.1l1.4,1.4c.7-.7,1.5-1.2,2.4-1.6l-.8-1.8ZM174.5,133c-.9.9-1.6,2-2.1,3.2l1.8.8c.4-1,1-1.8,1.7-2.5l-1.4-1.4ZM172.4,136.2c-.5,1.2-.7,2.6-.7,4h2c0-1.2.2-2.3.6-3.3l-1.9-.7ZM171.7,140.2c0,1.4.2,2.8.7,4l1.9-.7c-.4-1-.6-2.1-.6-3.3h-2ZM172.4,144.3c.5,1.2,1.2,2.3,2,3.2l1.4-1.4c-.7-.7-1.2-1.5-1.6-2.5l-1.8.8ZM174.5,147.4c.9.9,1.9,1.6,3.1,2.1l.7-1.9c-.9-.4-1.8-.9-2.5-1.6l-1.4,1.4ZM177.6,149.5c1.2.5,2.5.7,3.9.7v-2c-1.1,0-2.2-.2-3.1-.6l-.7,1.9ZM223.6,153.4l-.4.9h0s.4-.9.4-.9ZM216.9,149.2l-.7.7h0s.7-.7.7-.7ZM212.5,142.9l-.9.4h0s.9-.4.9-.4ZM212.5,127.1l-.9-.4h0s.9.4.9.4ZM223.7,116.6l-.4-.9.4.9ZM240.4,116.6l-.4.9h0s.4-.9.4-.9ZM247.1,120.7l-.7.7h0s.7-.7.7-.7ZM251.5,127.1l-.9.4h0s.9-.4.9-.4ZM251.5,143l.9.4h0s-.9-.4-.9-.4ZM247.1,149.3l.7.7h0l-.7-.7ZM240.4,153.4l-.4-.9h0s.4.9.4.9ZM236.8,146.4l-.4-.9h0s.4.9.4.9ZM240.6,143.9l-.7-.7h0l.7.7ZM243.2,140l-.9-.4h0s0,0,0,0l.9.4ZM243.2,130l-.9.4h0s0,0,0,0l.9-.4ZM240.6,126.1l-.7.7h0s0,0,0,0l.7-.7ZM236.8,123.5l-.4.9.4-.9ZM227.3,123.5l-.4-.9h0s.4.9.4.9ZM223.5,126.1l.7.7-.7-.7ZM220.9,130l-.9-.4h0s0,0,0,0l.9.4ZM220.9,140l-.9.4h0s0,0,0,0l.9-.4ZM223.4,143.9l-.7.7h0s0,0,0,0l.7-.7ZM227.3,146.4l-.4.9.4-.9ZM232.1,153.9c-2.9,0-5.6-.5-8.1-1.4l-.7,1.9c2.7,1,5.7,1.6,8.8,1.6v-2ZM224,152.5c-2.5-.9-4.6-2.3-6.4-4l-1.4,1.5c2,1.9,4.4,3.4,7,4.4l.7-1.9ZM217.6,148.5c-1.8-1.7-3.2-3.7-4.2-6l-1.8.8c1.1,2.5,2.7,4.8,4.6,6.6l1.4-1.4ZM213.4,142.5c-1-2.3-1.5-4.8-1.5-7.5h-2c0,3,.5,5.8,1.6,8.3l1.8-.8ZM212,135c0-2.7.5-5.2,1.5-7.5l-1.8-.8c-1.1,2.6-1.6,5.3-1.6,8.3h2ZM213.4,127.5c1-2.3,2.4-4.3,4.2-6l-1.4-1.5c-2,1.9-3.6,4.1-4.7,6.7l1.8.8ZM217.7,121.5c1.8-1.7,3.9-3,6.4-4l-.7-1.9c-2.7,1-5,2.5-7,4.4l1.4,1.5ZM224,117.5c2.4-.9,5.1-1.4,8-1.4v-2c-3.1,0-6,.5-8.7,1.6l.7,1.9ZM232,116.1c2.9,0,5.6.5,8,1.4l.7-1.9c-2.7-1-5.6-1.6-8.7-1.6v2ZM240,117.5c2.5.9,4.6,2.3,6.3,4l1.4-1.4c-2-1.9-4.3-3.4-7-4.4l-.7,1.9ZM246.4,121.5c1.8,1.7,3.2,3.7,4.2,6l1.8-.8c-1.1-2.5-2.7-4.8-4.7-6.7l-1.4,1.5ZM250.6,127.5c1,2.2,1.5,4.7,1.5,7.5h2c0-3-.6-5.8-1.7-8.3l-1.8.8ZM252.1,135c0,2.7-.5,5.3-1.5,7.6l1.8.8c1.1-2.6,1.7-5.4,1.7-8.4h-2ZM250.6,142.6c-1,2.3-2.4,4.3-4.2,6l1.4,1.5c2-1.9,3.6-4.1,4.7-6.7l-1.8-.8ZM246.4,148.5c-1.8,1.7-3.9,3-6.3,3.9l.7,1.9c2.7-1,5-2.5,7-4.3l-1.4-1.5ZM240,152.5c-2.4.9-5,1.4-7.9,1.4v2c3.1,0,6-.5,8.7-1.6l-.7-1.9ZM232,148.3c1.8,0,3.5-.3,5.1-1l-.8-1.9c-1.3.5-2.7.8-4.4.8v2ZM237.1,147.3c1.6-.6,3-1.6,4.2-2.8l-1.4-1.4c-1,1-2.2,1.8-3.5,2.3l.7,1.9ZM241.3,144.6c1.2-1.2,2.1-2.6,2.8-4.2l-1.9-.7c-.5,1.4-1.3,2.6-2.3,3.6l1.4,1.4ZM244.1,140.4c.7-1.6,1-3.4,1-5.4h-2c0,1.7-.3,3.3-.9,4.6l1.8.8ZM245.1,135c0-1.9-.3-3.7-1-5.4l-1.8.8c.6,1.4.9,2.9.9,4.6h2ZM244.1,129.6c-.6-1.6-1.6-3-2.8-4.2l-1.4,1.4c1,1,1.8,2.2,2.3,3.6l1.9-.7ZM241.3,125.4c-1.2-1.2-2.5-2.1-4.1-2.8l-.7,1.9c1.3.5,2.5,1.3,3.4,2.3l1.4-1.4ZM237.2,122.6c-1.6-.6-3.3-1-5.2-1v2c1.6,0,3.1.3,4.4.8l.7-1.9ZM232,121.7c-1.8,0-3.6.3-5.2,1l.7,1.9c1.3-.5,2.8-.8,4.4-.8v-2ZM226.9,122.6c-1.6.6-2.9,1.6-4.1,2.7l1.4,1.4c1-1,2.2-1.8,3.5-2.3l-.8-1.8ZM222.8,125.4c-1.2,1.2-2.1,2.6-2.8,4.2l1.8.8c.6-1.4,1.4-2.6,2.4-3.6l-1.4-1.4ZM220,129.6c-.6,1.6-.9,3.4-.9,5.4h2c0-1.7.3-3.3.8-4.6l-1.9-.7ZM219,135c0,1.9.3,3.7.9,5.4l1.9-.7c-.5-1.4-.8-3-.8-4.6h-2ZM220,140.4c.7,1.6,1.6,3,2.7,4.2l1.4-1.4c-1-1-1.7-2.2-2.3-3.6l-1.8.8ZM222.7,144.6c1.2,1.2,2.6,2.1,4.2,2.8l.7-1.9c-1.3-.5-2.5-1.3-3.5-2.3l-1.4,1.4ZM226.9,147.3c1.6.6,3.3,1,5.2,1v-2c-1.6,0-3.1-.3-4.4-.8l-.7,1.9ZM259.3,154.2h-1v1h1v-1ZM259.3,115.7v-1h-1v1h1ZM266.6,115.7l.8-.6-.3-.4h-.5v1ZM289.3,143.4v1h2.1l-1.3-1.6-.8.6ZM285.8,143.4h-1v1h1v-1ZM285.8,115.7v-1h-1v1h1ZM294.6,115.7h1v-1h-1v1ZM294.6,154.2v1h1v-1h-1ZM287.3,154.2l-.8.6.3.4h.5v-1ZM264.5,126.5v-1h-2.1l1.3,1.6.8-.6ZM268.1,126.5h1v-1h-1v1ZM268.1,154.2v1h1v-1h-1ZM260.3,154.2v-38.5h-2v38.5h2ZM259.3,116.7h7.4v-2h-7.4v2ZM265.9,116.4l22.7,27.7,1.5-1.3-22.7-27.7-1.5,1.3ZM289.3,142.4h-3.6v2h3.6v-2ZM286.8,143.4v-27.7h-2v27.7h2ZM285.8,116.7h8.8v-2h-8.8v2ZM293.6,115.7v38.5h2v-38.5h-2ZM294.6,153.2h-7.3v2h7.3v-2ZM288,153.6l-22.8-27.7-1.5,1.3,22.8,27.7,1.5-1.3ZM264.5,127.5h3.6v-2h-3.6v2ZM267.1,126.5v27.7h2v-27.7h-2ZM268.1,153.2h-8.8v2h8.8v-2ZM311.3,131.2v-1h-1v1h1ZM329.9,131.2h1v-1h-1v1ZM329.9,138.2v1h1v-1h-1ZM311.3,138.2h-1v1h1v-1ZM312,147.1h-1v1h1v-1ZM332.9,147.1h1v-1h-1v1ZM332.9,154.2v1h1v-1h-1ZM303.1,154.2h-1v1h1v-1ZM303.1,115.7v-1h-1v1h1ZM332.2,115.7h1v-1h-1v1ZM332.2,122.9v1h1v-1h-1ZM312,122.9v-1h-1v1h1ZM311.3,132.2h18.5v-2h-18.5v2ZM328.9,131.2v6.9h2v-6.9h-2ZM329.9,137.2h-18.5v2h18.5v-2ZM312.3,138.2v-6.9h-2v6.9h2ZM312,148.1h21v-2h-21v2ZM331.9,147.1v7.1h2v-7.1h-2ZM332.9,153.2h-29.8v2h29.8v-2ZM304.1,154.2v-38.5h-2v38.5h2ZM303.1,116.7h29.1v-2h-29.1v2ZM331.2,115.7v7.2h2v-7.2h-2ZM332.2,121.9h-20.2v2h20.2v-2ZM311,122.9v24.2h2v-24.2h-2Z"/>
        </g>
      </g>
      <g class="cls-11">
        <g class="cls-4">
          <path class="cls-3" d="M15.7,211.4l-.4.9h0s.4-.9.4-.9ZM9,207.2l-.7.7h0s.7-.7.7-.7ZM4.6,200.9l-.9.4h0s.9-.4.9-.4ZM4.6,185.1l-.9-.4h0s.9.4.9.4ZM15.7,174.6l-.4-.9h0l.4.9ZM32.5,174.6l-.4.9h0s.4-.9.4-.9ZM39.1,178.7l-.7.7h0s.7-.7.7-.7ZM43.6,185.1l-.9.4h0s.9-.4.9-.4ZM43.6,201l.9.4h0s-.9-.4-.9-.4ZM39.1,207.3l.7.7h0l-.7-.7ZM32.5,211.4l-.4-.9h0s.4.9.4.9ZM28.8,204.4l-.4-.9h0s.4.9.4.9ZM32.7,201.9l-.7-.7.7.7ZM35.2,198l-.9-.4h0s0,0,0,0l.9.4ZM35.2,188l-.9.4h0s0,0,0,0l.9-.4ZM32.7,184.1l-.7.7h0s0,0,0,0l.7-.7ZM28.9,181.5l-.4.9.4-.9ZM19.3,181.5l-.4-.9h0s.4.9.4.9ZM15.5,184.1l.7.7-.7-.7ZM12.9,188l-.9-.4h0s0,0,0,0l.9.4ZM12.9,198l-.9.4h0s0,0,0,0l.9-.4ZM15.5,201.9l-.7.7h0s0,0,0,0l.7-.7ZM19.3,204.4l-.4.9.4-.9ZM24.2,211.9c-2.9,0-5.6-.5-8.1-1.4l-.7,1.9c2.7,1,5.7,1.6,8.8,1.6v-2ZM16,210.5c-2.5-.9-4.6-2.3-6.4-4l-1.4,1.5c2,1.9,4.4,3.4,7,4.4l.7-1.9ZM9.7,206.5c-1.8-1.7-3.2-3.7-4.2-6l-1.8.8c1.1,2.5,2.7,4.8,4.6,6.6l1.4-1.4ZM5.5,200.5c-1-2.3-1.5-4.8-1.5-7.5h-2c0,3,.5,5.8,1.6,8.3l1.8-.8ZM4,193c0-2.7.5-5.2,1.5-7.5l-1.8-.8c-1.1,2.6-1.6,5.3-1.6,8.3h2ZM5.5,185.5c1-2.3,2.4-4.3,4.2-6l-1.4-1.5c-2,1.9-3.6,4.1-4.7,6.7l1.8.8ZM9.7,179.5c1.8-1.7,3.9-3,6.4-4l-.7-1.9c-2.7,1-5,2.5-7,4.4l1.4,1.5ZM16.1,175.5c2.4-.9,5.1-1.4,8-1.4v-2c-3.1,0-6,.5-8.7,1.6l.7,1.9ZM24.1,174.1c2.9,0,5.6.5,8,1.4l.7-1.9c-2.7-1-5.6-1.6-8.7-1.6v2ZM32.1,175.5c2.5.9,4.6,2.3,6.3,4l1.4-1.4c-2-1.9-4.3-3.4-7-4.4l-.7,1.9ZM38.4,179.5c1.8,1.7,3.2,3.7,4.2,6l1.8-.8c-1.1-2.5-2.7-4.8-4.7-6.7l-1.4,1.5ZM42.7,185.5c1,2.2,1.5,4.7,1.5,7.5h2c0-3-.6-5.8-1.7-8.3l-1.8.8ZM44.2,193c0,2.7-.5,5.3-1.5,7.6l1.8.8c1.1-2.6,1.7-5.4,1.7-8.4h-2ZM42.7,200.6c-1,2.3-2.4,4.3-4.2,6l1.4,1.5c2-1.9,3.6-4.1,4.7-6.7l-1.8-.8ZM38.4,206.5c-1.8,1.7-3.9,3-6.3,3.9l.7,1.9c2.7-1,5-2.5,7-4.3l-1.4-1.5ZM32.1,210.5c-2.4.9-5,1.4-7.9,1.4v2c3.1,0,6-.5,8.7-1.6l-.7-1.9ZM24.1,206.3c1.8,0,3.5-.3,5.1-1l-.8-1.9c-1.3.5-2.7.8-4.4.8v2ZM29.2,205.3c1.6-.6,3-1.6,4.2-2.8l-1.4-1.4c-1,1-2.2,1.8-3.5,2.3l.7,1.9ZM33.4,202.6c1.2-1.2,2.1-2.6,2.8-4.2l-1.9-.7c-.5,1.4-1.3,2.6-2.3,3.6l1.4,1.4ZM36.1,198.4c.7-1.6,1-3.4,1-5.4h-2c0,1.7-.3,3.3-.9,4.6l1.8.8ZM37.1,193c0-1.9-.3-3.7-1-5.4l-1.8.8c.6,1.4.9,2.9.9,4.6h2ZM36.1,187.6c-.6-1.6-1.6-3-2.8-4.2l-1.4,1.4c1,1,1.8,2.2,2.3,3.6l1.9-.7ZM33.4,183.4c-1.2-1.2-2.5-2.1-4.1-2.8l-.7,1.9c1.3.5,2.5,1.3,3.4,2.3l1.4-1.4ZM29.3,180.6c-1.6-.6-3.3-1-5.2-1v2c1.6,0,3.1.3,4.4.8l.7-1.9ZM24.1,179.7c-1.8,0-3.6.3-5.2,1l.7,1.9c1.3-.5,2.8-.8,4.4-.8v-2ZM18.9,180.6c-1.6.6-2.9,1.6-4.1,2.7l1.4,1.4c1-1,2.2-1.8,3.5-2.3l-.8-1.9ZM14.8,183.4c-1.2,1.2-2.1,2.6-2.8,4.2l1.8.8c.6-1.4,1.4-2.6,2.4-3.6l-1.4-1.4ZM12,187.6c-.6,1.6-.9,3.4-.9,5.4h2c0-1.7.3-3.3.8-4.6l-1.9-.7ZM11.1,193c0,1.9.3,3.7.9,5.4l1.9-.7c-.5-1.4-.8-3-.8-4.6h-2ZM12,198.4c.7,1.6,1.6,3,2.7,4.2l1.4-1.4c-1-1-1.7-2.2-2.3-3.6l-1.8.8ZM14.8,202.6c1.2,1.2,2.6,2.1,4.2,2.8l.7-1.9c-1.3-.5-2.5-1.3-3.5-2.3l-1.4,1.4ZM18.9,205.3c1.6.6,3.3,1,5.2,1v-2c-1.6,0-3.1-.3-4.4-.8l-.7,1.9ZM51.3,212.2h-1v1h1v-1ZM51.3,173.7v-1h-1v1h1ZM58.7,173.7l.8-.6-.3-.4h-.5v1ZM81.4,201.4v1h2.1l-1.3-1.6-.8.6ZM77.8,201.4h-1v1h1v-1ZM77.8,173.7v-1h-1v1h1ZM86.6,173.7h1v-1h-1v1ZM86.6,212.2v1h1v-1h-1ZM79.3,212.2l-.8.6.3.4h.5v-1ZM56.5,184.5v-1h-2.1l1.3,1.6.8-.6ZM60.1,184.5h1v-1h-1v1ZM60.1,212.2v1h1v-1h-1ZM52.3,212.2v-38.5h-2v38.5h2ZM51.3,174.7h7.4v-2h-7.4v2ZM57.9,174.4l22.7,27.7,1.5-1.3-22.7-27.7-1.5,1.3ZM81.4,200.4h-3.6v2h3.6v-2ZM78.8,201.4v-27.7h-2v27.7h2ZM77.8,174.7h8.8v-2h-8.8v2ZM85.6,173.7v38.5h2v-38.5h-2ZM86.6,211.2h-7.3v2h7.3v-2ZM80.1,211.6l-22.8-27.7-1.5,1.3,22.8,27.7,1.5-1.3ZM56.5,185.5h3.6v-2h-3.6v2ZM59.1,184.5v27.7h2v-27.7h-2ZM60.1,211.2h-8.8v2h8.8v-2ZM103.4,189.2v-1h-1v1h1ZM121.9,189.2h1v-1h-1v1ZM121.9,196.2v1h1v-1h-1ZM103.4,196.2h-1v1h1v-1ZM104,205.1h-1v1h1v-1ZM125,205.1h1v-1h-1v1ZM125,212.2v1h1v-1h-1ZM95.2,212.2h-1v1h1v-1ZM95.2,173.7v-1h-1v1h1ZM124.3,173.7h1v-1h-1v1ZM124.3,180.9v1h1v-1h-1ZM104,180.9v-1h-1v1h1ZM103.4,190.2h18.5v-2h-18.5v2ZM120.9,189.2v6.9h2v-6.9h-2ZM121.9,195.2h-18.5v2h18.5v-2ZM104.4,196.2v-6.9h-2v6.9h2ZM104,206.1h21v-2h-21v2ZM124,205.1v7.1h2v-7.1h-2ZM125,211.2h-29.8v2h29.8v-2ZM96.2,212.2v-38.5h-2v38.5h2ZM95.2,174.7h29.1v-2h-29.1v2ZM123.3,173.7v7.1h2v-7.1h-2ZM124.3,179.9h-20.2v2h20.2v-2ZM103,180.9v24.2h2v-24.2h-2ZM149.7,212.2h-1v1h1v-1ZM149.7,189.5h1v-1h-1v1ZM140.8,189.5h-1v1h1v-1ZM140.8,184.2v-1h-1v1h1ZM165.2,184.2h1v-1h-1v1ZM165.2,189.5v1h1v-1h-1ZM156.2,189.5v-1h-1v1h1ZM156.2,212.2v1h1v-1h-1ZM150.7,212.2v-22.7h-2v22.7h2ZM149.7,188.5h-9v2h9v-2ZM141.8,189.5v-5.3h-2v5.3h2ZM140.8,185.2h24.4v-2h-24.4v2ZM164.2,184.2v5.3h2v-5.3h-2ZM165.2,188.5h-9v2h9v-2ZM155.2,189.5v22.7h2v-22.7h-2ZM156.2,211.2h-6.5v2h6.5v-2ZM175.3,211.6l-.4.9h0s.4-.9.4-.9ZM170.4,208.6l-.7.7h0s.7-.7.7-.7ZM167.2,204l-.9.4h0s.9-.4.9-.4ZM167.2,192.5l-.9-.4h0s.9.4.9.4ZM175.4,184.8l-.4-.9.4.9ZM187.5,184.8l-.4.9h0s.4-.9.4-.9ZM192.4,187.9l-.7.7h0s.7-.7.7-.7ZM195.6,192.5l-.9.4h0s.9-.4.9-.4ZM195.6,204l.9.4h0s-.9-.4-.9-.4ZM192.4,208.6l.7.7h0l-.7-.7ZM187.5,211.6l-.4-.9h0s.4.9.4.9ZM184.9,206.5l-.4-.9h0s.4.9.4.9ZM187.7,204.7l-.7-.7.7.7ZM189.5,201.9l-.9-.4h0s0,0,0,0l.9.4ZM189.5,194.6l-.9.4h0s0,0,0,0l.9-.4ZM187.7,191.7l-.7.7h0s0,0,0,0l.7-.7ZM184.9,189.9l-.4.9.4-.9ZM178,189.9l-.4-.9h0s.4.9.4.9ZM175.2,191.7l.7.7-.7-.7ZM173.3,194.6l-.9-.4h0s0,0,0,0l.9.4ZM173.3,201.9l-.9.4h0s0,0,0,0l.9-.4ZM175.2,204.7l-.7.7h0s0,0,0,0l.7-.7ZM178,206.5l-.4.9.4-.9ZM181.5,211.7c-2.1,0-4-.3-5.8-1l-.7,1.9c2,.8,4.2,1.1,6.5,1.1v-2ZM175.7,210.7c-1.8-.7-3.3-1.6-4.6-2.8l-1.4,1.5c1.5,1.4,3.2,2.5,5.2,3.2l.7-1.9ZM171.1,207.9c-1.3-1.2-2.3-2.6-3-4.3l-1.8.8c.8,1.9,2,3.5,3.4,4.9l1.4-1.4ZM168.2,203.6c-.7-1.6-1-3.4-1-5.4h-2c0,2.2.4,4.3,1.2,6.2l1.8-.8ZM167.1,198.2c0-2,.4-3.7,1-5.4l-1.8-.8c-.8,1.9-1.2,3.9-1.2,6.2h2ZM168.2,192.9c.7-1.6,1.7-3.1,3-4.3l-1.4-1.5c-1.5,1.4-2.6,3-3.5,4.9l1.8.8ZM171.2,188.6c1.3-1.2,2.8-2.2,4.6-2.8l-.7-1.9c-2,.8-3.7,1.8-5.2,3.2l1.4,1.5ZM175.7,185.8c1.7-.7,3.6-1,5.7-1v-2c-2.3,0-4.4.4-6.4,1.1l.7,1.9ZM181.4,184.7c2.1,0,4,.3,5.7,1l.7-1.9c-2-.8-4.1-1.1-6.4-1.1v2ZM187.2,185.8c1.8.7,3.2,1.6,4.5,2.8l1.4-1.4c-1.5-1.4-3.2-2.5-5.2-3.3l-.7,1.9ZM191.7,188.6c1.3,1.2,2.3,2.6,3,4.3l1.8-.8c-.8-1.9-2-3.5-3.5-4.9l-1.4,1.5ZM194.7,192.9c.7,1.6,1.1,3.4,1.1,5.4h2c0-2.2-.4-4.3-1.2-6.2l-1.8.8ZM195.8,198.2c0,2-.4,3.8-1.1,5.4l1.8.8c.8-1.9,1.2-4,1.2-6.2h-2ZM194.7,203.6c-.7,1.6-1.7,3.1-3,4.3l1.4,1.5c1.5-1.4,2.6-3,3.5-4.9l-1.8-.8ZM191.7,207.9c-1.3,1.2-2.8,2.1-4.5,2.8l.7,1.9c2-.8,3.7-1.8,5.2-3.2l-1.4-1.5ZM187.2,210.7c-1.7.7-3.6,1-5.7,1v2c2.3,0,4.4-.4,6.4-1.1l-.7-1.9ZM181.4,208.2c1.4,0,2.6-.2,3.8-.7l-.8-1.8c-.9.4-1.9.6-3.1.6v2ZM185.2,207.5c1.2-.5,2.2-1.2,3.1-2.1l-1.4-1.4c-.7.7-1.5,1.2-2.5,1.6l.7,1.9ZM188.4,205.4c.9-.9,1.6-2,2.1-3.2l-1.9-.7c-.4,1-.9,1.8-1.6,2.5l1.4,1.4ZM190.4,202.3c.5-1.2.8-2.6.8-4h-2c0,1.2-.2,2.3-.6,3.3l1.8.8ZM191.2,198.2c0-1.4-.2-2.8-.8-4l-1.8.8c.4,1,.6,2,.6,3.3h2ZM190.5,194.2c-.5-1.2-1.2-2.3-2.1-3.2l-1.4,1.4c.7.7,1.2,1.5,1.6,2.5l1.9-.7ZM188.4,191.1c-.9-.9-1.9-1.6-3.1-2.1l-.7,1.9c.9.4,1.7.9,2.4,1.6l1.4-1.4ZM185.3,189c-1.2-.5-2.5-.7-3.9-.7v2c1.1,0,2.2.2,3.1.6l.7-1.9ZM181.4,188.3c-1.4,0-2.7.2-3.9.7l.7,1.9c.9-.4,2-.6,3.1-.6v-2ZM177.6,189c-1.2.5-2.2,1.2-3.1,2.1l1.4,1.4c.7-.7,1.5-1.2,2.4-1.6l-.8-1.8ZM174.5,191c-.9.9-1.6,2-2.1,3.2l1.8.8c.4-1,1-1.8,1.7-2.5l-1.4-1.4ZM172.4,194.2c-.5,1.2-.7,2.6-.7,4h2c0-1.2.2-2.3.6-3.3l-1.9-.7ZM171.7,198.2c0,1.4.2,2.8.7,4l1.9-.7c-.4-1-.6-2.1-.6-3.3h-2ZM172.4,202.3c.5,1.2,1.2,2.3,2,3.2l1.4-1.4c-.7-.7-1.2-1.5-1.6-2.5l-1.8.8ZM174.5,205.4c.9.9,1.9,1.6,3.1,2.1l.7-1.9c-.9-.4-1.8-.9-2.5-1.6l-1.4,1.4ZM177.6,207.5c1.2.5,2.5.7,3.9.7v-2c-1.1,0-2.2-.2-3.1-.6l-.7,1.9ZM223.6,211.4l-.4.9h0s.4-.9.4-.9ZM216.9,207.2l-.7.7h0s.7-.7.7-.7ZM212.5,200.9l-.9.4h0s.9-.4.9-.4ZM212.5,185.1l-.9-.4h0s.9.4.9.4ZM223.7,174.6l-.4-.9.4.9ZM240.4,174.6l-.4.9h0s.4-.9.4-.9ZM247.1,178.7l-.7.7h0s.7-.7.7-.7ZM251.5,185.1l-.9.4h0s.9-.4.9-.4ZM251.5,201l.9.4h0s-.9-.4-.9-.4ZM247.1,207.3l.7.7h0l-.7-.7ZM240.4,211.4l-.4-.9h0s.4.9.4.9ZM236.8,204.4l-.4-.9h0s.4.9.4.9ZM240.6,201.9l-.7-.7h0l.7.7ZM243.2,198l-.9-.4h0s0,0,0,0l.9.4ZM243.2,188l-.9.4h0s0,0,0,0l.9-.4ZM240.6,184.1l-.7.7h0s0,0,0,0l.7-.7ZM236.8,181.5l-.4.9.4-.9ZM227.3,181.5l-.4-.9h0s.4.9.4.9ZM223.5,184.1l.7.7-.7-.7ZM220.9,188l-.9-.4h0s0,0,0,0l.9.4ZM220.9,198l-.9.4h0s0,0,0,0l.9-.4ZM223.4,201.9l-.7.7h0s0,0,0,0l.7-.7ZM227.3,204.4l-.4.9.4-.9ZM232.1,211.9c-2.9,0-5.6-.5-8.1-1.4l-.7,1.9c2.7,1,5.7,1.6,8.8,1.6v-2ZM224,210.5c-2.5-.9-4.6-2.3-6.4-4l-1.4,1.5c2,1.9,4.4,3.4,7,4.4l.7-1.9ZM217.6,206.5c-1.8-1.7-3.2-3.7-4.2-6l-1.8.8c1.1,2.5,2.7,4.8,4.6,6.6l1.4-1.4ZM213.4,200.5c-1-2.3-1.5-4.8-1.5-7.5h-2c0,3,.5,5.8,1.6,8.3l1.8-.8ZM212,193c0-2.7.5-5.2,1.5-7.5l-1.8-.8c-1.1,2.6-1.6,5.3-1.6,8.3h2ZM213.4,185.5c1-2.3,2.4-4.3,4.2-6l-1.4-1.5c-2,1.9-3.6,4.1-4.7,6.7l1.8.8ZM217.7,179.5c1.8-1.7,3.9-3,6.4-4l-.7-1.9c-2.7,1-5,2.5-7,4.4l1.4,1.5ZM224,175.5c2.4-.9,5.1-1.4,8-1.4v-2c-3.1,0-6,.5-8.7,1.6l.7,1.9ZM232,174.1c2.9,0,5.6.5,8,1.4l.7-1.9c-2.7-1-5.6-1.6-8.7-1.6v2ZM240,175.5c2.5.9,4.6,2.3,6.3,4l1.4-1.4c-2-1.9-4.3-3.4-7-4.4l-.7,1.9ZM246.4,179.5c1.8,1.7,3.2,3.7,4.2,6l1.8-.8c-1.1-2.5-2.7-4.8-4.7-6.7l-1.4,1.5ZM250.6,185.5c1,2.2,1.5,4.7,1.5,7.5h2c0-3-.6-5.8-1.7-8.3l-1.8.8ZM252.1,193c0,2.7-.5,5.3-1.5,7.6l1.8.8c1.1-2.6,1.7-5.4,1.7-8.4h-2ZM250.6,200.6c-1,2.3-2.4,4.3-4.2,6l1.4,1.5c2-1.9,3.6-4.1,4.7-6.7l-1.8-.8ZM246.4,206.5c-1.8,1.7-3.9,3-6.3,3.9l.7,1.9c2.7-1,5-2.5,7-4.3l-1.4-1.5ZM240,210.5c-2.4.9-5,1.4-7.9,1.4v2c3.1,0,6-.5,8.7-1.6l-.7-1.9ZM232,206.3c1.8,0,3.5-.3,5.1-1l-.8-1.9c-1.3.5-2.7.8-4.4.8v2ZM237.1,205.3c1.6-.6,3-1.6,4.2-2.8l-1.4-1.4c-1,1-2.2,1.8-3.5,2.3l.7,1.9ZM241.3,202.6c1.2-1.2,2.1-2.6,2.8-4.2l-1.9-.7c-.5,1.4-1.3,2.6-2.3,3.6l1.4,1.4ZM244.1,198.4c.7-1.6,1-3.4,1-5.4h-2c0,1.7-.3,3.3-.9,4.6l1.8.8ZM245.1,193c0-1.9-.3-3.7-1-5.4l-1.8.8c.6,1.4.9,2.9.9,4.6h2ZM244.1,187.6c-.6-1.6-1.6-3-2.8-4.2l-1.4,1.4c1,1,1.8,2.2,2.3,3.6l1.9-.7ZM241.3,183.4c-1.2-1.2-2.5-2.1-4.1-2.8l-.7,1.9c1.3.5,2.5,1.3,3.4,2.3l1.4-1.4ZM237.2,180.6c-1.6-.6-3.3-1-5.2-1v2c1.6,0,3.1.3,4.4.8l.7-1.9ZM232,179.7c-1.8,0-3.6.3-5.2,1l.7,1.9c1.3-.5,2.8-.8,4.4-.8v-2ZM226.9,180.6c-1.6.6-2.9,1.6-4.1,2.7l1.4,1.4c1-1,2.2-1.8,3.5-2.3l-.8-1.9ZM222.8,183.4c-1.2,1.2-2.1,2.6-2.8,4.2l1.8.8c.6-1.4,1.4-2.6,2.4-3.6l-1.4-1.4ZM220,187.6c-.6,1.6-.9,3.4-.9,5.4h2c0-1.7.3-3.3.8-4.6l-1.9-.7ZM219,193c0,1.9.3,3.7.9,5.4l1.9-.7c-.5-1.4-.8-3-.8-4.6h-2ZM220,198.4c.7,1.6,1.6,3,2.7,4.2l1.4-1.4c-1-1-1.7-2.2-2.3-3.6l-1.8.8ZM222.7,202.6c1.2,1.2,2.6,2.1,4.2,2.8l.7-1.9c-1.3-.5-2.5-1.3-3.5-2.3l-1.4,1.4ZM226.9,205.3c1.6.6,3.3,1,5.2,1v-2c-1.6,0-3.1-.3-4.4-.8l-.7,1.9ZM259.3,212.2h-1v1h1v-1ZM259.3,173.7v-1h-1v1h1ZM266.6,173.7l.8-.6-.3-.4h-.5v1ZM289.3,201.4v1h2.1l-1.3-1.6-.8.6ZM285.8,201.4h-1v1h1v-1ZM285.8,173.7v-1h-1v1h1ZM294.6,173.7h1v-1h-1v1ZM294.6,212.2v1h1v-1h-1ZM287.3,212.2l-.8.6.3.4h.5v-1ZM264.5,184.5v-1h-2.1l1.3,1.6.8-.6ZM268.1,184.5h1v-1h-1v1ZM268.1,212.2v1h1v-1h-1ZM260.3,212.2v-38.5h-2v38.5h2ZM259.3,174.7h7.4v-2h-7.4v2ZM265.9,174.4l22.7,27.7,1.5-1.3-22.7-27.7-1.5,1.3ZM289.3,200.4h-3.6v2h3.6v-2ZM286.8,201.4v-27.7h-2v27.7h2ZM285.8,174.7h8.8v-2h-8.8v2ZM293.6,173.7v38.5h2v-38.5h-2ZM294.6,211.2h-7.3v2h7.3v-2ZM288,211.6l-22.8-27.7-1.5,1.3,22.8,27.7,1.5-1.3ZM264.5,185.5h3.6v-2h-3.6v2ZM267.1,184.5v27.7h2v-27.7h-2ZM268.1,211.2h-8.8v2h8.8v-2ZM311.3,189.2v-1h-1v1h1ZM329.9,189.2h1v-1h-1v1ZM329.9,196.2v1h1v-1h-1ZM311.3,196.2h-1v1h1v-1ZM312,205.1h-1v1h1v-1ZM332.9,205.1h1v-1h-1v1ZM332.9,212.2v1h1v-1h-1ZM303.1,212.2h-1v1h1v-1ZM303.1,173.7v-1h-1v1h1ZM332.2,173.7h1v-1h-1v1ZM332.2,180.9v1h1v-1h-1ZM312,180.9v-1h-1v1h1ZM311.3,190.2h18.5v-2h-18.5v2ZM328.9,189.2v6.9h2v-6.9h-2ZM329.9,195.2h-18.5v2h18.5v-2ZM312.3,196.2v-6.9h-2v6.9h2ZM312,206.1h21v-2h-21v2ZM331.9,205.1v7.1h2v-7.1h-2ZM332.9,211.2h-29.8v2h29.8v-2ZM304.1,212.2v-38.5h-2v38.5h2ZM303.1,174.7h29.1v-2h-29.1v2ZM331.2,173.7v7.1h2v-7.1h-2ZM332.2,179.9h-20.2v2h20.2v-2ZM311,180.9v24.2h2v-24.2h-2Z"/>
        </g>
      </g>
      <g class="cls-12">
        <g class="cls-5">
          <path class="cls-3" d="M15.7,270.4l-.4.9h0s.4-.9.4-.9ZM9,266.2l-.7.7h0s.7-.7.7-.7ZM4.6,259.9l-.9.4h0s.9-.4.9-.4ZM4.6,244.1l-.9-.4h0s.9.4.9.4ZM15.7,233.6l-.4-.9h0l.4.9ZM32.5,233.6l-.4.9h0s.4-.9.4-.9ZM39.1,237.7l-.7.7h0s.7-.7.7-.7ZM43.6,244.1l-.9.4h0s.9-.4.9-.4ZM43.6,260l.9.4h0s-.9-.4-.9-.4ZM39.1,266.3l.7.7h0l-.7-.7ZM32.5,270.4l-.4-.9h0s.4.9.4.9ZM28.8,263.4l-.4-.9h0s.4.9.4.9ZM32.7,260.9l-.7-.7.7.7ZM35.2,257l-.9-.4h0s0,0,0,0l.9.4ZM35.2,247l-.9.4h0s0,0,0,0l.9-.4ZM32.7,243.1l-.7.7h0s0,0,0,0l.7-.7ZM28.9,240.5l-.4.9.4-.9ZM19.3,240.5l-.4-.9h0s.4.9.4.9ZM15.5,243.1l.7.7-.7-.7ZM12.9,247l-.9-.4h0s0,0,0,0l.9.4ZM12.9,257l-.9.4h0s0,0,0,0l.9-.4ZM15.5,260.9l-.7.7h0s0,0,0,0l.7-.7ZM19.3,263.4l-.4.9.4-.9ZM24.2,270.9c-2.9,0-5.6-.5-8.1-1.4l-.7,1.9c2.7,1,5.7,1.6,8.8,1.6v-2ZM16,269.5c-2.5-.9-4.6-2.3-6.4-4l-1.4,1.5c2,1.9,4.4,3.4,7,4.4l.7-1.9ZM9.7,265.5c-1.8-1.7-3.2-3.7-4.2-6l-1.8.8c1.1,2.5,2.7,4.8,4.6,6.6l1.4-1.4ZM5.5,259.5c-1-2.3-1.5-4.8-1.5-7.5h-2c0,3,.5,5.8,1.6,8.3l1.8-.8ZM4,252c0-2.7.5-5.2,1.5-7.5l-1.8-.8c-1.1,2.6-1.6,5.3-1.6,8.3h2ZM5.5,244.5c1-2.3,2.4-4.3,4.2-6l-1.4-1.5c-2,1.9-3.6,4.1-4.7,6.7l1.8.8ZM9.7,238.5c1.8-1.7,3.9-3,6.4-4l-.7-1.9c-2.7,1-5,2.5-7,4.4l1.4,1.5ZM16.1,234.5c2.4-.9,5.1-1.4,8-1.4v-2c-3.1,0-6,.5-8.7,1.6l.7,1.9ZM24.1,233.1c2.9,0,5.6.5,8,1.4l.7-1.9c-2.7-1-5.6-1.6-8.7-1.6v2ZM32.1,234.5c2.5.9,4.6,2.3,6.3,4l1.4-1.4c-2-1.9-4.3-3.4-7-4.4l-.7,1.9ZM38.4,238.5c1.8,1.7,3.2,3.7,4.2,6l1.8-.8c-1.1-2.5-2.7-4.8-4.7-6.7l-1.4,1.5ZM42.7,244.5c1,2.2,1.5,4.7,1.5,7.5h2c0-3-.6-5.8-1.7-8.3l-1.8.8ZM44.2,252c0,2.7-.5,5.3-1.5,7.6l1.8.8c1.1-2.6,1.7-5.4,1.7-8.4h-2ZM42.7,259.6c-1,2.3-2.4,4.3-4.2,6l1.4,1.5c2-1.9,3.6-4.1,4.7-6.7l-1.8-.8ZM38.4,265.5c-1.8,1.7-3.9,3-6.3,3.9l.7,1.9c2.7-1,5-2.5,7-4.3l-1.4-1.5ZM32.1,269.5c-2.4.9-5,1.4-7.9,1.4v2c3.1,0,6-.5,8.7-1.6l-.7-1.9ZM24.1,265.3c1.8,0,3.5-.3,5.1-1l-.8-1.8c-1.3.5-2.7.8-4.4.8v2ZM29.2,264.3c1.6-.6,3-1.6,4.2-2.8l-1.4-1.4c-1,1-2.2,1.8-3.5,2.3l.7,1.9ZM33.4,261.6c1.2-1.2,2.1-2.6,2.8-4.2l-1.9-.7c-.5,1.4-1.3,2.6-2.3,3.6l1.4,1.4ZM36.1,257.4c.7-1.6,1-3.4,1-5.4h-2c0,1.7-.3,3.3-.9,4.6l1.8.8ZM37.1,252c0-1.9-.3-3.7-1-5.4l-1.8.8c.6,1.4.9,2.9.9,4.6h2ZM36.1,246.6c-.6-1.6-1.6-3-2.8-4.2l-1.4,1.4c1,1,1.8,2.2,2.3,3.6l1.9-.7ZM33.4,242.4c-1.2-1.2-2.5-2.1-4.1-2.8l-.7,1.9c1.3.5,2.5,1.3,3.4,2.3l1.4-1.4ZM29.3,239.6c-1.6-.6-3.3-1-5.2-1v2c1.6,0,3.1.3,4.4.8l.7-1.9ZM24.1,238.7c-1.8,0-3.6.3-5.2,1l.7,1.9c1.3-.5,2.8-.8,4.4-.8v-2ZM18.9,239.6c-1.6.6-2.9,1.6-4.1,2.7l1.4,1.4c1-1,2.2-1.8,3.5-2.3l-.8-1.9ZM14.8,242.4c-1.2,1.2-2.1,2.6-2.8,4.2l1.8.8c.6-1.4,1.4-2.6,2.4-3.6l-1.4-1.4ZM12,246.6c-.6,1.6-.9,3.4-.9,5.4h2c0-1.7.3-3.3.8-4.6l-1.9-.7ZM11.1,252c0,1.9.3,3.7.9,5.4l1.9-.7c-.5-1.4-.8-3-.8-4.6h-2ZM12,257.4c.7,1.6,1.6,3,2.7,4.2l1.4-1.4c-1-1-1.7-2.2-2.3-3.6l-1.8.8ZM14.8,261.6c1.2,1.2,2.6,2.1,4.2,2.8l.7-1.9c-1.3-.5-2.5-1.3-3.5-2.3l-1.4,1.4ZM18.9,264.3c1.6.6,3.3,1,5.2,1v-2c-1.6,0-3.1-.3-4.4-.8l-.7,1.9ZM51.3,271.2h-1v1h1v-1ZM51.3,232.7v-1h-1v1h1ZM58.7,232.7l.8-.6-.3-.4h-.5v1ZM81.4,260.4v1h2.1l-1.3-1.6-.8.6ZM77.8,260.4h-1v1h1v-1ZM77.8,232.7v-1h-1v1h1ZM86.6,232.7h1v-1h-1v1ZM86.6,271.2v1h1v-1h-1ZM79.3,271.2l-.8.6.3.4h.5v-1ZM56.5,243.5v-1h-2.1l1.3,1.6.8-.6ZM60.1,243.5h1v-1h-1v1ZM60.1,271.2v1h1v-1h-1ZM52.3,271.2v-38.5h-2v38.5h2ZM51.3,233.7h7.4v-2h-7.4v2ZM57.9,233.4l22.7,27.7,1.5-1.3-22.7-27.7-1.5,1.3ZM81.4,259.4h-3.6v2h3.6v-2ZM78.8,260.4v-27.7h-2v27.7h2ZM77.8,233.7h8.8v-2h-8.8v2ZM85.6,232.7v38.5h2v-38.5h-2ZM86.6,270.2h-7.3v2h7.3v-2ZM80.1,270.6l-22.8-27.7-1.5,1.3,22.8,27.7,1.5-1.3ZM56.5,244.5h3.6v-2h-3.6v2ZM59.1,243.5v27.7h2v-27.7h-2ZM60.1,270.2h-8.8v2h8.8v-2ZM103.4,248.2v-1h-1v1h1ZM121.9,248.2h1v-1h-1v1ZM121.9,255.2v1h1v-1h-1ZM103.4,255.2h-1v1h1v-1ZM104,264.1h-1v1h1v-1ZM125,264.1h1v-1h-1v1ZM125,271.2v1h1v-1h-1ZM95.2,271.2h-1v1h1v-1ZM95.2,232.7v-1h-1v1h1ZM124.3,232.7h1v-1h-1v1ZM124.3,239.9v1h1v-1h-1ZM104,239.9v-1h-1v1h1ZM103.4,249.2h18.5v-2h-18.5v2ZM120.9,248.2v6.9h2v-6.9h-2ZM121.9,254.2h-18.5v2h18.5v-2ZM104.4,255.2v-6.9h-2v6.9h2ZM104,265.1h21v-2h-21v2ZM124,264.1v7.1h2v-7.1h-2ZM125,270.2h-29.8v2h29.8v-2ZM96.2,271.2v-38.5h-2v38.5h2ZM95.2,233.7h29.1v-2h-29.1v2ZM123.3,232.7v7.1h2v-7.1h-2ZM124.3,238.9h-20.2v2h20.2v-2ZM103,239.9v24.2h2v-24.2h-2ZM149.7,271.2h-1v1h1v-1ZM149.7,248.5h1v-1h-1v1ZM140.8,248.5h-1v1h1v-1ZM140.8,243.2v-1h-1v1h1ZM165.2,243.2h1v-1h-1v1ZM165.2,248.5v1h1v-1h-1ZM156.2,248.5v-1h-1v1h1ZM156.2,271.2v1h1v-1h-1ZM150.7,271.2v-22.7h-2v22.7h2ZM149.7,247.5h-9v2h9v-2ZM141.8,248.5v-5.3h-2v5.3h2ZM140.8,244.2h24.4v-2h-24.4v2ZM164.2,243.2v5.3h2v-5.3h-2ZM165.2,247.5h-9v2h9v-2ZM155.2,248.5v22.7h2v-22.7h-2ZM156.2,270.2h-6.5v2h6.5v-2ZM175.3,270.6l-.4.9h0s.4-.9.4-.9ZM170.4,267.6l-.7.7h0s.7-.7.7-.7ZM167.2,263l-.9.4h0s.9-.4.9-.4ZM167.2,251.5l-.9-.4h0s.9.4.9.4ZM175.4,243.8l-.4-.9.4.9ZM187.5,243.8l-.4.9h0s.4-.9.4-.9ZM192.4,246.9l-.7.7h0s.7-.7.7-.7ZM195.6,251.5l-.9.4h0s.9-.4.9-.4ZM195.6,263l.9.4h0s-.9-.4-.9-.4ZM192.4,267.6l.7.7h0l-.7-.7ZM187.5,270.6l-.4-.9h0s.4.9.4.9ZM184.9,265.5l-.4-.9h0s.4.9.4.9ZM187.7,263.7l-.7-.7.7.7ZM189.5,260.9l-.9-.4h0s0,0,0,0l.9.4ZM189.5,253.6l-.9.4h0s0,0,0,0l.9-.4ZM187.7,250.7l-.7.7h0s0,0,0,0l.7-.7ZM184.9,248.9l-.4.9.4-.9ZM178,248.9l-.4-.9h0s.4.9.4.9ZM175.2,250.7l.7.7-.7-.7ZM173.3,253.6l-.9-.4h0s0,0,0,0l.9.4ZM173.3,260.9l-.9.4h0s0,0,0,0l.9-.4ZM175.2,263.7l-.7.7h0s0,0,0,0l.7-.7ZM178,265.5l-.4.9.4-.9ZM181.5,270.7c-2.1,0-4-.3-5.8-1l-.7,1.9c2,.8,4.2,1.1,6.5,1.1v-2ZM175.7,269.7c-1.8-.7-3.3-1.6-4.6-2.8l-1.4,1.5c1.5,1.4,3.2,2.5,5.2,3.2l.7-1.9ZM171.1,266.9c-1.3-1.2-2.3-2.6-3-4.3l-1.8.8c.8,1.9,2,3.5,3.4,4.9l1.4-1.4ZM168.2,262.6c-.7-1.6-1-3.4-1-5.4h-2c0,2.2.4,4.3,1.2,6.2l1.8-.8ZM167.1,257.2c0-2,.4-3.7,1-5.4l-1.8-.8c-.8,1.9-1.2,3.9-1.2,6.2h2ZM168.2,251.9c.7-1.6,1.7-3.1,3-4.3l-1.4-1.5c-1.5,1.4-2.6,3-3.5,4.9l1.8.8ZM171.2,247.6c1.3-1.2,2.8-2.2,4.6-2.8l-.7-1.9c-2,.8-3.7,1.8-5.2,3.2l1.4,1.5ZM175.7,244.8c1.7-.7,3.6-1,5.7-1v-2c-2.3,0-4.4.4-6.4,1.1l.7,1.9ZM181.4,243.7c2.1,0,4,.3,5.7,1l.7-1.9c-2-.8-4.1-1.1-6.4-1.1v2ZM187.2,244.8c1.8.7,3.2,1.6,4.5,2.8l1.4-1.4c-1.5-1.4-3.2-2.5-5.2-3.3l-.7,1.9ZM191.7,247.6c1.3,1.2,2.3,2.6,3,4.3l1.8-.8c-.8-1.9-2-3.5-3.5-4.9l-1.4,1.5ZM194.7,251.9c.7,1.6,1.1,3.4,1.1,5.4h2c0-2.2-.4-4.3-1.2-6.2l-1.8.8ZM195.8,257.2c0,2-.4,3.8-1.1,5.4l1.8.8c.8-1.9,1.2-4,1.2-6.2h-2ZM194.7,262.6c-.7,1.6-1.7,3.1-3,4.3l1.4,1.5c1.5-1.4,2.6-3,3.5-4.9l-1.8-.8ZM191.7,266.9c-1.3,1.2-2.8,2.1-4.5,2.8l.7,1.9c2-.8,3.7-1.8,5.2-3.2l-1.4-1.5ZM187.2,269.7c-1.7.7-3.6,1-5.7,1v2c2.3,0,4.4-.4,6.4-1.1l-.7-1.9ZM181.4,267.2c1.4,0,2.6-.2,3.8-.7l-.8-1.9c-.9.4-1.9.6-3.1.6v2ZM185.2,266.5c1.2-.5,2.2-1.2,3.1-2.1l-1.4-1.4c-.7.7-1.5,1.2-2.5,1.6l.7,1.9ZM188.4,264.4c.9-.9,1.6-2,2.1-3.2l-1.9-.7c-.4,1-.9,1.8-1.6,2.5l1.4,1.4ZM190.4,261.3c.5-1.2.8-2.6.8-4h-2c0,1.2-.2,2.3-.6,3.3l1.8.8ZM191.2,257.2c0-1.4-.2-2.8-.8-4l-1.8.8c.4,1,.6,2,.6,3.3h2ZM190.5,253.2c-.5-1.2-1.2-2.3-2.1-3.2l-1.4,1.4c.7.7,1.2,1.5,1.6,2.5l1.9-.7ZM188.4,250.1c-.9-.9-1.9-1.6-3.1-2.1l-.7,1.9c.9.4,1.7.9,2.4,1.6l1.4-1.4ZM185.3,248c-1.2-.5-2.5-.7-3.9-.7v2c1.1,0,2.2.2,3.1.6l.7-1.9ZM181.4,247.3c-1.4,0-2.7.2-3.9.7l.7,1.9c.9-.4,2-.6,3.1-.6v-2ZM177.6,248c-1.2.5-2.2,1.2-3.1,2.1l1.4,1.4c.7-.7,1.5-1.2,2.4-1.6l-.8-1.8ZM174.5,250c-.9.9-1.6,2-2.1,3.2l1.8.8c.4-1,1-1.8,1.7-2.5l-1.4-1.4ZM172.4,253.2c-.5,1.2-.7,2.6-.7,4h2c0-1.2.2-2.3.6-3.3l-1.9-.7ZM171.7,257.2c0,1.4.2,2.8.7,4l1.9-.7c-.4-1-.6-2.1-.6-3.3h-2ZM172.4,261.3c.5,1.2,1.2,2.3,2,3.2l1.4-1.4c-.7-.7-1.2-1.5-1.6-2.5l-1.8.8ZM174.5,264.4c.9.9,1.9,1.6,3.1,2.1l.7-1.9c-.9-.4-1.8-.9-2.5-1.6l-1.4,1.4ZM177.6,266.5c1.2.5,2.5.7,3.9.7v-2c-1.1,0-2.2-.2-3.1-.6l-.7,1.9ZM223.6,270.4l-.4.9h0s.4-.9.4-.9ZM216.9,266.2l-.7.7h0s.7-.7.7-.7ZM212.5,259.9l-.9.4h0s.9-.4.9-.4ZM212.5,244.1l-.9-.4h0s.9.4.9.4ZM223.7,233.6l-.4-.9.4.9ZM240.4,233.6l-.4.9h0s.4-.9.4-.9ZM247.1,237.7l-.7.7h0s.7-.7.7-.7ZM251.5,244.1l-.9.4h0s.9-.4.9-.4ZM251.5,260l.9.4h0s-.9-.4-.9-.4ZM247.1,266.3l.7.7h0l-.7-.7ZM240.4,270.4l-.4-.9h0s.4.9.4.9ZM236.8,263.4l-.4-.9h0s.4.9.4.9ZM240.6,260.9l-.7-.7h0l.7.7ZM243.2,257l-.9-.4h0s0,0,0,0l.9.4ZM243.2,247l-.9.4h0s0,0,0,0l.9-.4ZM240.6,243.1l-.7.7h0s0,0,0,0l.7-.7ZM236.8,240.5l-.4.9.4-.9ZM227.3,240.5l-.4-.9h0s.4.9.4.9ZM223.5,243.1l.7.7-.7-.7ZM220.9,247l-.9-.4h0s0,0,0,0l.9.4ZM220.9,257l-.9.4h0s0,0,0,0l.9-.4ZM223.4,260.9l-.7.7h0s0,0,0,0l.7-.7ZM227.3,263.4l-.4.9.4-.9ZM232.1,270.9c-2.9,0-5.6-.5-8.1-1.4l-.7,1.9c2.7,1,5.7,1.6,8.8,1.6v-2ZM224,269.5c-2.5-.9-4.6-2.3-6.4-4l-1.4,1.5c2,1.9,4.4,3.4,7,4.4l.7-1.9ZM217.6,265.5c-1.8-1.7-3.2-3.7-4.2-6l-1.8.8c1.1,2.5,2.7,4.8,4.6,6.6l1.4-1.4ZM213.4,259.5c-1-2.3-1.5-4.8-1.5-7.5h-2c0,3,.5,5.8,1.6,8.3l1.8-.8ZM212,252c0-2.7.5-5.2,1.5-7.5l-1.8-.8c-1.1,2.6-1.6,5.3-1.6,8.3h2ZM213.4,244.5c1-2.3,2.4-4.3,4.2-6l-1.4-1.5c-2,1.9-3.6,4.1-4.7,6.7l1.8.8ZM217.7,238.5c1.8-1.7,3.9-3,6.4-4l-.7-1.9c-2.7,1-5,2.5-7,4.4l1.4,1.5ZM224,234.5c2.4-.9,5.1-1.4,8-1.4v-2c-3.1,0-6,.5-8.7,1.6l.7,1.9ZM232,233.1c2.9,0,5.6.5,8,1.4l.7-1.9c-2.7-1-5.6-1.6-8.7-1.6v2ZM240,234.5c2.5.9,4.6,2.3,6.3,4l1.4-1.4c-2-1.9-4.3-3.4-7-4.4l-.7,1.9ZM246.4,238.5c1.8,1.7,3.2,3.7,4.2,6l1.8-.8c-1.1-2.5-2.7-4.8-4.7-6.7l-1.4,1.5ZM250.6,244.5c1,2.2,1.5,4.7,1.5,7.5h2c0-3-.6-5.8-1.7-8.3l-1.8.8ZM252.1,252c0,2.7-.5,5.3-1.5,7.6l1.8.8c1.1-2.6,1.7-5.4,1.7-8.4h-2ZM250.6,259.6c-1,2.3-2.4,4.3-4.2,6l1.4,1.5c2-1.9,3.6-4.1,4.7-6.7l-1.8-.8ZM246.4,265.5c-1.8,1.7-3.9,3-6.3,3.9l.7,1.9c2.7-1,5-2.5,7-4.3l-1.4-1.5ZM240,269.5c-2.4.9-5,1.4-7.9,1.4v2c3.1,0,6-.5,8.7-1.6l-.7-1.9ZM232,265.3c1.8,0,3.5-.3,5.1-1l-.8-1.8c-1.3.5-2.7.8-4.4.8v2ZM237.1,264.3c1.6-.6,3-1.6,4.2-2.8l-1.4-1.4c-1,1-2.2,1.8-3.5,2.3l.7,1.9ZM241.3,261.6c1.2-1.2,2.1-2.6,2.8-4.2l-1.9-.7c-.5,1.4-1.3,2.6-2.3,3.6l1.4,1.4ZM244.1,257.4c.7-1.6,1-3.4,1-5.4h-2c0,1.7-.3,3.3-.9,4.6l1.8.8ZM245.1,252c0-1.9-.3-3.7-1-5.4l-1.8.8c.6,1.4.9,2.9.9,4.6h2ZM244.1,246.6c-.6-1.6-1.6-3-2.8-4.2l-1.4,1.4c1,1,1.8,2.2,2.3,3.6l1.9-.7ZM241.3,242.4c-1.2-1.2-2.5-2.1-4.1-2.8l-.7,1.9c1.3.5,2.5,1.3,3.4,2.3l1.4-1.4ZM237.2,239.6c-1.6-.6-3.3-1-5.2-1v2c1.6,0,3.1.3,4.4.8l.7-1.9ZM232,238.7c-1.8,0-3.6.3-5.2,1l.7,1.9c1.3-.5,2.8-.8,4.4-.8v-2ZM226.9,239.6c-1.6.6-2.9,1.6-4.1,2.7l1.4,1.4c1-1,2.2-1.8,3.5-2.3l-.8-1.9ZM222.8,242.4c-1.2,1.2-2.1,2.6-2.8,4.2l1.8.8c.6-1.4,1.4-2.6,2.4-3.6l-1.4-1.4ZM220,246.6c-.6,1.6-.9,3.4-.9,5.4h2c0-1.7.3-3.3.8-4.6l-1.9-.7ZM219,252c0,1.9.3,3.7.9,5.4l1.9-.7c-.5-1.4-.8-3-.8-4.6h-2ZM220,257.4c.7,1.6,1.6,3,2.7,4.2l1.4-1.4c-1-1-1.7-2.2-2.3-3.6l-1.8.8ZM222.7,261.6c1.2,1.2,2.6,2.1,4.2,2.8l.7-1.9c-1.3-.5-2.5-1.3-3.5-2.3l-1.4,1.4ZM226.9,264.3c1.6.6,3.3,1,5.2,1v-2c-1.6,0-3.1-.3-4.4-.8l-.7,1.9ZM259.3,271.2h-1v1h1v-1ZM259.3,232.7v-1h-1v1h1ZM266.6,232.7l.8-.6-.3-.4h-.5v1ZM289.3,260.4v1h2.1l-1.3-1.6-.8.6ZM285.8,260.4h-1v1h1v-1ZM285.8,232.7v-1h-1v1h1ZM294.6,232.7h1v-1h-1v1ZM294.6,271.2v1h1v-1h-1ZM287.3,271.2l-.8.6.3.4h.5v-1ZM264.5,243.5v-1h-2.1l1.3,1.6.8-.6ZM268.1,243.5h1v-1h-1v1ZM268.1,271.2v1h1v-1h-1ZM260.3,271.2v-38.5h-2v38.5h2ZM259.3,233.7h7.4v-2h-7.4v2ZM265.9,233.4l22.7,27.7,1.5-1.3-22.7-27.7-1.5,1.3ZM289.3,259.4h-3.6v2h3.6v-2ZM286.8,260.4v-27.7h-2v27.7h2ZM285.8,233.7h8.8v-2h-8.8v2ZM293.6,232.7v38.5h2v-38.5h-2ZM294.6,270.2h-7.3v2h7.3v-2ZM288,270.6l-22.8-27.7-1.5,1.3,22.8,27.7,1.5-1.3ZM264.5,244.5h3.6v-2h-3.6v2ZM267.1,243.5v27.7h2v-27.7h-2ZM268.1,270.2h-8.8v2h8.8v-2ZM311.3,248.2v-1h-1v1h1ZM329.9,248.2h1v-1h-1v1ZM329.9,255.2v1h1v-1h-1ZM311.3,255.2h-1v1h1v-1ZM312,264.1h-1v1h1v-1ZM332.9,264.1h1v-1h-1v1ZM332.9,271.2v1h1v-1h-1ZM303.1,271.2h-1v1h1v-1ZM303.1,232.7v-1h-1v1h1ZM332.2,232.7h1v-1h-1v1ZM332.2,239.9v1h1v-1h-1ZM312,239.9v-1h-1v1h1ZM311.3,249.2h18.5v-2h-18.5v2ZM328.9,248.2v6.9h2v-6.9h-2ZM329.9,254.2h-18.5v2h18.5v-2ZM312.3,255.2v-6.9h-2v6.9h2ZM312,265.1h21v-2h-21v2ZM331.9,264.1v7.1h2v-7.1h-2ZM332.9,270.2h-29.8v2h29.8v-2ZM304.1,271.2v-38.5h-2v38.5h2ZM303.1,233.7h29.1v-2h-29.1v2ZM331.2,232.7v7.1h2v-7.1h-2ZM332.2,238.9h-20.2v2h20.2v-2ZM311,239.9v24.2h2v-24.2h-2Z"/>
        </g>
      </g>
      <path class="cls-2" d="M24.2,41.9c-3,0-5.9-.5-8.5-1.5-2.6-1-4.8-2.4-6.7-4.2-1.9-1.8-3.3-3.9-4.4-6.3-1-2.4-1.5-5.1-1.5-7.9s.5-5.5,1.5-7.9c1.1-2.4,2.5-4.5,4.5-6.3,1.9-1.8,4.1-3.2,6.7-4.2s5.4-1.5,8.4-1.5,5.8.5,8.4,1.5c2.6,1,4.8,2.4,6.7,4.2,1.9,1.8,3.4,3.9,4.5,6.3,1.1,2.4,1.6,5,1.6,7.9s-.5,5.5-1.6,8c-1.1,2.4-2.5,4.5-4.5,6.3-1.9,1.8-4.1,3.1-6.7,4.1-2.5,1-5.3,1.5-8.3,1.5ZM24.1,34.3c1.7,0,3.3-.3,4.7-.9,1.5-.6,2.8-1.4,3.8-2.5s1.9-2.4,2.5-3.9c.6-1.5.9-3.2.9-5s-.3-3.5-.9-5c-.6-1.5-1.4-2.8-2.5-3.9-1.1-1.1-2.3-1.9-3.8-2.5-1.5-.6-3.1-.9-4.8-.9s-3.3.3-4.8.9c-1.4.6-2.7,1.4-3.8,2.5s-2,2.4-2.6,3.9c-.6,1.5-.9,3.2-.9,5s.3,3.5.9,5c.6,1.5,1.5,2.8,2.5,3.9,1.1,1.1,2.4,1.9,3.9,2.5s3.1.9,4.8.9ZM51.3,41.2V2.7h7.4l22.7,27.7h-3.6V2.7h8.8v38.5h-7.3l-22.8-27.7h3.6v27.7h-8.8ZM103.4,18.2h18.5v6.9h-18.5v-6.9ZM104,34.1h21v7.2h-29.8V2.7h29.1v7.1h-20.2v24.2ZM149.7,41.2v-22.7h-9v-5.3h24.4v5.3h-9v22.7h-6.5ZM181.5,41.7c-2.2,0-4.3-.4-6.2-1.1-1.9-.7-3.5-1.7-4.9-3-1.4-1.3-2.4-2.8-3.2-4.6-.7-1.8-1.1-3.7-1.1-5.8s.4-4,1.1-5.8c.8-1.8,1.9-3.3,3.2-4.6s3-2.3,4.9-3c1.9-.7,3.9-1.1,6.1-1.1s4.2.4,6.1,1.1c1.9.7,3.5,1.7,4.8,3,1.4,1.3,2.5,2.8,3.2,4.6.8,1.7,1.2,3.7,1.2,5.8s-.4,4-1.2,5.8c-.8,1.8-1.9,3.3-3.2,4.6-1.4,1.3-3,2.3-4.8,3-1.8.7-3.9,1.1-6,1.1ZM181.4,36.2c1.3,0,2.4-.2,3.4-.6,1.1-.4,2-1,2.8-1.8s1.4-1.7,1.8-2.8c.5-1.1.7-2.3.7-3.6s-.2-2.5-.7-3.6c-.4-1.1-1-2-1.8-2.8-.8-.8-1.7-1.4-2.8-1.8s-2.2-.6-3.5-.6-2.4.2-3.5.6c-1,.4-2,1-2.8,1.8-.8.8-1.4,1.7-1.9,2.8-.4,1.1-.6,2.3-.6,3.6s.2,2.5.6,3.6c.5,1.1,1.1,2,1.8,2.8.8.8,1.7,1.4,2.8,1.8s2.2.6,3.5.6ZM232.1,41.9c-3,0-5.9-.5-8.5-1.5-2.6-1-4.8-2.4-6.7-4.2-1.9-1.8-3.3-3.9-4.4-6.3-1-2.4-1.5-5.1-1.5-7.9s.5-5.5,1.5-7.9c1.1-2.4,2.5-4.5,4.5-6.3,1.9-1.8,4.1-3.2,6.7-4.2,2.6-1,5.4-1.5,8.4-1.5s5.8.5,8.4,1.5c2.6,1,4.8,2.4,6.7,4.2,1.9,1.8,3.4,3.9,4.5,6.3,1.1,2.4,1.6,5,1.6,7.9s-.5,5.5-1.6,8c-1.1,2.4-2.5,4.5-4.5,6.3-1.9,1.8-4.1,3.1-6.7,4.1-2.5,1-5.3,1.5-8.3,1.5ZM232,34.3c1.7,0,3.3-.3,4.7-.9,1.5-.6,2.8-1.4,3.8-2.5,1.1-1.1,1.9-2.4,2.5-3.9.6-1.5.9-3.2.9-5s-.3-3.5-.9-5c-.6-1.5-1.4-2.8-2.5-3.9-1.1-1.1-2.3-1.9-3.8-2.5-1.5-.6-3.1-.9-4.8-.9s-3.3.3-4.8.9c-1.4.6-2.7,1.4-3.8,2.5-1.1,1.1-2,2.4-2.6,3.9-.6,1.5-.9,3.2-.9,5s.3,3.5.9,5c.6,1.5,1.5,2.8,2.5,3.9,1.1,1.1,2.4,1.9,3.9,2.5,1.5.6,3.1.9,4.8.9ZM259.3,41.2V2.7h7.4l22.7,27.7h-3.6V2.7h8.8v38.5h-7.3l-22.8-27.7h3.6v27.7h-8.8ZM311.3,18.2h18.5v6.9h-18.5v-6.9ZM312,34.1h21v7.2h-29.8V2.7h29.1v7.1h-20.2v24.2Z"/>
      <g class="cls-6">
        <path class="cls-3" d="M15.7,40.4l-.4.9h0s.4-.9.4-.9ZM9,36.2l-.7.7h0s.7-.7.7-.7ZM4.6,29.9l-.9.4h0s.9-.4.9-.4ZM4.6,14.1l-.9-.4h0s.9.4.9.4ZM15.7,3.6l-.4-.9h0l.4.9ZM32.5,3.6l-.4.9h0s.4-.9.4-.9ZM39.1,7.7l-.7.7h0s.7-.7.7-.7ZM43.6,14.1l-.9.4h0s.9-.4.9-.4ZM43.6,30l.9.4h0s-.9-.4-.9-.4ZM39.1,36.3l.7.7h0s-.7-.7-.7-.7ZM32.5,40.4l-.4-.9h0s.4.9.4.9ZM28.8,33.4l-.4-.9h0s.4.9.4.9ZM32.7,30.9l-.7-.7.7.7ZM35.2,27l-.9-.4h0s0,0,0,0l.9.4ZM35.2,17l-.9.4h0s0,0,0,0l.9-.4ZM32.7,13.1l-.7.7h0s0,0,0,0l.7-.7ZM28.9,10.5l-.4.9.4-.9ZM19.3,10.5l-.4-.9h0s.4.9.4.9ZM15.5,13.1l.7.7-.7-.7ZM12.9,17l-.9-.4h0s0,0,0,0l.9.4ZM12.9,27l-.9.4h0s0,0,0,0l.9-.4ZM15.5,30.9l-.7.7h0s0,0,0,0l.7-.7ZM19.3,33.4l-.4.9.4-.9ZM24.2,40.9c-2.9,0-5.6-.5-8.1-1.4l-.7,1.9c2.7,1,5.7,1.6,8.8,1.6v-2ZM16,39.5c-2.5-.9-4.6-2.3-6.4-4l-1.4,1.5c2,1.9,4.4,3.4,7,4.4l.7-1.9ZM9.7,35.5c-1.8-1.7-3.2-3.7-4.2-6l-1.8.8c1.1,2.5,2.7,4.8,4.6,6.6l1.4-1.4ZM5.5,29.5c-1-2.3-1.5-4.8-1.5-7.5h-2c0,3,.5,5.8,1.6,8.3l1.8-.8ZM4,22c0-2.7.5-5.2,1.5-7.5l-1.8-.8c-1.1,2.6-1.6,5.3-1.6,8.3h2ZM5.5,14.5c1-2.3,2.4-4.3,4.2-6l-1.4-1.5c-2,1.9-3.6,4.1-4.7,6.7l1.8.8ZM9.7,8.5c1.8-1.7,3.9-3,6.4-4l-.7-1.9c-2.7,1-5,2.5-7,4.4l1.4,1.5ZM16.1,4.5c2.4-.9,5.1-1.4,8-1.4V1.1c-3.1,0-6,.5-8.7,1.6l.7,1.9ZM24.1,3.1c2.9,0,5.6.5,8,1.4l.7-1.9c-2.7-1-5.6-1.6-8.7-1.6v2ZM32.1,4.5c2.5.9,4.6,2.3,6.3,4l1.4-1.4c-2-1.9-4.3-3.4-7-4.4l-.7,1.9ZM38.4,8.5c1.8,1.7,3.2,3.7,4.2,6l1.8-.8c-1.1-2.5-2.7-4.8-4.7-6.7l-1.4,1.5ZM42.7,14.5c1,2.2,1.5,4.7,1.5,7.5h2c0-3-.6-5.8-1.7-8.3l-1.8.8ZM44.2,22c0,2.7-.5,5.3-1.5,7.6l1.8.8c1.1-2.6,1.7-5.4,1.7-8.4h-2ZM42.7,29.6c-1,2.3-2.4,4.3-4.2,6l1.4,1.5c2-1.9,3.6-4.1,4.7-6.7l-1.8-.8ZM38.4,35.5c-1.8,1.7-3.9,3-6.3,3.9l.7,1.9c2.7-1,5-2.5,7-4.3l-1.4-1.5ZM32.1,39.5c-2.4.9-5,1.4-7.9,1.4v2c3.1,0,6-.5,8.7-1.6l-.7-1.9ZM24.1,35.3c1.8,0,3.5-.3,5.1-1l-.8-1.9c-1.3.5-2.7.8-4.4.8v2ZM29.2,34.3c1.6-.6,3-1.6,4.2-2.8l-1.4-1.4c-1,1-2.2,1.8-3.5,2.3l.7,1.9ZM33.4,31.6c1.2-1.2,2.1-2.6,2.8-4.2l-1.9-.7c-.5,1.4-1.3,2.6-2.3,3.6l1.4,1.4ZM36.1,27.4c.7-1.6,1-3.4,1-5.4h-2c0,1.7-.3,3.3-.9,4.6l1.8.8ZM37.1,22c0-1.9-.3-3.7-1-5.4l-1.8.8c.6,1.4.9,2.9.9,4.6h2ZM36.1,16.6c-.6-1.6-1.6-3-2.8-4.2l-1.4,1.4c1,1,1.8,2.2,2.3,3.6l1.9-.7ZM33.4,12.4c-1.2-1.2-2.5-2.1-4.1-2.8l-.7,1.9c1.3.5,2.5,1.3,3.4,2.3l1.4-1.4ZM29.3,9.6c-1.6-.6-3.3-1-5.2-1v2c1.6,0,3.1.3,4.4.8l.7-1.9ZM24.1,8.7c-1.8,0-3.6.3-5.2,1l.7,1.9c1.3-.5,2.8-.8,4.4-.8v-2ZM18.9,9.6c-1.6.6-2.9,1.6-4.1,2.7l1.4,1.4c1-1,2.2-1.8,3.5-2.3l-.8-1.9ZM14.8,12.4c-1.2,1.2-2.1,2.6-2.8,4.2l1.8.8c.6-1.4,1.4-2.6,2.4-3.6l-1.4-1.4ZM12,16.6c-.6,1.6-.9,3.4-.9,5.4h2c0-1.7.3-3.3.8-4.6l-1.9-.7ZM11.1,22c0,1.9.3,3.7.9,5.4l1.9-.7c-.5-1.4-.8-3-.8-4.6h-2ZM12,27.4c.7,1.6,1.6,3,2.7,4.2l1.4-1.4c-1-1-1.7-2.2-2.3-3.6l-1.8.8ZM14.8,31.6c1.2,1.2,2.6,2.1,4.2,2.8l.7-1.9c-1.3-.5-2.5-1.3-3.5-2.3l-1.4,1.4ZM18.9,34.3c1.6.6,3.3,1,5.2,1v-2c-1.6,0-3.1-.3-4.4-.8l-.7,1.9ZM51.3,41.2h-1v1h1v-1ZM51.3,2.7v-1h-1v1h1ZM58.7,2.7l.8-.6-.3-.4h-.5v1ZM81.4,30.4v1h2.1l-1.3-1.6-.8.6ZM77.8,30.4h-1v1h1v-1ZM77.8,2.7v-1h-1v1h1ZM86.6,2.7h1v-1h-1v1ZM86.6,41.2v1h1v-1h-1ZM79.3,41.2l-.8.6.3.4h.5v-1ZM56.5,13.5v-1h-2.1l1.3,1.6.8-.6ZM60.1,13.5h1v-1h-1v1ZM60.1,41.2v1h1v-1h-1ZM52.3,41.2V2.7h-2v38.5h2ZM51.3,3.7h7.4V1.7h-7.4v2ZM57.9,3.4l22.7,27.7,1.5-1.3L59.5,2.1l-1.5,1.3ZM81.4,29.4h-3.6v2h3.6v-2ZM78.8,30.4V2.7h-2v27.7h2ZM77.8,3.7h8.8V1.7h-8.8v2ZM85.6,2.7v38.5h2V2.7h-2ZM86.6,40.2h-7.3v2h7.3v-2ZM80.1,40.6l-22.8-27.7-1.5,1.3,22.8,27.7,1.5-1.3ZM56.5,14.5h3.6v-2h-3.6v2ZM59.1,13.5v27.7h2V13.5h-2ZM60.1,40.2h-8.8v2h8.8v-2ZM103.4,18.2v-1h-1v1h1ZM121.9,18.2h1v-1h-1v1ZM121.9,25.2v1h1v-1h-1ZM103.4,25.2h-1v1h1v-1ZM104,34.1h-1v1h1v-1ZM125,34.1h1v-1h-1v1ZM125,41.2v1h1v-1h-1ZM95.2,41.2h-1v1h1v-1ZM95.2,2.7v-1h-1v1h1ZM124.3,2.7h1v-1h-1v1ZM124.3,9.9v1h1v-1h-1ZM104,9.9v-1h-1v1h1ZM103.4,19.2h18.5v-2h-18.5v2ZM120.9,18.2v6.9h2v-6.9h-2ZM121.9,24.2h-18.5v2h18.5v-2ZM104.4,25.2v-6.9h-2v6.9h2ZM104,35.1h21v-2h-21v2ZM124,34.1v7.2h2v-7.2h-2ZM125,40.2h-29.8v2h29.8v-2ZM96.2,41.2V2.7h-2v38.5h2ZM95.2,3.7h29.1V1.7h-29.1v2ZM123.3,2.7v7.1h2V2.7h-2ZM124.3,8.9h-20.2v2h20.2v-2ZM103,9.9v24.2h2V9.9h-2ZM149.7,41.2h-1v1h1v-1ZM149.7,18.5h1v-1h-1v1ZM140.8,18.5h-1v1h1v-1ZM140.8,13.2v-1h-1v1h1ZM165.2,13.2h1v-1h-1v1ZM165.2,18.5v1h1v-1h-1ZM156.2,18.5v-1h-1v1h1ZM156.2,41.2v1h1v-1h-1ZM150.7,41.2v-22.7h-2v22.7h2ZM149.7,17.5h-9v2h9v-2ZM141.8,18.5v-5.3h-2v5.3h2ZM140.8,14.2h24.4v-2h-24.4v2ZM164.2,13.2v5.3h2v-5.3h-2ZM165.2,17.5h-9v2h9v-2ZM155.2,18.5v22.7h2v-22.7h-2ZM156.2,40.2h-6.5v2h6.5v-2ZM175.3,40.6l-.4.9h0s.4-.9.4-.9ZM170.4,37.6l-.7.7h0s.7-.7.7-.7ZM167.2,33l-.9.4h0s.9-.4.9-.4ZM167.2,21.5l-.9-.4h0s.9.4.9.4ZM175.4,13.8l-.4-.9.4.9ZM187.5,13.8l-.4.9h0s.4-.9.4-.9ZM192.4,16.9l-.7.7h0s.7-.7.7-.7ZM195.6,21.5l-.9.4h0s.9-.4.9-.4ZM195.6,33l.9.4h0s-.9-.4-.9-.4ZM192.4,37.6l.7.7h0s-.7-.7-.7-.7ZM187.5,40.6l-.4-.9h0s.4.9.4.9ZM184.9,35.5l-.4-.9h0s.4.9.4.9ZM187.7,33.7l-.7-.7.7.7ZM189.5,30.9l-.9-.4h0s0,0,0,0l.9.4ZM189.5,23.6l-.9.4h0s0,0,0,0l.9-.4ZM187.7,20.7l-.7.7h0s0,0,0,0l.7-.7ZM184.9,18.9l-.4.9.4-.9ZM178,18.9l-.4-.9h0s.4.9.4.9ZM175.2,20.7l.7.7-.7-.7ZM173.3,23.6l-.9-.4h0s0,0,0,0l.9.4ZM173.3,30.9l-.9.4h0s0,0,0,0l.9-.4ZM175.2,33.7l-.7.7h0s0,0,0,0l.7-.7ZM178,35.5l-.4.9.4-.9ZM181.5,40.7c-2.1,0-4-.3-5.8-1l-.7,1.9c2,.8,4.2,1.1,6.5,1.1v-2ZM175.7,39.7c-1.8-.7-3.3-1.6-4.6-2.8l-1.4,1.5c1.5,1.4,3.2,2.5,5.2,3.2l.7-1.9ZM171.1,36.9c-1.3-1.2-2.3-2.6-3-4.3l-1.8.8c.8,1.9,2,3.5,3.4,4.9l1.4-1.4ZM168.2,32.6c-.7-1.6-1-3.4-1-5.4h-2c0,2.2.4,4.3,1.2,6.2l1.8-.8ZM167.1,27.2c0-2,.4-3.7,1-5.4l-1.8-.8c-.8,1.9-1.2,3.9-1.2,6.2h2ZM168.2,21.9c.7-1.6,1.7-3.1,3-4.3l-1.4-1.5c-1.5,1.4-2.6,3-3.5,4.9l1.8.8ZM171.2,17.6c1.3-1.2,2.8-2.2,4.6-2.8l-.7-1.9c-2,.8-3.7,1.8-5.2,3.2l1.4,1.5ZM175.7,14.8c1.7-.7,3.6-1,5.7-1v-2c-2.3,0-4.4.4-6.4,1.1l.7,1.9ZM181.4,13.7c2.1,0,4,.3,5.7,1l.7-1.9c-2-.8-4.1-1.1-6.4-1.1v2ZM187.2,14.8c1.8.7,3.2,1.6,4.5,2.8l1.4-1.4c-1.5-1.4-3.2-2.5-5.2-3.3l-.7,1.9ZM191.7,17.6c1.3,1.2,2.3,2.6,3,4.3l1.8-.8c-.8-1.9-2-3.5-3.5-4.9l-1.4,1.5ZM194.7,21.9c.7,1.6,1.1,3.4,1.1,5.4h2c0-2.2-.4-4.3-1.2-6.2l-1.8.8ZM195.8,27.2c0,2-.4,3.7-1.1,5.4l1.8.8c.8-1.9,1.2-4,1.2-6.2h-2ZM194.7,32.6c-.7,1.6-1.7,3.1-3,4.3l1.4,1.5c1.5-1.4,2.6-3,3.5-4.9l-1.8-.8ZM191.7,36.9c-1.3,1.2-2.8,2.1-4.5,2.8l.7,1.9c2-.8,3.7-1.8,5.2-3.2l-1.4-1.5ZM187.2,39.7c-1.7.7-3.6,1-5.7,1v2c2.3,0,4.4-.4,6.4-1.1l-.7-1.9ZM181.4,37.2c1.4,0,2.6-.2,3.8-.7l-.8-1.9c-.9.4-1.9.6-3.1.6v2ZM185.2,36.5c1.2-.5,2.2-1.2,3.1-2.1l-1.4-1.4c-.7.7-1.5,1.2-2.5,1.6l.7,1.9ZM188.4,34.4c.9-.9,1.6-2,2.1-3.2l-1.9-.7c-.4,1-.9,1.8-1.6,2.5l1.4,1.4ZM190.4,31.3c.5-1.2.8-2.6.8-4h-2c0,1.2-.2,2.3-.6,3.3l1.8.8ZM191.2,27.2c0-1.4-.2-2.8-.8-4l-1.8.8c.4,1,.6,2,.6,3.3h2ZM190.5,23.2c-.5-1.2-1.2-2.3-2.1-3.2l-1.4,1.4c.7.7,1.2,1.5,1.6,2.5l1.9-.7ZM188.4,20.1c-.9-.9-1.9-1.6-3.1-2.1l-.7,1.9c.9.4,1.7.9,2.4,1.6l1.4-1.4ZM185.3,18c-1.2-.5-2.5-.7-3.9-.7v2c1.1,0,2.2.2,3.1.6l.7-1.9ZM181.4,17.3c-1.4,0-2.7.2-3.9.7l.7,1.9c.9-.4,2-.6,3.1-.6v-2ZM177.6,18c-1.2.5-2.2,1.2-3.1,2.1l1.4,1.4c.7-.7,1.5-1.2,2.4-1.6l-.8-1.9ZM174.5,20c-.9.9-1.6,2-2.1,3.2l1.8.8c.4-1,1-1.8,1.7-2.5l-1.4-1.4ZM172.4,23.2c-.5,1.2-.7,2.6-.7,4h2c0-1.2.2-2.3.6-3.3l-1.9-.7ZM171.7,27.2c0,1.4.2,2.8.7,4l1.9-.7c-.4-1-.6-2.1-.6-3.3h-2ZM172.4,31.3c.5,1.2,1.2,2.3,2,3.2l1.4-1.4c-.7-.7-1.2-1.5-1.6-2.5l-1.8.8ZM174.5,34.4c.9.9,1.9,1.6,3.1,2.1l.7-1.9c-.9-.4-1.8-.9-2.5-1.6l-1.4,1.4ZM177.6,36.5c1.2.5,2.5.7,3.9.7v-2c-1.1,0-2.2-.2-3.1-.6l-.7,1.9ZM223.6,40.4l-.4.9h0s.4-.9.4-.9ZM216.9,36.2l-.7.7h0s.7-.7.7-.7ZM212.5,29.9l-.9.4h0s.9-.4.9-.4ZM212.5,14.1l-.9-.4h0s.9.4.9.4ZM223.7,3.6l-.4-.9.4.9ZM240.4,3.6l-.4.9h0s.4-.9.4-.9ZM247.1,7.7l-.7.7h0s.7-.7.7-.7ZM251.5,14.1l-.9.4h0s.9-.4.9-.4ZM251.5,30l.9.4h0s-.9-.4-.9-.4ZM247.1,36.3l.7.7h0s-.7-.7-.7-.7ZM240.4,40.4l-.4-.9h0s.4.9.4.9ZM236.8,33.4l-.4-.9h0s.4.9.4.9ZM240.6,30.9l-.7-.7h0l.7.7ZM243.2,27l-.9-.4h0s0,0,0,0l.9.4ZM243.2,17l-.9.4h0s0,0,0,0l.9-.4ZM240.6,13.1l-.7.7h0s0,0,0,0l.7-.7ZM236.8,10.5l-.4.9.4-.9ZM227.3,10.5l-.4-.9h0s.4.9.4.9ZM223.5,13.1l.7.7-.7-.7ZM220.9,17l-.9-.4h0s0,0,0,0l.9.4ZM220.9,27l-.9.4h0s0,0,0,0l.9-.4ZM223.4,30.9l-.7.7h0s0,0,0,0l.7-.7ZM227.3,33.4l-.4.9.4-.9ZM232.1,40.9c-2.9,0-5.6-.5-8.1-1.4l-.7,1.9c2.7,1,5.7,1.6,8.8,1.6v-2ZM224,39.5c-2.5-.9-4.6-2.3-6.4-4l-1.4,1.5c2,1.9,4.4,3.4,7,4.4l.7-1.9ZM217.6,35.5c-1.8-1.7-3.2-3.7-4.2-6l-1.8.8c1.1,2.5,2.7,4.8,4.6,6.6l1.4-1.4ZM213.4,29.5c-1-2.3-1.5-4.8-1.5-7.5h-2c0,3,.5,5.8,1.6,8.3l1.8-.8ZM212,22c0-2.7.5-5.2,1.5-7.5l-1.8-.8c-1.1,2.6-1.6,5.3-1.6,8.3h2ZM213.4,14.5c1-2.3,2.4-4.3,4.2-6l-1.4-1.5c-2,1.9-3.6,4.1-4.7,6.7l1.8.8ZM217.7,8.5c1.8-1.7,3.9-3,6.4-4l-.7-1.9c-2.7,1-5,2.5-7,4.4l1.4,1.5ZM224,4.5c2.4-.9,5.1-1.4,8-1.4V1.1c-3.1,0-6,.5-8.7,1.6l.7,1.9ZM232,3.1c2.9,0,5.6.5,8,1.4l.7-1.9c-2.7-1-5.6-1.6-8.7-1.6v2ZM240,4.5c2.5.9,4.6,2.3,6.3,4l1.4-1.4c-2-1.9-4.3-3.4-7-4.4l-.7,1.9ZM246.4,8.5c1.8,1.7,3.2,3.7,4.2,6l1.8-.8c-1.1-2.5-2.7-4.8-4.7-6.7l-1.4,1.5ZM250.6,14.5c1,2.2,1.5,4.7,1.5,7.5h2c0-3-.6-5.8-1.7-8.3l-1.8.8ZM252.1,22c0,2.7-.5,5.3-1.5,7.6l1.8.8c1.1-2.6,1.7-5.4,1.7-8.4h-2ZM250.6,29.6c-1,2.3-2.4,4.3-4.2,6l1.4,1.5c2-1.9,3.6-4.1,4.7-6.7l-1.8-.8ZM246.4,35.5c-1.8,1.7-3.9,3-6.3,3.9l.7,1.9c2.7-1,5-2.5,7-4.3l-1.4-1.5ZM240,39.5c-2.4.9-5,1.4-7.9,1.4v2c3.1,0,6-.5,8.7-1.6l-.7-1.9ZM232,35.3c1.8,0,3.5-.3,5.1-1l-.8-1.9c-1.3.5-2.7.8-4.4.8v2ZM237.1,34.3c1.6-.6,3-1.6,4.2-2.8l-1.4-1.4c-1,1-2.2,1.8-3.5,2.3l.7,1.9ZM241.3,31.6c1.2-1.2,2.1-2.6,2.8-4.2l-1.9-.7c-.5,1.4-1.3,2.6-2.3,3.6l1.4,1.4ZM244.1,27.4c.7-1.6,1-3.4,1-5.4h-2c0,1.7-.3,3.3-.9,4.6l1.8.8ZM245.1,22c0-1.9-.3-3.7-1-5.4l-1.8.8c.6,1.4.9,2.9.9,4.6h2ZM244.1,16.6c-.6-1.6-1.6-3-2.8-4.2l-1.4,1.4c1,1,1.8,2.2,2.3,3.6l1.9-.7ZM241.3,12.4c-1.2-1.2-2.5-2.1-4.1-2.8l-.7,1.9c1.3.5,2.5,1.3,3.4,2.3l1.4-1.4ZM237.2,9.6c-1.6-.6-3.3-1-5.2-1v2c1.6,0,3.1.3,4.4.8l.7-1.9ZM232,8.7c-1.8,0-3.6.3-5.2,1l.7,1.9c1.3-.5,2.8-.8,4.4-.8v-2ZM226.9,9.6c-1.6.6-2.9,1.6-4.1,2.7l1.4,1.4c1-1,2.2-1.8,3.5-2.3l-.8-1.9ZM222.8,12.4c-1.2,1.2-2.1,2.6-2.8,4.2l1.8.8c.6-1.4,1.4-2.6,2.4-3.6l-1.4-1.4ZM220,16.6c-.6,1.6-.9,3.4-.9,5.4h2c0-1.7.3-3.3.8-4.6l-1.9-.7ZM219,22c0,1.9.3,3.7.9,5.4l1.9-.7c-.5-1.4-.8-3-.8-4.6h-2ZM220,27.4c.7,1.6,1.6,3,2.7,4.2l1.4-1.4c-1-1-1.7-2.2-2.3-3.6l-1.8.8ZM222.7,31.6c1.2,1.2,2.6,2.1,4.2,2.8l.7-1.9c-1.3-.5-2.5-1.3-3.5-2.3l-1.4,1.4ZM226.9,34.3c1.6.6,3.3,1,5.2,1v-2c-1.6,0-3.1-.3-4.4-.8l-.7,1.9ZM259.3,41.2h-1v1h1v-1ZM259.3,2.7v-1h-1v1h1ZM266.6,2.7l.8-.6-.3-.4h-.5v1ZM289.3,30.4v1h2.1l-1.3-1.6-.8.6ZM285.8,30.4h-1v1h1v-1ZM285.8,2.7v-1h-1v1h1ZM294.6,2.7h1v-1h-1v1ZM294.6,41.2v1h1v-1h-1ZM287.3,41.2l-.8.6.3.4h.5v-1ZM264.5,13.5v-1h-2.1l1.3,1.6.8-.6ZM268.1,13.5h1v-1h-1v1ZM268.1,41.2v1h1v-1h-1ZM260.3,41.2V2.7h-2v38.5h2ZM259.3,3.7h7.4V1.7h-7.4v2ZM265.9,3.4l22.7,27.7,1.5-1.3-22.7-27.7-1.5,1.3ZM289.3,29.4h-3.6v2h3.6v-2ZM286.8,30.4V2.7h-2v27.7h2ZM285.8,3.7h8.8V1.7h-8.8v2ZM293.6,2.7v38.5h2V2.7h-2ZM294.6,40.2h-7.3v2h7.3v-2ZM288,40.6l-22.8-27.7-1.5,1.3,22.8,27.7,1.5-1.3ZM264.5,14.5h3.6v-2h-3.6v2ZM267.1,13.5v27.7h2V13.5h-2ZM268.1,40.2h-8.8v2h8.8v-2ZM311.3,18.2v-1h-1v1h1ZM329.9,18.2h1v-1h-1v1ZM329.9,25.2v1h1v-1h-1ZM311.3,25.2h-1v1h1v-1ZM312,34.1h-1v1h1v-1ZM332.9,34.1h1v-1h-1v1ZM332.9,41.2v1h1v-1h-1ZM303.1,41.2h-1v1h1v-1ZM303.1,2.7v-1h-1v1h1ZM332.2,2.7h1v-1h-1v1ZM332.2,9.9v1h1v-1h-1ZM312,9.9v-1h-1v1h1ZM311.3,19.2h18.5v-2h-18.5v2ZM328.9,18.2v6.9h2v-6.9h-2ZM329.9,24.2h-18.5v2h18.5v-2ZM312.3,25.2v-6.9h-2v6.9h2ZM312,35.1h21v-2h-21v2ZM331.9,34.1v7.2h2v-7.2h-2ZM332.9,40.2h-29.8v2h29.8v-2ZM304.1,41.2V2.7h-2v38.5h2ZM303.1,3.7h29.1V1.7h-29.1v2ZM331.2,2.7v7.1h2V2.7h-2ZM332.2,8.9h-20.2v2h20.2v-2ZM311,9.9v24.2h2V9.9h-2Z"/>
      </g>
    </g>
  </g>
</svg>