<svg width="29" height="32" viewBox="0 0 29 32" fill="none" xmlns="http://www.w3.org/2000/svg">
<path d="M5.48649 0C8.27676 0 9.67189 3.456 7.71243 5.472C5.7373 7.472 2.35135 6.048 2.35135 3.2C2.35135 2.35131 2.68166 1.53737 3.26961 0.937258C3.85756 0.337142 4.655 0 5.48649 0ZM3.13514 8H7.83784C8.66933 8 9.46676 8.33714 10.0547 8.93726C10.6427 9.53737 10.973 10.3513 10.973 11.2V20H8.62162V32H2.35135V20H0V11.2C0 10.3513 0.330308 9.53737 0.91826 8.93726C1.50621 8.33714 2.30365 8 3.13514 8ZM24.2973 9.6H27.4324L22.7297 3.2L18.027 9.6H21.1622V22.4H18.027L22.7297 28.8L27.4324 22.4H24.2973M29 0H16.4595V3.2H29M29 28.8H16.4595V32H29" fill="#006FFF"/>
</svg>
