<svg width="29" height="33" viewBox="0 0 29 33" fill="none" xmlns="http://www.w3.org/2000/svg">
<path d="M6.44434 14.5H9.66656V17.7222H6.44434V14.5ZM6.44434 20.9444H9.66656V24.1667H6.44434V20.9444ZM12.8888 14.5H16.111V17.7222H12.8888V14.5ZM12.8888 20.9444H16.111V24.1667H12.8888V20.9444ZM19.3332 14.5H22.5554V17.7222H19.3332V14.5ZM19.3332 20.9444H22.5554V24.1667H19.3332V20.9444Z" fill="#006FFF"/>
<path d="M3.22222 32.2222H25.7778C27.5548 32.2222 29 30.7771 29 29V6.44444C29 4.66739 27.5548 3.22222 25.7778 3.22222H22.5556V0H19.3333V3.22222H9.66667V0H6.44444V3.22222H3.22222C1.44517 3.22222 0 4.66739 0 6.44444V29C0 30.7771 1.44517 32.2222 3.22222 32.2222ZM25.7778 9.66667L25.7794 29H3.22222V9.66667H25.7778Z" fill="#006FFF"/>
</svg>
