<svg width="37" height="31" viewBox="0 0 37 31" fill="none" xmlns="http://www.w3.org/2000/svg">
<path d="M0 8.30366C0.189144 7.51213 0.288694 6.6858 0.582818 5.93354C1.85434 2.67105 4.2381 0.658764 7.76035 0.117098C10.812 -0.352286 13.4292 0.608791 15.6067 2.75315C16.4836 3.61696 17.3515 4.49148 18.2239 5.35975C18.3072 5.44274 18.395 5.51948 18.4963 5.61407C18.6031 5.51413 18.699 5.42757 18.7904 5.33744C19.7941 4.34602 20.7679 3.32426 21.8059 2.36854C25.4784 -1.01264 31.2794 -0.736004 34.6143 2.95661C37.9185 6.61441 37.78 11.9981 34.2641 15.5211C29.2223 20.5728 24.1634 25.6066 19.1117 30.6476C18.6375 31.1206 18.3497 31.1179 17.8683 30.6369C12.8329 25.6129 7.79926 20.588 2.76295 15.5639C1.23985 14.0443 0.326704 12.2336 0.0678748 10.1062C0.0552048 10.0027 0.0235299 9.90189 0 9.79927C0 9.30043 0 8.8016 0 8.30277V8.30366ZM19.9172 15.7978C20.2692 14.4494 20.6113 13.1412 20.9525 11.833C21.1769 10.9718 21.3959 10.1098 21.6249 9.24957C21.7091 8.93189 21.9127 8.72397 22.2638 8.72486C22.605 8.72486 22.7806 8.93724 22.8602 9.24332C22.8756 9.30043 22.8919 9.35754 22.9073 9.41466C23.5571 11.9177 24.2059 14.4217 24.8566 16.9248C24.8775 17.006 24.9146 17.0836 24.9652 17.2193C25.4512 15.8218 25.9155 14.4886 26.3761 13.1537C26.4838 12.8422 26.6331 12.5852 27.0132 12.5736C27.3988 12.5629 27.5517 12.8244 27.6748 13.126C27.9843 13.8845 28.3146 14.6359 28.6051 15.4015C28.7183 15.6987 28.8531 15.8317 29.197 15.8076C29.7119 15.771 30.2323 15.8004 30.75 15.7978C31.255 15.7942 31.8179 15.9191 32.2487 15.7397C32.6803 15.5604 32.9817 15.0749 33.3383 14.7224C34.5989 13.474 35.4179 11.9963 35.6632 10.2428C36.0315 7.61476 35.303 5.30264 33.3772 3.44919C30.2839 0.472259 25.6892 0.447274 22.5389 3.35639C21.3615 4.44329 20.2584 5.60782 19.1208 6.73577C18.633 7.21944 18.3588 7.22122 17.8773 6.74202C16.8257 5.69617 15.7786 4.64675 14.7252 3.60357C12.7577 1.65464 10.3794 0.847946 7.64451 1.3557C2.33308 2.34177 -0.346614 8.17159 2.21362 12.8503C2.8263 13.9684 3.75031 14.8206 4.64444 15.6987C4.72227 15.7745 4.88336 15.7924 5.00644 15.7942C5.71686 15.8031 6.42729 15.7986 7.13771 15.7986C7.47165 15.7986 7.80469 15.7986 8.13502 15.7986C8.24904 15.3007 8.35221 14.8501 8.45629 14.3994C8.90517 12.4451 9.35676 10.4917 9.80202 8.53746C9.87532 8.21532 10.04 7.97795 10.3894 7.95832C10.7568 7.93779 10.9577 8.16534 11.0563 8.49463C11.0799 8.57405 11.107 8.65258 11.1333 8.732C12.0953 11.6268 13.0573 14.5208 14.0202 17.4147C14.0546 17.5191 14.1017 17.6191 14.1695 17.7859C14.2075 17.669 14.2247 17.628 14.2347 17.5852C14.6003 15.9646 14.9641 14.345 15.3297 12.7244C15.4039 12.3952 15.5225 12.0989 15.9279 12.0686C16.3261 12.0382 16.4981 12.2925 16.6284 12.6147C17.0248 13.5945 17.4275 14.5725 17.8411 15.5443C17.8855 15.6487 18.0221 15.7835 18.1207 15.787C18.709 15.8102 19.2981 15.7986 19.9172 15.7986V15.7978ZM5.94764 17.0149C10.1776 21.2349 14.3279 25.3746 18.4963 29.533C22.6774 25.3612 26.8232 21.2233 31.0405 17.0149C30.14 17.0149 29.3599 17.0167 28.5798 17.0149C28.0305 17.0132 27.9173 16.9382 27.711 16.4447C27.5065 15.9539 27.3038 15.4631 27.0847 14.9357C27.0449 15.0098 27.025 15.0366 27.0151 15.066C26.5146 16.6 26.0087 18.1313 25.5218 19.6688C25.4259 19.9722 25.2485 20.1364 24.9435 20.1677C24.6476 20.198 24.4702 20.0285 24.3698 19.7741C24.3046 19.609 24.2458 19.4404 24.2005 19.2691C23.6702 17.2496 23.1426 15.2293 22.6141 13.2099C22.5018 12.7798 22.3869 12.3496 22.2738 11.9186C22.1769 12.0454 22.1407 12.1649 22.1091 12.2854C21.7489 13.6623 21.3914 15.0401 21.0294 16.4171C20.9099 16.8722 20.7362 17.0114 20.2701 17.014C19.3914 17.0194 18.5117 17.0096 17.633 17.0185C17.2556 17.0221 17.0284 16.8561 16.8954 16.5152C16.7017 16.0173 16.4918 15.5256 16.2854 15.033C16.2537 14.9571 16.2076 14.8875 16.137 14.7581C15.7234 16.5902 15.3288 18.349 14.9288 20.107C14.8275 20.5532 14.6175 20.7754 14.2953 20.7682C13.9053 20.7602 13.727 20.5085 13.6374 20.1694C13.622 20.1123 13.5985 20.057 13.5804 20.0008C12.6157 17.0952 11.6518 14.1897 10.6871 11.2842C10.6527 11.1815 10.6102 11.0825 10.5387 10.8942C10.498 11.0441 10.4835 11.0878 10.4735 11.1325C10.0744 12.8663 9.67803 14.6011 9.27622 16.3341C9.14318 16.907 9.0011 17.0149 8.40832 17.0167C7.62822 17.0194 6.84901 17.0167 5.94673 17.0167L5.94764 17.0149Z" fill="#006FFF"/>
</svg>
