<svg width="21" height="18" viewBox="0 0 21 18" fill="none" xmlns="http://www.w3.org/2000/svg">
<path fill-rule="evenodd" clip-rule="evenodd" d="M18.3644 0.154504C18.5975 0.0105824 18.8759 -0.0350639 19.1411 0.027145C19.4063 0.0893539 19.6377 0.254581 19.7868 0.488148L20.8283 2.11858C20.9641 2.33157 21.0222 2.58695 20.9924 2.83963C20.9625 3.09231 20.8467 3.32605 20.6652 3.49959L20.6621 3.50391L20.6474 3.51794L20.5874 3.57517L20.3507 3.80732C19.0409 5.1113 17.7708 6.4566 16.5422 7.84129C14.2308 10.45 11.4859 13.8642 9.63844 17.1769C9.12293 18.1011 7.86359 18.2998 7.11662 17.5019L0.29391 10.2265C0.196136 10.1222 0.119791 9.99875 0.0694146 9.86357C0.0190379 9.72838 -0.00434247 9.58418 0.000662924 9.43954C0.00566832 9.29489 0.0389574 9.15276 0.0985515 9.02158C0.158146 8.8904 0.242828 8.77286 0.347566 8.67594L2.40963 6.76693C2.59084 6.59925 2.82321 6.50143 3.06695 6.4902C3.31069 6.47898 3.55065 6.55504 3.74577 6.70538L7.22709 9.38426C12.6653 3.88074 15.7489 1.76874 18.3644 0.154504Z" fill="#0056F4"/>
</svg>
