<?xml version="1.0" encoding="UTF-8"?>
<svg xmlns="http://www.w3.org/2000/svg" version="1.1" viewBox="0 0 29 29">
  <defs>
    <style>
      .cls-1 {
        fill: #006fff;
      }
    </style>
  </defs>
  <!-- Generator: Adobe Illustrator 28.6.0, SVG Export Plug-In . SVG Version: 1.2.0 Build 709)  -->
  <g>
    <g id="Capa_1">
      <path class="cls-1" d="M12.5,22.5c.3,0,.3,0,.3-.4,0-.8,0-1.7,0-2.5,0-.4-.1-.5-.4-.5-2.1-.5-3.8-1.5-5.2-3.1C2.4,10.5,5.2,1.9,12.3.2c5.4-1.2,10.7,2.3,11.7,7.8.9,5.1-2.4,10-7.5,11.1-.3,0-.4.2-.4.5,0,.8,0,1.6,0,2.4,0,.3.1.4.4.4.9,0,1.8,0,2.6,0,1,0,1.6.6,1.8,1.5.1.9-.5,1.7-1.3,1.8-.8,0-1.7,0-2.6,0-.1,0-.3,0-.4,0-.4,0-.5,0-.5.5,0,.4,0,.9,0,1.4-.1.8-.8,1.4-1.6,1.4-.8,0-1.5-.6-1.6-1.4,0-.5,0-1,0-1.4,0-.3,0-.4-.4-.4-.9,0-1.8,0-2.6,0-1,0-1.7-.6-1.8-1.5-.1-.8.5-1.7,1.3-1.8.6,0,2.7,0,3.2,0ZM14.5,16.1c3.5,0,6.4-2.8,6.4-6.4,0-3.5-2.8-6.4-6.4-6.4-3.5,0-6.4,2.8-6.4,6.4,0,3.5,2.8,6.4,6.4,6.4Z"/>
    </g>
  </g>
</svg>