<?xml version="1.0" encoding="UTF-8"?>
<svg xmlns="http://www.w3.org/2000/svg" version="1.1" viewBox="0 0 25 25">
  <defs>
    <style>
      .cls-1 {
        fill: #fff;
      }
    </style>
  </defs>
  <!-- Generator: Adobe Illustrator 28.6.0, SVG Export Plug-In . SVG Version: 1.2.0 Build 709)  -->
  <g>
    <g id="Capa_1">
      <path class="cls-1" d="M19.1,25h-1.2s0,0-.1,0c-.8,0-1.6-.2-2.3-.5-.7-.3-1.5-.2-2.2,0-.4.1-.8.3-1.2.4-.4,0-.8.1-1.1.2h-1.3c-.7-.1-1.3-.4-1.8-.9-.8-.7-1.5-1.6-2-2.5-.1-.2-.3-.3-.5-.3-.4,0-.8,0-1.2,0-1.9,0-3.4-1.3-3.9-3.1,0-.2,0-.4-.1-.5v-4.9s0,0,0-.1c0-.6.3-1.1.6-1.6.9-1.3,2.1-1.9,3.6-1.9.2,0,.3,0,.4-.3.4-.7.9-1.3,1.7-1.7,1.7-.9,3.4-.8,5.1,0,.5.3,1,.6,1.5.9.2,0,.3.2.5.2,0-.7.1-1.4.2-2.1-.2,0-.5,0-.7-.1-2.5-.4-4.5-2.7-4.5-5.3,0-.5.2-.8.7-.8,2.6-.4,5.1,1.2,6,3.7,0,0,0,.2,0,.3,1.1-.7,2.2-1,3.4-1,.4,0,.8.3.8.7,0,.4-.3.7-.7.8-.5,0-1,.1-1.5.2-.7.2-1.4.5-1.8,1.2-.4.8-.5,1.6-.5,2.5.1,0,.2,0,.3-.1.3-.2.7-.4,1-.6,1-.7,2.1-1.1,3.4-1.1,1.4,0,2.7.4,3.6,1.5.5.6.9,1.3,1.1,2.1.5,1.7.6,3.5.4,5.3-.3,2.4-1,4.6-2.3,6.6-.9,1.4-1.9,2.6-3.6,2.9h0ZM7.3,21.3c.5.8,1.1,1.6,2,2,.2,0,.5.2.7.2.9,0,1.9,0,2.8-.4,1.1-.4,2.2-.4,3.3,0,.8.3,1.6.4,2.5.4.6,0,1.1-.2,1.6-.6.6-.5,1-1.1,1.4-1.7,1.2-2.1,2-4.4,2.1-6.9,0-1.3,0-2.7-.5-4-.4-1.1-1-1.9-2.1-2.2-.9-.2-1.7-.2-2.6.1-.6.2-1.1.6-1.7.9-1.1.7-2.3.9-3.5.5-.6-.2-1.2-.6-1.8-.9-.8-.5-1.7-.7-2.6-.7-1.3,0-2.3.7-2.8,1.9-.3.8-.5,1.6-.6,2.4,0,.3,0,.6,0,.9h11.6c1,0,1.6.6,1.6,1.6,0,1.6,0,3.3,0,4.9,0,.2,0,.3,0,.5-.2.7-.8,1.1-1.6,1.1-3.1,0-6.1,0-9.2,0h-.3ZM1.5,14.3c0,1.1,0,2.1,0,3.2,0,.1,0,.3,0,.4.3,1.2,1.3,2,2.7,2,4.1,0,8.3,0,12.4,0h.3v-5.1h-3.3c0,.2,0,.3,0,.5,0,.2,0,.5,0,.7,0,.4-.4.6-.7.6-.4,0-.7-.3-.7-.6,0-.3,0-.5,0-.8,0-.1,0-.3,0-.4h-2.2c0,.4,0,.7,0,1.1,0,.3-.2.6-.5.7-.5.2-1-.2-1-.7,0-.4,0-.7,0-1.1h-2s0,0-.2,0c0,.3,0,.7,0,1,0,.5-.3.8-.7.8-.4,0-.7-.3-.7-.8,0-.3,0-.7,0-1-1.1-.1-2.3.2-3.3-.4h0ZM13.9,4.8c-.2-1.8-2.1-3.4-3.9-3.2.3,1.8,2,3.3,3.9,3.2ZM4,10.7c-.7,0-1.9.6-2.1,1.2,0,0,0,0,0,.1,0,.5.3,1,.8,1.1.3,0,.7,0,1,0,.1-.9.2-1.7.3-2.6Z"/>
    </g>
  </g>
</svg>