<?xml version="1.0" encoding="UTF-8"?>
<svg xmlns="http://www.w3.org/2000/svg" version="1.1" viewBox="0 0 178 43">
  <defs>
    <style>
      .cls-1 {
        fill: #fff;
      }
    </style>
  </defs>
  <!-- Generator: Adobe Illustrator 28.6.0, SVG Export Plug-In . SVG Version: 1.2.0 Build 709)  -->
  <g>
    <g id="Capa_1">
      <path class="cls-1" d="M1.9,17h0c-.1,1.6-.2,3.2-.2,4.8s0,2.4,0,3.6c-1,0-1.9-1.3-1.9-2.9v-2.6c0-1.6.8-2.9,1.9-2.9Z"/>
      <path class="cls-1" d="M9.5,11.7c.2-3,.5-5.7.9-7.9h-1.8c-.9,0-1.8,3-2.3,7.9h3.1Z"/>
      <path class="cls-1" d="M9.1,21c0-2.7,0-5.5.2-8.1h-3.2c-.2,2.4-.3,5.2-.3,8.3,0,10.3,1.5,17.5,2.8,17.5h1.8c-.8-4.3-1.3-11.1-1.3-17.6h0Z"/>
      <path class="cls-1" d="M5.2,14.3c.1-2.2.4-4.1.7-5.7h-1.3c-.6,0-1.3,2.2-1.7,5.7h2.3Z"/>
      <path class="cls-1" d="M4.9,21.1c0-2,0-4,.2-5.8h-2.3c-.2,1.7-.3,3.7-.3,6,0,7.4,1.1,12.6,2,12.6h1.3c-.6-3.1-.9-8-.9-12.7h0Z"/>
      <path class="cls-1" d="M14.9,8.6c.4-3.9,1-7.1,1.8-8.6h-3.7c-.5,0-1.2,1.6-1.9,6-.1.8-.2,1.7-.3,2.7h4.2Z"/>
      <path class="cls-1" d="M14.8,9.9h-4.2c-.3,3.4-.5,7.2-.5,11.3,0,13.1,1.6,21.2,2.8,21.2h3.7c-1.5-3-2.4-12.3-2.4-21.2s.2-7.8.5-11.3Z"/>
      <path class="cls-1" d="M19.6,24.9c-.1,4-.5,6.8-.9,6.8s-1-4.7-1-10.4.4-10.4,1-10.4.8,2.8.9,6.8h1.2c0-.3,0-.6,0-.9-.1-3.7-.4-7.3-.8-10.9-.2-1.4-.5-5.8-1.9-5.8s-1.2,1.6-1.9,6c-.6,4.1-.9,9.5-.9,15.2,0,13.1,1.6,21.2,2.8,21.2,1.8,0,2.2-8.9,2.3-10.5,0-1,.2-1.9.2-2.9,0-1.3.1-2.6.2-4v-.2h-1.2Z"/>
      <path class="cls-1" d="M25.2,19.8v-1.1h-6.3c0,0-.1,0-.1.1-.2,1.5-.2,3.1,0,4.6,0,0,0,.1.1.1h6.3v-2.4h-4.6v-1.3h4.6Z"/>
      <path class="cls-1" d="M175.8,17h0c.1,1.6.2,3.2.2,4.8s0,2.4,0,3.6c1,0,1.9-1.3,1.9-2.9v-2.6c0-1.6-.9-2.9-1.9-2.9h0Z"/>
      <path class="cls-1" d="M168.2,11.7c-.2-3-.5-5.7-.9-7.9h1.8c.9,0,1.8,3,2.3,7.9h-3.1Z"/>
      <path class="cls-1" d="M168.5,21c0-2.7,0-5.5-.2-8.1h3.2c.2,2.4.3,5.2.3,8.3,0,10.3-1.5,17.5-2.8,17.5h-1.8c.8-4.3,1.3-11.1,1.3-17.6h0Z"/>
      <path class="cls-1" d="M172.5,14.3c-.1-2.2-.4-4.1-.7-5.7h1.3c.6,0,1.3,2.2,1.7,5.7h-2.3Z"/>
      <path class="cls-1" d="M172.7,21.1c0-2,0-4-.2-5.8h2.3c.2,1.7.3,3.7.3,6,0,7.4-1.1,12.6-2,12.6h-1.3c.6-3.1.9-8,.9-12.7h0Z"/>
      <path class="cls-1" d="M162.8,8.6c-.4-3.9-1-7.1-1.8-8.6h3.7c.5,0,1.2,1.6,1.9,6,.1.8.2,1.7.3,2.7h-4.2Z"/>
      <path class="cls-1" d="M162.9,9.9h4.2c.3,3.4.5,7.2.5,11.3,0,13.1-1.6,21.2-2.8,21.2h-3.7c1.5-3,2.4-12.3,2.4-21.2s-.2-7.8-.5-11.3Z"/>
      <path class="cls-1" d="M158.1,24.9c.1,4,.5,6.8.9,6.8s1-4.7,1-10.4-.4-10.4-1-10.4-.8,2.8-.9,6.8h-1.2c0-.3,0-.6,0-.9.1-3.7.4-7.3.8-10.9.2-1.4.5-5.8,1.8-5.8s1.2,1.6,1.9,6c.6,4.1.9,9.5.9,15.2,0,13.1-1.6,21.2-2.8,21.2-1.8,0-2.2-8.9-2.3-10.5,0-1-.2-1.9-.2-2.9,0-1.3-.1-2.6-.2-4v-.2h1.2Z"/>
      <path class="cls-1" d="M150.6,19.8l-.3-1.1h8.3c.1,0,.2,0,.2.1.3,1.5.3,3.1,0,4.6,0,0-.1.1-.3.1h-7l-.6-2.4h5.3v-1.3h-5.7Z"/>
      <path class="cls-1" d="M31.8,30.5h-2.9l-2.9-2.9v-14.4l2.9-2.9h8.6l2.9,2.9v14.4l-2.9,2.9h-1.4l1.4,2.9h-4.3l-1.4-2.9ZM36.1,24.8v-8.6l-1.4-1.4h-2.9l-1.4,1.4v8.6l1.4,1.4h2.9l1.4-1.4Z"/>
      <path class="cls-1" d="M45,27.6v-13h-1.4v-4.3h6.8v4.3h-1.1v10.1l1.4,1.4h1.4l1.4-1.4v-10.1h-1.1v-4.3h6.9v4.3h-1.4v13l-2.9,2.9h-7.2l-2.9-2.9h0Z"/>
      <path class="cls-1" d="M62.5,26.2h1.4v-11.5h-1.4v-4.3h14.4v5.2h-4.3v-.9h-4.3v2.9h5.8v4.3h-5.8v4.3h4.3v-1.4h4.3v5.8h-14.4v-4.3Z"/>
      <path class="cls-1" d="M80,24.8h4.3v.7l.7.7h3.6l1.4-1.4v-1.4l-1.4-1.4h-5.8l-2.9-2.9v-5.8l2.9-2.9h6.5l.7.7v-.7h4.3v5.2h-4.3v-.7l-.7-.2h-3.6l-1.4,1.4,1.4,1.4h5.8l2.9,2.9v7.2l-2.9,2.9h-6.5l-.7-.7v.7h-4.3v-5.8Z"/>
      <path class="cls-1" d="M97.5,26.2h1.4l2.9-11.5h-1.4v-4.3h9l4,15.9h1.4v4.3h-7.2v-4.3h1.1l-.4-1.4h-4.3l-.4,1.4h1.1v4.3h-7.2v-4.3h0ZM106.2,16.1l-1.1,4.3h2.2l-1.1-4.3Z"/>
      <path class="cls-1" d="M117.9,26.2h1.4v-11.5h-1.4v-4.3h11.5l2.9,2.9v14.4l-2.9,2.9h-11.5v-4.3ZM128,24.8v-8.6l-1.4-1.4h-2.9v11.5h2.9l1.4-1.4Z"/>
      <path class="cls-1" d="M135.4,26.2h1.4l2.9-11.5h-1.4v-4.3h9l4,15.9h1.4v4.3h-7.2v-4.3h1.1l-.4-1.4h-4.3l-.4,1.4h1.1v4.3h-7.2v-4.3h0ZM144.1,16.1l-1.1,4.3h2.2l-1.1-4.3Z"/>
      <path class="cls-1" d="M31.8,30.5h-2.9l-2.9-2.9v-14.4l2.9-2.9h8.6l2.9,2.9v14.4l-2.9,2.9h-1.4l1.4,2.9h-4.3l-1.4-2.9ZM36.1,24.8v-8.6l-1.4-1.4h-2.9l-1.4,1.4v8.6l1.4,1.4h2.9l1.4-1.4Z"/>
      <path class="cls-1" d="M45,27.6v-13h-1.4v-4.3h6.8v4.3h-1.1v10.1l1.4,1.4h1.4l1.4-1.4v-10.1h-1.1v-4.3h6.9v4.3h-1.4v13l-2.9,2.9h-7.2l-2.9-2.9h0Z"/>
      <path class="cls-1" d="M62.5,26.2h1.4v-11.5h-1.4v-4.3h14.4v5.2h-4.3v-.9h-4.3v2.9h5.8v4.3h-5.8v4.3h4.3v-1.4h4.3v5.8h-14.4v-4.3Z"/>
      <path class="cls-1" d="M80,24.8h4.3v.7l.7.7h3.6l1.4-1.4v-1.4l-1.4-1.4h-5.8l-2.9-2.9v-5.8l2.9-2.9h6.5l.7.7v-.7h4.3v5.2h-4.3v-.7l-.7-.2h-3.6l-1.4,1.4,1.4,1.4h5.8l2.9,2.9v7.2l-2.9,2.9h-6.5l-.7-.7v.7h-4.3v-5.8Z"/>
      <path class="cls-1" d="M97.5,26.2h1.4l2.9-11.5h-1.4v-4.3h9l4,15.9h1.4v4.3h-7.2v-4.3h1.1l-.4-1.4h-4.3l-.4,1.4h1.1v4.3h-7.2v-4.3h0ZM106.2,16.1l-1.1,4.3h2.2l-1.1-4.3Z"/>
      <path class="cls-1" d="M117.9,26.2h1.4v-11.5h-1.4v-4.3h11.5l2.9,2.9v14.4l-2.9,2.9h-11.5v-4.3ZM128,24.8v-8.6l-1.4-1.4h-2.9v11.5h2.9l1.4-1.4Z"/>
      <path class="cls-1" d="M135.4,26.2h1.4l2.9-11.5h-1.4v-4.3h9l4,15.9h1.4v4.3h-7.2v-4.3h1.1l-.4-1.4h-4.3l-.4,1.4h1.1v4.3h-7.2v-4.3h0ZM144.1,16.1l-1.1,4.3h2.2l-1.1-4.3Z"/>
      <path class="cls-1" d="M39.1,34.4h-6.5l-1.4-2.9h-2.7l-3.4-3.4v-15.2l3.4-3.5h9.5l3.4,3.5v15.2l-3.4,3.4h-.3l1.4,2.9ZM32.9,34h5.6l-1.4-2.9h.8l3.2-3.2v-14.9l-3.2-3.2h-9.1l-3.2,3.2v14.9l3.2,3.2h2.8l1.4,2.9ZM34.4,25.6h-2.4l-1.1-1.1v-8.2l1.1-1.1h2.4l1.1,1.1v8.2l-1.1,1.1ZM32.2,25.2h2.1l.9-.9v-7.8l-.9-.9h-2.1l-.9.9v7.8l.9.9Z"/>
      <path class="cls-1" d="M55.5,31.5h-8l-3.4-3.4v-12.4h-1.4v-6.3h8.8v6.3h-1.1v8.7l.9.9h.6l.9-.9v-8.7h-1.1v-6.3h8.8v6.3h-1.4v12.4l-3.4,3.4h0ZM47.6,31.1h7.7l3.2-3.2v-12.7h1.4v-5.4h-8v5.4h1.1v9.3l-1.1,1.1h-1l-1.1-1.1v-9.3h1.1v-5.4h-8v5.4h1.4v12.7l3.2,3.2h0Z"/>
      <path class="cls-1" d="M77.9,31.5h-16.3v-6.3h1.4v-9.6h-1.4v-6.3h16.3v7.2h-6.3v-.9h-2.4v1h5.8v6.3h-5.8v2.4h2.4v-1.4h6.3v7.7h0ZM61.9,31.1h15.5v-6.9h-5.4v1.4h-3.2v-3.2h5.8v-5.4h-5.8v-1.8h3.2v.9h5.4v-6.3h-15.5v5.4h1.4v10.4h-1.4v5.4h0Z"/>
      <path class="cls-1" d="M91.9,31.5h-12.9v-7.7h6.3v1.3l.2.2h2.8l.9-.9v-.6l-.9-.9h-5.8l-3.4-3.4v-6.6l3.4-3.5h12.9v7.2h-6.3v-.9h-3l-.5.5.5.5h5.8l3.4,3.4v8l-3.4,3.4h0ZM79.4,31.1h12.3l3.2-3.2v-7.7l-3.2-3.2h-5.8l-.9-.9.9-.9h3.3s.2,0,.2,0v.8h5.4v-6.3h-12.3l-3.2,3.2v6.2l3.2,3.2h5.8l1.1,1.1v1l-1.1,1.1h-3.1l-.4-.4v-1h-5.4v6.9Z"/>
      <path class="cls-1" d="M115.8,31.5h-9.1v-5.8h-1v5.8h-9.1v-6.3h1.6l2.4-9.6h-1.2v-6.3h10.7l4,15.9h1.6v6.3ZM107.1,31.1h8.3v-5.4h-1.6l-4-15.9h-10v5.4h1.3l-2.6,10.4h-1.6v5.4h8.3v-5.8h1.8v5.8ZM106.5,19.9h-.7l.2-.7h.4l.2.7Z"/>
      <path class="cls-1" d="M129.9,31.5h-12.9v-6.3h1.4v-9.6h-1.4v-6.3h12.9l3.4,3.5v15.2l-3.4,3.4ZM117.4,31.1h12.3l3.2-3.2v-14.9l-3.2-3.2h-12.3v5.4h1.4v10.4h-1.4v5.4ZM126.3,25.6h-2.1v-10.4h2.1l1.1,1.1v8.2l-1.1,1.1h0ZM124.7,25.2h1.5l.9-.9v-7.8l-.9-.9h-1.5v9.6Z"/>
      <path class="cls-1" d="M153.7,31.5h-9.1v-5.8h-1v5.8h-9.1v-6.3h1.7l2.4-9.6h-1.2v-6.3h10.7l4,15.9h1.6v6.3ZM145,31.1h8.3v-5.4h-1.6l-4-15.9h-10v5.4h1.3l-2.6,10.4h-1.6v5.4h8.3v-5.8h1.8v5.8ZM144.5,19.9h-.7l.2-.7h.4l.2.7Z"/>
      <path class="cls-1" d="M32,42.6c-.4.4-1,.6-1.6.6s-1.5-.3-1.9-.8c-.5-.5-.7-1.2-.7-2.2s.3-1.8.8-2.3c.5-.5,1-.7,1.8-.7s1.6.3,2.1.9c.2.4.4.7.4,1.1h-1.2c0-.3-.2-.5-.3-.6-.2-.2-.5-.4-1-.4s-.8.2-1,.5c-.3.3-.4.8-.4,1.5s.1,1.1.4,1.4c.3.3.6.5,1,.5s.7-.1.9-.4c.1-.1.2-.4.3-.7h1.2c-.1.6-.4,1.1-.8,1.5h0Z"/>
      <path class="cls-1" d="M38.9,43.2c-.8,0-1.4-.2-1.9-.7-.6-.5-.9-1.3-.9-2.3s.3-1.8.9-2.3c.4-.4,1-.7,1.9-.7s1.4.2,1.9.7c.6.5.9,1.3.9,2.3s-.3,1.8-.9,2.3c-.4.4-1,.7-1.9.7ZM40,41.7c.3-.3.4-.8.4-1.5s-.1-1.1-.4-1.5c-.3-.3-.6-.5-1.1-.5s-.8.2-1.1.5c-.3.3-.4.8-.4,1.5s.1,1.1.4,1.5c.3.3.7.5,1.1.5s.8-.2,1.1-.5h0Z"/>
      <path class="cls-1" d="M48.5,41.9h-2.1l-.4,1.2h-1.2l2-5.7h1.3l2,5.7h-1.3l-.4-1.2h0ZM48.1,40.9l-.7-2.2-.7,2.2h1.4Z"/>
      <path class="cls-1" d="M57.5,42.6c-.4.4-1,.6-1.6.6s-1.5-.3-1.9-.8c-.5-.5-.7-1.2-.7-2.2s.3-1.8.8-2.3c.5-.5,1-.7,1.8-.7s1.6.3,2.1.9c.2.4.4.7.4,1.1h-1.2c0-.3-.2-.5-.3-.6-.2-.2-.5-.4-1-.4s-.8.2-1,.5c-.3.3-.4.8-.4,1.5s.1,1.1.4,1.4c.3.3.6.5,1,.5s.7-.1.9-.4c.1-.1.2-.4.3-.7h1.2c-.1.6-.4,1.1-.8,1.5h0Z"/>
      <path class="cls-1" d="M65.2,43v-2.5h-2.2v2.5h-1.2v-5.7h1.2v2.2h2.2v-2.2h1.2v5.7h-1.2Z"/>
      <path class="cls-1" d="M79.1,38.4h-2.8v1.3h2.5v1h-2.5v2.4h-1.2v-5.7h4v1h0Z"/>
      <path class="cls-1" d="M82.5,37.4h1.2v5.7h-1.2v-5.7Z"/>
      <path class="cls-1" d="M91.5,37.4v1h-1.7v4.7h-1.2v-4.7h-1.7v-1h4.6,0Z"/>
      <path class="cls-1" d="M99.5,43h-1.2l-2.3-4v4h-1.1v-5.7h1.2l2.3,4v-4h1.1v5.7h0Z"/>
      <path class="cls-1" d="M107.2,40.6h-2.8v1.5h3.1v1h-4.3v-5.7h4.2v1h-3v1.2h2.8v1h0Z"/>
      <path class="cls-1" d="M113.2,42.2c.3,0,.5,0,.7,0,.3-.1.5-.3.5-.7s0-.3-.2-.4c-.2,0-.4-.2-.8-.3h-.6c-.6-.3-1-.4-1.2-.6-.4-.3-.6-.7-.6-1.2s.2-.9.6-1.3c.4-.3.9-.5,1.6-.5s1.1.2,1.5.5c.4.3.6.8.7,1.4h-1.1c0-.3-.2-.6-.4-.7-.2,0-.4-.1-.7-.1s-.5,0-.7.2c-.2.1-.3.3-.3.5s0,.4.3.5c.1,0,.4.1.7.2l1,.2c.4.1.8.2,1,.4.3.3.5.7.5,1.2s-.2.9-.6,1.3c-.4.3-1,.5-1.7.5s-1.3-.2-1.7-.5-.6-.8-.6-1.4h1.1c0,.3.1.5.2.6.2.2.5.3,1,.3h0Z"/>
      <path class="cls-1" d="M121.2,42.2c.3,0,.5,0,.7,0,.3-.1.5-.3.5-.7s0-.3-.2-.4c-.2,0-.4-.2-.8-.3h-.6c-.6-.3-1-.4-1.2-.6-.4-.3-.6-.7-.6-1.2s.2-.9.6-1.3c.4-.3.9-.5,1.6-.5s1.1.2,1.5.5c.4.3.6.8.7,1.4h-1.1c0-.3-.2-.6-.4-.7-.2,0-.4-.1-.7-.1s-.5,0-.7.2c-.2.1-.3.3-.3.5s0,.4.3.5c.1,0,.4.1.7.2l1,.2c.4.1.8.2,1,.4.3.3.5.7.5,1.2s-.2.9-.6,1.3c-.4.3-1,.5-1.7.5s-1.3-.2-1.7-.5c-.4-.3-.6-.8-.6-1.4h1.1c0,.3.1.5.2.6.2.2.5.3,1,.3h0Z"/>
      <path class="cls-1" d="M134.9,41.9h-2.1l-.4,1.2h-1.2l2-5.7h1.3l2,5.7h-1.3l-.4-1.2h0ZM134.6,40.9l-.7-2.2-.7,2.2h1.4Z"/>
      <path class="cls-1" d="M142.4,41h-1.2v2h-1.2v-5.7h2.5c.6,0,1,.1,1.4.4.3.3.5.7.5,1.4s-.2,1.1-.5,1.4c-.3.3-.8.4-1.4.4h0ZM142.9,39.8c.2-.1.2-.4.2-.6s0-.5-.2-.6c-.2-.1-.4-.2-.7-.2h-1.1v1.7h1.1c.3,0,.5,0,.7-.2Z"/>
      <path class="cls-1" d="M150.3,41h-1.2v2h-1.2v-5.7h2.5c.6,0,1,.1,1.4.4s.5.7.5,1.4-.2,1.1-.5,1.4-.8.4-1.4.4h0ZM150.8,39.8c.2-.1.2-.4.2-.6s0-.5-.2-.6c-.2-.1-.4-.2-.7-.2h-1.1v1.7h1.1c.3,0,.5,0,.7-.2Z"/>
    </g>
  </g>
</svg>