<svg width="29" height="29" viewBox="0 0 29 29" fill="none" xmlns="http://www.w3.org/2000/svg">
<path d="M17.9777 9.11805C18.1003 9.0049 18.204 8.91375 18.3025 8.81527C20.314 6.80685 22.3255 4.79843 24.4082 2.71668C24.1756 2.69677 24.0332 2.67477 23.8907 2.67372C22.5989 2.67058 21.3072 2.67896 20.0164 2.66848C19.2538 2.6622 18.6838 2.24417 18.5634 1.63546C18.3884 0.756451 18.9636 0.0136397 19.8666 0.00944894C22.5025 -0.00312332 25.1374 -0.00207563 27.7733 0.00630587C28.4553 0.00840125 28.9927 0.554247 28.9948 1.24153C29.0022 3.87751 29.0022 6.51245 28.9917 9.14843C28.9886 9.8441 28.5066 10.3763 27.8707 10.4476C27.1269 10.5303 26.5643 10.1553 26.3914 9.43236C26.3359 9.19872 26.3307 8.94937 26.3296 8.70631C26.3244 7.36946 26.3265 6.03366 26.3265 4.71566C24.1934 6.85085 22.0803 8.96509 19.9358 11.1108C21.8907 13.7038 22.6241 16.6949 22.0248 19.9637C21.5104 22.7715 20.0636 25.0513 17.7829 26.7726C13.2758 30.1734 6.90821 29.6224 3.03294 25.5133C-0.863288 21.3823 -1.02567 15.0406 2.66207 10.6739C6.25238 6.4213 12.883 5.28142 17.9777 9.11805ZM19.5565 17.9019C19.5743 13.2218 15.8195 9.45541 11.1282 9.44493C6.45772 9.43445 2.70292 13.1569 2.68197 17.8191C2.66102 22.5389 6.36133 26.2991 11.0475 26.319C15.7839 26.3389 19.5387 22.6248 19.5565 17.9019Z" fill="#006FFF"/>
</svg>
