<?xml version="1.0" encoding="UTF-8"?>
<svg xmlns="http://www.w3.org/2000/svg" version="1.1" viewBox="0 0 52 53">
  <defs>
    <style>
      .cls-1 {
        fill: #006fff;
      }
    </style>
  </defs>
  <!-- Generator: Adobe Illustrator 28.6.0, SVG Export Plug-In . SVG Version: 1.2.0 Build 709)  -->
  <g>
    <g id="Capa_1">
      <path class="cls-1" d="M23,25.1c1.4-1.3,2.6-1.4,4.1-.1.6-.6,1.2-1,2.1-1,.9,0,1.6.4,2.1,1.1.1,0,.2-.1.3-.2.8-.6,1.7-.8,2.7-.4,1,.4,1.5,1.2,1.6,2.3,0,1.2.1,2.5.1,3.8,0,1.1-.4,1.9-1.3,2.4-.9.5-1.8.5-2.7,0,0,0,0,0-.2,0-.5,1-1.2,1.6-2.3,1.7-1.1,0-1.9-.4-2.5-1.3-1.4,1-2.7,1.9-4,2.8.5.8,1.2,1.6,1.6,2.4,1,2,.7,4.1-.1,6.1-.1.3-.4.5-.8.3-.4-.2-.4-.4-.3-.8.4-1.1.7-2.2.6-3.5-.2-1.7-1-3-2.3-4-.7-.6-.7-.9.1-1.4,1.4-.9,2.8-1.8,4.1-2.8.6-.4,1-1.1,1.4-1.8.4-.9.1-1.4-.9-1.4-1,0-2,0-3,.3-1.4.4-2.8.8-4.2,1.4-.7.3-1.3.8-1.8,1.3-.8.8-.7,1.8-.6,2.8.2,1.4,1,2.7,1.6,3.9,1.4,2.8,2.4,5.8,2.3,9,0,.7,0,1.4-.1,2.1,0,.4-.2.8-.6.7-.5,0-.5-.4-.5-.8.3-2.4.2-4.7-.6-7-.6-1.7-1.4-3.3-2.2-4.9-.6-1.2-1-2.5-1.1-3.9,0-1.8,1-2.9,2.4-3.8.3-.2.4-.4.4-.8,0-.8,0-1.6,0-2.4,0-1.2.4-2,1.5-2.5,1.1-.5,2.1-.3,2.9.5,0,0,0,0,.1.1h0ZM28.6,25.2c0,0-.2.1-.4.2-.5.4-.9,2.4-.5,2.9,0,0,.1,0,.2.1.7.5.9,1.1.7,1.9-.1.5-.4,1-.6,1.5,0,.2-.1.5,0,.7.2.6.9,1,1.6.9.7-.1,1.2-.7,1.2-1.4,0-1.8,0-3.7-.2-5.6,0-.9-1-1.5-1.9-1.2h0ZM34.7,26.7c-.2-.8-.8-1.3-1.5-1.2-.7,0-1.3.6-1.4,1.3,0,.2,0,.4,0,.6,0,1.1,0,2.3.1,3.4,0,.9.7,1.5,1.5,1.5.8,0,1.4-.7,1.4-1.5,0-.3,0-.7,0-1,0-1.1,0-2.1-.1-3h0ZM22.5,28.5c0-.7,0-1.3,0-1.9,0-.7-.7-1.2-1.4-1.3-.7,0-1.4.4-1.5,1.1,0,1,0,2,0,3.1,1.1-.3,2-.6,2.9-.9ZM26.6,27.9c0-.4,0-.9,0-1.3,0-.8-.7-1.4-1.5-1.4-.8,0-1.4.6-1.4,1.4,0,.5,0,1.1,0,1.6,1,0,2-.2,2.9-.3h0Z"/>
      <path class="cls-1" d="M40.7,32.7c-1.1,0-2.2,0-3.3,0-.4,0-1,0-1-.5,0-.6.5-.6,1-.6,1.1,0,2.2,0,3.3,0,0-.8,0-1.7,0-2.5-.7,0-1.4,0-2.2,0-.3,0-.7,0-1,0-.4,0-.8,0-.8-.6,0-.5.4-.6.8-.6,1,0,2.1,0,3.1,0,0-1.6,0-3.1,0-4.7,0-.3,0-.5,0-.8,0-1.2.9-2,2.1-2,1,0,2,0,3,0,1.4,0,2.2.8,2.2,2.2,0,1.2,0,2.4,0,3.7.2,0,.5,0,.7,0,1.3,0,2.2.8,2.2,2.2,0,1.1,0,2.3,0,3.4,0,1.5-.8,2.3-2.3,2.4-.2,0-.4,0-.6,0,0,1.2,0,2.3,0,3.4,0,1.6-.8,2.4-2.4,2.4-.9,0-1.7,0-2.6,0-1.4,0-2.2-.8-2.2-2.2,0-1.7,0-3.3,0-5,0,0,0-.1,0-.3h0ZM46.9,22.4c-.1-.6-.5-.8-1-.8-1,0-2,0-2.9,0-.7,0-1.1.4-1.1,1.1,0,5.1,0,10.2,0,15.3,0,.8.4,1.1,1.1,1.1.9,0,1.8,0,2.7,0,.8,0,1.2-.3,1.2-1.2,0-5,0-10,0-15,0-.2,0-.3,0-.4h0Z"/>
      <path class="cls-1" d="M12.9,28c.8,0,1.6,0,2.3,0,.1,0,.3,0,.4,0,.3,0,.6.2.6.6,0,.4-.3.5-.6.6-.7,0-1.5,0-2.2,0-.2,0-.4,0-.6,0,0,.8,0,1.7,0,2.5.5,0,1,0,1.4,0,.4,0,.7.1.7.5,0,.4-.3.6-.7.6-.5,0-.9,0-1.4,0,0,1.7,0,3.4,0,5.1,0,1.7-.8,2.4-2.4,2.4-.9,0-1.8,0-2.7,0-1.3,0-2.1-.9-2.2-2.2,0-1.2,0-2.4,0-3.7-.3,0-.5,0-.8,0-1.2,0-2.1-.9-2.1-2.1,0-1.2,0-2.4,0-3.6,0-1.4.8-2.2,2.2-2.2.2,0,.4,0,.7,0,0-1.2,0-2.3,0-3.4,0-1.7.8-2.5,2.4-2.5.9,0,1.7,0,2.6,0,1.4,0,2.2.9,2.2,2.3,0,1.6,0,3.3,0,5,0,0,0,.1,0,.3h0ZM6.8,38.3c.2.7.6.9,1.1.9.9,0,1.8,0,2.7,0,.9,0,1.2-.3,1.2-1.2,0-1.9,0-3.7,0-5.6,0-3.2,0-6.3,0-9.5,0-.9-.3-1.3-1.3-1.3-.8,0-1.6,0-2.5,0-1,0-1.3.3-1.3,1.3,0,4.7,0,9.3,0,13.9,0,.5,0,1,0,1.4h0Z"/>
      <g>
        <path class="cls-1" d="M27.7,1.3c-.3-.5-.7-.4-1.1,0-.4.5-.8,1.1-1.1,1.6-1.4,2-2.8,3.9-4.2,5.9-.1.2-.3.6-.2.8.1.2.5.3.8.3.7,0,1.5,0,2.2,0,.3,0,.5,0,.8,0,0,.8,0,1.6,0,2.4,0,2.5,0,4.8,0,7.3,0,.4,0,.8.4.9,0,0,0,0,0,0h0s3.7,0,3.7,0h0c.4,0,.5-.3.5-.7,0,0,0-.2,0-.3,0-3.2,0-6.4,0-9.7h0c.2,0,.3,0,.5,0,.9,0,1.8,0,2.7,0,.6,0,.8-.5.5-1-1.8-2.6-3.7-5.1-5.5-7.6Z"/>
        <path class="cls-1" d="M14.5,7.4c-.4-.5-.8-.5-1.2,0-1.4,1.9-2.8,3.9-4.2,5.8-.1.2-.3.6-.2.7.1.2.5.3.7.3.7,0,1.4,0,2.2,0h0c0,1.1,0,1.9,0,2.9,0,.4,0,.8.6.8,0,0,0,0,0,0h0s2.8,0,2.8,0c.2,0,.4-.3.5-.5,0-.2,0-.5,0-.8,0-.8,0-1.7,0-2.5.8,0,1.5,0,2.3,0,.2,0,.6-.1.7-.3,0-.2,0-.5-.1-.7-1.4-1.9-2.8-3.9-4.2-5.8Z"/>
        <path class="cls-1" d="M46.1,13.2c-1.4-1.9-2.8-3.9-4.2-5.8-.4-.5-.8-.5-1.2,0-1.4,1.9-2.8,3.9-4.2,5.8-.1.2-.3.6-.2.7.1.2.5.3.7.3.7,0,1.4,0,2.2,0h0c0,1.1,0,1.9,0,2.9,0,.4,0,.8.6.8,0,0,0,0,0,0h0s2.8,0,2.8,0c.2,0,.4-.3.5-.5,0-.2,0-.5,0-.8,0-.8,0-1.7,0-2.5.8,0,1.5,0,2.3,0,.2,0,.6-.1.7-.3,0-.2,0-.5-.1-.7Z"/>
      </g>
      <path class="cls-1" d="M35.8,35.7c0,.6,0,1.2-.2,1.7-.4,1-.7,2-1.3,2.8-1.5,2.2-2.2,4.5-2,7.2,0,.8,0,1.6,0,2.4,0,.3-.2.6-.5.6-.3,0-.6-.2-.6-.5,0-2.1-.3-4.3.4-6.4.4-1.1.9-2.3,1.5-3.3.8-1.3,1.5-2.6,1.6-4.2,0-.2.3-.5.5-.5.2,0,.4.2.6.3h0Z"/>
    </g>
  </g>
</svg>