<svg width="31" height="34" viewBox="0 0 31 34" fill="none" xmlns="http://www.w3.org/2000/svg">
<path d="M6.89279 5.80006C4.7088 5.89926 3.36 6.20646 2.4064 7.16166C1 8.56966 1 10.8369 1 15.3697V23.384C1 27.9168 1 30.184 2.4064 31.592C3.8112 33 6.07519 33 10.6 33H20.2C24.7248 33 26.9888 33 28.3936 31.592C29.7984 30.184 29.8 27.9168 29.8 23.384V15.3681C29.8 10.8353 29.8 8.56806 28.3936 7.16006C27.44 6.20486 26.0896 5.89606 23.9072 5.79846" stroke="#006FFF" stroke-width="2" stroke-linecap="round" stroke-linejoin="round"/>
<path d="M12.2001 26.6H18.6001M14.6001 13.8L16.2001 8.99999M7.44012 8.26399C6.67213 5.256 6.28813 3.752 6.91212 2.648C7.07933 2.35393 7.2921 2.08823 7.54252 1.8608C8.48492 1 10.0705 1 13.2401 1H17.5601C20.7297 1 22.3153 1 23.2577 1.8608C23.5089 2.0896 23.7217 2.3568 23.8881 2.6496C24.5121 3.7536 24.1281 5.2576 23.3601 8.26559C22.7457 10.6624 22.4401 11.8608 21.6209 12.6496C21.3969 12.8661 21.151 13.0544 20.8833 13.2144C19.9009 13.8 18.6369 13.8 16.1105 13.8H14.6897C12.1617 13.8 10.8977 13.8 9.91692 13.2144C9.65138 13.0547 9.40451 12.8657 9.18092 12.6512C8.36012 11.8608 8.05292 10.6624 7.44012 8.26399Z" stroke="#006FFF" stroke-width="2" stroke-linecap="round" stroke-linejoin="round"/>
</svg>
