<?xml version="1.0" encoding="UTF-8"?>
<svg xmlns="http://www.w3.org/2000/svg" version="1.1" viewBox="0 0 56.7 92.9">
  <defs>
    <style>
      .cls-1 {
        fill: #006fff;
      }
    </style>
  </defs>
  <!-- Generator: Adobe Illustrator 28.6.0, SVG Export Plug-In . SVG Version: 1.2.0 Build 709)  -->
  <g>
    <g id="Capa_1">
      <g>
        <path class="cls-1" d="M47.9,78c-.2,0-.3,0-.5-.1-.1,0-.2-.2-.2-.5s0-.1,0-.2c0-.6.2-.7,1.1-1,.2,0,.6-.2,1-.4,1-.4,1.5-2,1.5-3.4,0-.9-.3-1.3-.4-1.3-.3,0-1,.4-1.4,2.9-.2,1-.4,1.5-.8,1.6-.3.1-.6,0-1-.3-.4-.4-.3-.9,0-1.6.2-.7.5-1.7.5-3.1,0-2.3.8-4,1.6-5.6.2-.4.3-.7.5-1,.7-1.6.3-3.3-.7-6.9v-.4c-1.4-3.8-2.8-14.8-3.3-19.4v-.2c-.1-.9-.6-3.4-.9-5.2-.5,2.5-1.6,5.9-2,6.9l-.2.5c-.5,1.5-1.8,5.1-1.2,6.9.7,2.1.9,7.2.9,7.4,0,0,0,.2,0,.3,0,0,0,0-.1,0-.1,0-.3,0-.4,0,0,0-.1-.2,0-.3,0-.7-.2-5.2-.9-7.1-.7-2,.6-5.6,1.2-7.3l.2-.5c.4-1.3,2.2-6.9,2.3-8.8,0-.2.1-.3.3-.3.2,0,.3.1.4.3,0,.2,1.1,5.7,1.2,7.2v.2c.6,4.5,1.9,15.4,3.2,19.2v.5c1.1,3.7,1.6,5.5.8,7.4-.2.4-.3.7-.5,1.1-.7,1.5-1.5,3.1-1.5,5.3s-.3,2.6-.6,3.3c0,.3-.3.8-.2.9.2.1.3.2.3.1,0,0,.2,0,.4-1.1.3-1.5.8-3.5,2.1-3.5s.8.2,1,1.2c.3,1.6-.2,4.1-1.8,4.8-.4.2-.7.3-1,.4-.3.1-.6.2-.7.3,0,0,0,0,0,0,0,0,0,.1,0,.2h0c.2,0,.7-.1,1-.2.4-.1.9-.3,1.3-.3,1.1-.2,2.2-1.2,2.8-2.6.5-1.3,1.1-3.1.7-5.6-.5-3.2-.6-7-.3-10.4v-.7c.6-4.2,1.5-11.9-.2-18.2-.1-.8-.1-2.1-.1-3.6,0-3.2,0-7.7-1.2-10.6,0,0,0-.2,0-.2,0,0,2.7-9.1-2.8-12-3.1-1.6-5.5-2.5-7.5-3.2-1.8-.6-3-1.1-3.9-1.8-2.2-1.7-3.3-3.9-3.3-6.6s.2-.3.3-.3.3.2.3.3c0,2.5,1,4.5,3,6,.8.6,2,1.1,3.8,1.7,2,.7,4.5,1.6,7.6,3.3,5.7,3,3.5,11.5,3.2,12.7,1.2,3,1.2,7.5,1.2,10.7,0,1.5,0,2.7.1,3.4,1.7,6.4.8,14.2.3,18.4v.7c-.5,3.3-.4,7.1.2,10.2.5,2.7-.1,4.7-.7,6-.7,1.6-2,2.8-3.4,3-.4,0-.8.2-1.2.3-.5.1-.9.3-1.2.3Z"/>
        <path class="cls-1" d="M8.2,78.3c-1.6,0-3.9-.7-5.4-3.7-1.5-3-.9-5.8-.3-9.1l.2-.8c.4-2.2,0-6.9-.4-10.7-.2-2.2-.4-4.1-.4-5.3,0-3.1,2.2-11.3,2.5-12.1-.6-7.9,1.6-11.7,2.2-12.6-.4-.6-1.5-2.5-1.5-5.3,0-5.3,5.7-7.4,11.7-9.7.6-.2,1.2-.5,1.8-.7,6.1-2.3,4.9-6.8,4.9-7,0-.2,0-.4.2-.4.2,0,.4,0,.4.2,0,0,1.4,5.3-5.3,7.8-.6.2-1.2.5-1.9.7-5.8,2.1-11.3,4.1-11.3,9s1.5,5,1.5,5c.1.1.1.3,0,.4,0,0-2.9,3.7-2.2,12.4,0,0,0,0,0,.1,0,0-2.4,8.9-2.4,12s.2,3,.4,5.2c.4,4,.9,8.6.4,10.9l-.2.8c-.6,3.2-1.2,5.9.2,8.7,1.2,2.3,2.8,3.4,4.9,3.4.2,0,.3,0,.4,0-.4-.4-1.9-1.4-2.4-1.7,0,0-1-.6-1-3s0-.6,0-.9c0-1.1,0-1.5.3-1.9.2-.2.5-.3.9-.3s.4,0,.6.3c.5.5.6,1.8.5,3v.3q0,.7.4.7c.2-.2.2-.7.2-1,0-1.6.1-6-.5-7.2-.1-.2-.2-.4-.4-.7-.7-1.3-1.5-2.6-.8-5.3.1-.5.3-1.2.5-1.9,1.1-4,2.9-10.7,2.8-14.5-.2-4.6,2.7-13.3,2.8-13.6,0-.1.2-.2.3-.2.1,0,.3,0,.3.2.2.4,3.7,8.7,3.6,12.5,0,2-.3,4.1-.4,6-.2,1.8-.3,3.5-.3,4.8s-.2.3-.3.3-.3-.2-.3-.3c0-1.3.2-3,.4-4.9.2-2,.4-4,.4-5.9,0-3-2.3-9.1-3.2-11.4-.7,2.4-2.6,8.9-2.5,12.5.2,3.9-1.7,10.6-2.8,14.7-.2.8-.4,1.4-.5,1.9-.6,2.5,0,3.6.7,4.8.1.2.3.4.4.7.8,1.6.6,7.2.6,7.5,0,.1.1,1-.3,1.4-.2.2-.4.3-.6.3-1.1,0-1.1-.7-1.1-1.4v-.3c0-.6,0-2.1-.3-2.5,0,0,0,0-.1,0-.3,0-.3,0-.4,0-.1.1,0,.7,0,1.4,0,.3,0,.6,0,.9,0,2,.6,2.4.6,2.4,2.4,1.5,2.9,2,2.8,2.5-.1.4-.6.5-1.1.5,0,0-.1,0-.2,0Z"/>
        <path class="cls-1" d="M18.4,30.7c-4.3,0-5.4-4-5.4-4.1,0-.2,0-.4.3-.4.2,0,.4,0,.4.3,0,.1,1,3.5,4.8,3.5s5.1-.9,5.1-.9c.1-.1.4,0,.5,0,.1.1,0,.4,0,.5,0,0-1.4,1.1-5.6,1.1Z"/>
        <path class="cls-1" d="M39,30.6c-4.2,0-5.5-1-5.6-1.1-.1-.1-.2-.3,0-.5.1-.1.3-.2.5,0,0,0,1.3.9,5.1.9s4.7-3.4,4.8-3.5c0-.2.2-.3.4-.3.2,0,.3.2.3.4,0,0-1.1,4.1-5.4,4.1Z"/>
        <path class="cls-1" d="M25,12.7s0,0,0,0l-5.8-.8c-.2,0-.3-.2-.3-.4,0-.2.2-.3.4-.3l5.8.8c.2,0,.3.2.3.4,0,.2-.2.3-.3.3Z"/>
        <path class="cls-1" d="M33.6,12.7c-.2,0-.3-.1-.3-.3,0-.2.1-.4.3-.4l5.3-.8c.2,0,.4.1.4.3,0,.2-.1.4-.3.4l-5.3.8s0,0,0,0Z"/>
        <path class="cls-1" d="M36.9,39.6s0,0,0,0c-.2,0-.3-.2-.3-.4.5-2.5-1.1-3.2-1.2-3.2-.2,0-.3-.3-.2-.4,0-.2.3-.3.4-.2,0,0,2.3.8,1.6,4,0,.2-.2.3-.3.3Z"/>
        <path class="cls-1" d="M20.7,39.6c-.2,0-.3-.1-.3-.3-.7-3.2,1.6-4,1.6-4,.2,0,.4,0,.4.2,0,.2,0,.4-.2.4,0,0-1.7.7-1.2,3.2,0,.2,0,.4-.3.4,0,0,0,0,0,0Z"/>
        <path class="cls-1" d="M37.7,74.6c-2.5,0-5.5-.3-9-1.1-1,.2-9.5,2-16.2,0-.1,0-.2-.2-.2-.3,0-.1-.8-12.5,3.2-20.2,0-.1.2-.2.4-.2,0,0,6.9,1.8,12.5,1.8s13.6-1.4,13.6-1.4c.1,0,.3,0,.4.2.2.3,4.4,7,3.2,19.8,0,.1,0,.2-.2.3-.2,0-2.8,1.1-7.6,1.1ZM28.7,72.8s0,0,0,0c9.3,2.2,15,.5,16.1,0,1-11.2-2.3-17.8-3-18.9-1.4.2-8.4,1.4-13.5,1.4s-11-1.4-12.4-1.8c-3.5,7-3.1,17.6-3,19.3,6.7,1.9,15.6,0,15.7,0,0,0,0,0,0,0Z"/>
        <path class="cls-1" d="M29,71.9c-2.5,0-5.4-3.9-5.6-4.1-.1-.2,0-.4,0-.5.2-.1.4,0,.5,0,0,0,2.9,3.8,5,3.8s5.5-3.8,5.5-3.8c.1-.1.3-.2.5,0,.1.1.2.3,0,.5-.1.2-3.6,4.1-6,4.1Z"/>
        <path class="cls-1" d="M16.1,92c-.1,0-.3,0-.3-.2-2.4-6.6-3.4-18.4-3.4-18.5,0-.2.1-.4.3-.4.2,0,.4.1.4.3,0,.1,1,11.8,3.4,18.3,0,.2,0,.4-.2.4,0,0,0,0-.1,0Z"/>
        <path class="cls-1" d="M41.6,92s0,0-.1,0c-.2,0-.3-.3-.2-.4,2.4-6.6,3.4-18.2,3.4-18.3,0-.2.2-.3.4-.3.2,0,.3.2.3.4,0,.1-1,11.9-3.4,18.5,0,.1-.2.2-.3.2Z"/>
        <path class="cls-1" d="M28,92h0c-.2,0-.3-.2-.3-.4.4-14.2,0-18.2,0-18.2,0-.2.1-.4.3-.4.2,0,.4.1.4.3,0,.2.4,4.1,0,18.3,0,.2-.2.3-.3.3Z"/>
        <path class="cls-1" d="M30,92c-.2,0-.3-.1-.3-.3-.4-14.3,0-18.2,0-18.3,0-.2.2-.3.4-.3.2,0,.3.2.3.4,0,0-.4,4.1,0,18.2,0,.2-.1.4-.3.4h0Z"/>
      </g>
    </g>
  </g>
</svg>