<?xml version="1.0" encoding="UTF-8"?>
<svg xmlns="http://www.w3.org/2000/svg" version="1.1" viewBox="0 0 59.5 92.9">
  <defs>
    <style>
      .cls-1 {
        fill: #006fff;
      }
    </style>
  </defs>
  <!-- Generator: Adobe Illustrator 28.6.0, SVG Export Plug-In . SVG Version: 1.2.0 Build 709)  -->
  <g>
    <g id="Capa_1">
      <g>
        <path class="cls-1" d="M28.8,92.4h0c-.2,0-.3-.2-.3-.4.4-13.5,0-17.8,0-18.3,0-.2.1-.4.3-.4.2,0,.4.1.4.3,0,.4.4,4.8,0,18.3,0,.2-.2.3-.4.3Z"/>
        <path class="cls-1" d="M30.7,92.4c-.2,0-.3-.2-.4-.3-.4-12.3-.1-17,0-18.1,0-.2.2-.3.4-.3h0c.2,0,.3.2.3.3,0,1.2-.3,5.9,0,18.1,0,.2-.1.4-.3.4h0Z"/>
        <path class="cls-1" d="M8.5,78.7c-1.5,0-3-1.3-4.6-3.9-2.1-3.4-1.2-9-.7-11.9.3-1.7-.1-4.6-.6-7.6-.4-2.8-.8-5.7-.8-8.2,0-5,2.3-10.3,2.7-11.1-.8-6.1.3-12.3.5-13.1-2.6-9.9,5.9-13,10.9-14.8.5-.2.9-.3,1.3-.5,6.2-1.9,5.5-6.6,5.5-6.8,0-.2.1-.4.3-.4.2,0,.4.1.4.3,0,0,.8,5.6-6,7.6-.4.1-.8.3-1.3.5-5.2,1.9-13,4.7-10.5,14,0,0,0,.1,0,.2,0,0-1.4,6.7-.5,13.1,0,0,0,.1,0,.2,0,0-2.7,5.7-2.7,10.9s.4,5.3.8,8.1c.4,3.1.8,6.1.5,7.8-.5,2.9-1.4,8.2.6,11.4,2.3,3.7,3.7,3.7,4.6,3.4.5-.2.6-.3.6-.4,0,0,0-.5-1.5-1.3-1.8-1-1.8-1.7-1.8-3.1,0-.2,0-.3,0-.5,0-.4,0-.7.3-1,.2-.2.4-.4.7-.4.6,0,1.3.6,1.3,1.3s.2,1.1,1,1.1c.4-.5-.4-6-1.1-7.2-.2-.2-.4-.5-.6-.7-.8-.8-1.8-1.7-1.1-4.5,2.3-10.1,3.7-17.6,3.7-21.1,0-3.1.7-5.6,1.2-7.4.3-1.3.6-2.3.5-3,0-.2.1-.4.3-.4.2,0,.4.1.4.3.1.8-.2,1.9-.5,3.3-.5,1.9-1.1,4.2-1.1,7.2,0,3.5-1.4,11.1-3.7,21.3-.6,2.4.2,3.2.9,3.9.3.3.5.5.7.8.7,1.1,1.7,6.7,1.1,7.9-.2.3-.4.4-.6.4-1.5,0-1.7-.9-1.7-1.8s-.5-.8-.7-.5c0,0-.1.2-.1.5s0,.4,0,.5c0,1.2,0,1.6,1.4,2.4,1.3.7,1.9,1.4,1.9,2,0,.5-.4.8-1.1,1-.3,0-.6.1-.9.1Z"/>
        <path class="cls-1" d="M50.5,78.7c-.3,0-.6,0-.9-.1-.7-.2-1.1-.6-1.1-1,0-.6.6-1.3,1.9-2,1.5-.8,1.4-1.2,1.4-2.4,0-.2,0-.3,0-.5,0-.3,0-.5-.1-.5-.2-.2-.7,0-.7.5,0,.9-.2,1.8-1.7,1.8s-.4,0-.6-.4c-.7-1.2.4-6.8,1.1-7.9.2-.3.5-.6.7-.8.7-.7,1.5-1.5.9-3.9-2.4-10.2-3.7-17.7-3.7-21.3,0-3-.7-5.3-1.1-7.2-.4-1.4-.6-2.5-.5-3.3,0-.2.2-.3.4-.3.2,0,.3.2.3.4-.1.7.2,1.7.5,3,.5,1.8,1.1,4.3,1.2,7.4,0,3.5,1.4,11,3.7,21.1.6,2.8-.3,3.8-1.1,4.5-.2.2-.5.5-.6.7-.7,1.2-1.5,6.7-1,7.2.7,0,.9-.2.9-1.1s.7-1.3,1.3-1.3.6.1.7.4c.2.2.3.6.3,1s0,.4,0,.5c0,1.4,0,2.1-1.8,3.1-1.5.8-1.5,1.3-1.5,1.3,0,.1.2.3.6.4.9.3,2.4.3,4.6-3.4,2-3.2,1.1-8.6.6-11.4-.3-1.8.1-4.7.5-7.8.4-2.8.8-5.6.8-8.1,0-5.2-2.6-10.8-2.7-10.9,0,0,0-.1,0-.2.9-6.4-.5-13-.5-13.1,0,0,0-.1,0-.2,2.5-9.3-5.3-12.2-10.5-14-.5-.2-.9-.3-1.3-.5-6.7-2.1-6-7.6-5.9-7.6,0-.2.2-.3.4-.3.2,0,.3.2.3.4,0,.2-.7,5,5.5,6.8.4.2.9.3,1.3.5,5.1,1.8,13.5,4.9,10.9,14.8.2.8,1.3,7,.5,13.1.4.8,2.7,6.1,2.7,11.1s-.4,5.4-.8,8.2c-.4,3.1-.8,6-.6,7.6.5,3,1.4,8.5-.7,11.9-1.6,2.6-3.1,3.9-4.6,3.9Z"/>
        <path class="cls-1" d="M17.7,38.8c-.1,0-.2,0-.3-.1-5.8-7.6-6.9-14.8-6.9-14.9,0-.2.1-.4.3-.4.2,0,.4.1.4.3,0,0,1,7.1,6.8,14.6.1.2,0,.4,0,.5,0,0-.1,0-.2,0Z"/>
        <path class="cls-1" d="M16.3,53.4h0c-.2,0-.4-.2-.4-.4,0-2,.3-4.1.6-6.3v-.7c.5-2.8-1.3-8.9-3-13.6,0,0,0,0,0,0v-.3c-.2-.2,0-.4,0-.5.2,0,.4,0,.5.2v.3c.1,0,.1,0,.1,0h0s0,0,0,0c.9,2.3,3.6,10.3,3.2,13.9v.7c-.4,2.2-.6,4.3-.7,6.2,0,.2-.2.4-.4.4Z"/>
        <path class="cls-1" d="M42.9,53.4s0,0,0,0c-.2,0-.3-.2-.3-.4.2-1.6.1-3,0-4.2-.6-3.6-.7-5.7-.2-8.1.3-1.3,1.3-4.6,3-9.3l.3-.8c0-.2.3-.3.4-.2.2,0,.3.3.2.4l-.3.8c-1.7,4.7-2.7,7.9-3,9.3-.5,2.3-.4,4.3.2,7.9.2,1.2.2,2.7,0,4.4,0,.2-.2.3-.4.3Z"/>
        <path class="cls-1" d="M40.9,38.3c0,0-.2,0-.2,0-.2-.1-.2-.3,0-.5,0,0,6.8-8.4,6.8-13s.2-.4.4-.4.4.2.4.4c0,4.9-6.7,13.1-7,13.4,0,0-.2.1-.3.1Z"/>
        <path class="cls-1" d="M37.5,26.7c0,0-.1,0-.2,0-2-1.4-1.7-6-1.7-6.2,0-.2.2-.3.4-.3.2,0,.3.2.3.4,0,1.2,0,4.6,1.4,5.6.2.1.2.3,0,.5,0,0-.2.1-.3.1Z"/>
        <path class="cls-1" d="M31.9,9.5s0,0-.1,0c-.2,0-.3-.3-.2-.5.3-.7.7-1.2,1.3-1.4.6-.2,1.1,0,1.2,0,.2,0,.2.3.2.5,0,.2-.3.2-.5.2,0,0-.3-.1-.6,0-.3.1-.6.4-.8,1,0,.1-.2.2-.3.2Z"/>
        <path class="cls-1" d="M26.5,9.5c-.1,0-.3,0-.3-.2-.2-.5-.5-.9-.8-1-.3-.1-.6,0-.6,0-.2,0-.4,0-.5-.2,0-.2,0-.4.2-.5,0,0,.6-.3,1.2,0,.5.2.9.6,1.3,1.4,0,.2,0,.4-.2.5,0,0,0,0-.1,0Z"/>
        <path class="cls-1" d="M20.8,26.7c-.1,0-.2,0-.3-.1-.1-.2,0-.4,0-.5,1.4-1,1.5-4.3,1.4-5.6,0-.2.1-.4.3-.4.2,0,.4.1.4.3,0,.2.3,4.8-1.7,6.2,0,0-.1,0-.2,0Z"/>
        <path class="cls-1" d="M21.5,75.7c-4.7,0-8.1-1.8-8.1-1.8-.1,0-.2-.2-.2-.3-1.1-8.7,1.4-16.9,1.6-17.7v-2.7c0-.2.1-.3.3-.4,16.2-1.9,29.1,0,29.2,0,.2,0,.3.2.3.3v2.7c3.1,10.3,1.6,17.5,1.6,17.6,0,0,0,.2-.2.2-7.2,4-15.4.6-16.6,0-2.8,1.4-5.6,1.9-8,1.9ZM13.8,73.4c1.1.5,8,3.6,15.5-.2,0,0,.2,0,.3,0,0,0,8.6,4.1,16,0,.2-1.1,1.2-7.8-1.6-17.1,0,0,0,0,0-.1v-2.5c-2-.3-13.8-1.7-28.4,0v2.5s0,0,0,.1c0,0-2.7,8.4-1.7,17.3Z"/>
        <path class="cls-1" d="M15.6,55.7c-.2,0-.3-.1-.3-.3,0-.2.1-.4.3-.4,13.6-2,28.6,0,28.8,0,.2,0,.3.2.3.4,0,.2-.2.3-.4.3-.2,0-15.1-2-28.6,0,0,0,0,0,0,0Z"/>
        <path class="cls-1" d="M24.1,72.9c-3.7,0-5.7-1.7-5.8-1.8-.1-.1-.2-.4,0-.5.1-.1.4-.2.5,0,.2.1,4,3.4,11,.4.1,0,.3,0,.4,0,0,0,3.6,2.7,10.5-.5.2,0,.4,0,.5.2,0,.2,0,.4-.2.5-6.6,3-10.2,1-11.1.5-2.2.9-4.2,1.3-5.8,1.3Z"/>
        <path class="cls-1" d="M42.6,92.4s0,0-.1,0c-.2,0-.3-.3-.2-.5,3.8-10,3.2-18.4,3.2-18.5,0-.2.1-.4.3-.4.2,0,.4.1.4.3,0,0,.6,8.6-3.3,18.8,0,.1-.2.2-.3.2Z"/>
        <path class="cls-1" d="M16.8,92.4c-.1,0-.3,0-.3-.2-3.9-10.2-3.3-18.7-3.3-18.8,0-.2.2-.3.4-.3.2,0,.3.2.3.4,0,0-.6,8.5,3.2,18.5,0,.2,0,.4-.2.5,0,0,0,0-.1,0Z"/>
      </g>
    </g>
  </g>
</svg>