<?xml version="1.0" encoding="UTF-8"?>
<svg xmlns="http://www.w3.org/2000/svg" version="1.1" viewBox="0 0 30.4 92.9">
  <defs>
    <style>
      .cls-1 {
        fill: #006fff;
      }
    </style>
  </defs>
  <!-- Generator: Adobe Illustrator 28.6.0, SVG Export Plug-In . SVG Version: 1.2.0 Build 709)  -->
  <g>
    <g id="Capa_1">
      <g>
        <path class="cls-1" d="M23.8,38.5s0,0-.1,0c-.2,0-.3-.3-.2-.5,0,0,2.4-5.9,4.7-13.6,2-7-4-16.2-6-19.2-.2-.3-.3-.5-.4-.7-1.1-1.8-1.1-5-1.1-5.2,0-.2.2-.4.4-.4s.4.2.4.4,0,3.2,1,4.8c0,.2.2.4.4.6,2,3.1,8.2,12.5,6.1,19.8-2.3,7.7-4.7,13.6-4.7,13.6,0,.1-.2.2-.3.2Z"/>
        <path class="cls-1" d="M5.4,73.8c-.2,0-.4-.1-.4-.3v-.2c0-.2.2-.4.4-.4s.4.2.4.4h0c0,.3-.2.5-.4.5Z"/>
        <path class="cls-1" d="M6.1,92.1c-.2,0-.3-.1-.3-.3,0,0-1.1-4.7-.8-11.9,0-1.4,0-2.9.1-4.6,0-.2.2-.4.4-.4.2,0,.4.2.4.4,0,1.6,0,3.2-.1,4.6-.3,7.1.8,11.7.8,11.7,0,.2,0,.4-.3.4,0,0,0,0,0,0Z"/>
        <path class="cls-1" d="M5.2,56.8c-.2,0-.3-.2-.4-.3,0-1.3-.1-2.4-.2-2.8-.2-1.2-.3-4.6-.3-7.5,0-2.3,0-4.5-.1-5-.1-.6,0-1.5.2-2.4.2-1,.4-2.1.2-2.9-.6-2.4,0-5.8.1-6.8,0-.2.2-.3.4-.3.2,0,.3.2.3.4-.2,1-.7,4.3-.1,6.6.2,1,0,2.1-.2,3.2-.2.8-.3,1.6-.2,2.1.1.6.1,2.3.2,5.1,0,2.9,0,6.2.3,7.4,0,.5.2,1.5.2,2.9,0,.2-.1.4-.3.4h0Z"/>
        <path class="cls-1" d="M5,29.5c-.3,0-.6,0-1-.3-.5-.3-1-1-1-2.4,0-2.4,2.8-6.9,4.7-9.9.6-.9,1.1-1.7,1.4-2.2,1-1.9,2.4-4.7,2.4-7s-2.3-5.5-2.4-5.6c-.1-.2,0-.4,0-.5.2-.1.4,0,.5,0,.1.1,2.5,3.6,2.5,6s-1.4,5.3-2.5,7.3c-.3.5-.8,1.3-1.4,2.3-1.7,2.7-4.6,7.3-4.6,9.5s.2,1.3.6,1.6c.3.3.6.3.7.3.1,0,.3,0,.4,0,.1.1.1.4,0,.5h0s0,0-.1,0c0,0-.1,0-.3,0Z"/>
        <path class="cls-1" d="M22.5,52.5h0c-.2,0-.4-.2-.3-.4,0-.5,0-1.5-.5-3.1,0-.2,0-.4.2-.4.2,0,.4,0,.4.2.5,1.7.6,2.7.5,3.3,0,.2-.2.3-.4.3Z"/>
        <path class="cls-1" d="M21.9,92.1s0,0,0,0c-.2,0-.3-.2-.3-.4,0,0,.7-7.8.3-16.4,0-.2.1-.4.3-.4,0,0,0,0,0,0,.2,0,.3.1.4.3.4,8.7-.3,16.4-.3,16.5,0,.2-.2.3-.4.3Z"/>
        <path class="cls-1" d="M10,78.4c-.3,0-.7,0-1.1,0-1,0-1.9-.6-2.5-1.4-.6-.8-1.3-2.1-1.3-3.5,0-1.6.4-2.6.9-3.9.2-.5.5-1.1.7-1.9.9-2.7,3.5-10.5,4.9-14.1,1.5-4,3.2-8.4,4.5-9.9-.4-1.2-2.3-7.8-1.6-12.6.8-5.2.6-6.7-2.9-10.2-.1-.1-.1-.4,0-.5.1-.1.4-.1.5,0,3.7,3.7,3.9,5.4,3.1,10.8-.8,5.1,1.6,12.4,1.6,12.5,0,.1,0,.3,0,.4-1.4,1.4-3.4,6.9-4.5,9.8-1.3,3.6-4,11.5-4.8,14.1s-.5,1.5-.8,2c-.5,1.2-.9,2.1-.9,3.6,0,1.2.6,2.3,1.2,3.1.5.7,1.2,1.1,2,1.1,2.1.1,3.5-.1,4-.7.4-.5.3-1.1.2-1.9,0-.5-.1-1,0-1.5.3-2.1-.1-4.6-.5-6.1-.5-1.6,1.1-4.2,2.9-6.8,2.9-3.8,4.3-7.1,5.3-9.8.5-1.2.9-2.2,1.4-3.2,1.7-3.2,1.8-3.8,1.5-6.4-.3-2.9-.5-6.8,0-8.7.5-1.8.9-6.9.9-6.9,0,0,0,0,0-.1,2.3-5.7,0-9.6,0-9.6,0-.2,0-.4.1-.5.2,0,.4,0,.5.1.1.2,2.4,4.2,0,10.2,0,.6-.4,5.2-.9,7-.4,1.4-.4,4.4,0,8.5.3,2.8,0,3.6-1.6,6.8-.5.9-.9,2-1.4,3.1-1.1,2.7-2.5,6.1-5.4,10-1.6,2.3-3.1,4.8-2.8,6.1.4,1.6.8,4.1.5,6.3,0,.4,0,.9,0,1.3.1.9.2,1.8-.4,2.5-.6.6-1.7.9-3.5.9Z"/>
        <path class="cls-1" d="M21.6,75.7h-8c-.2,0-.4-.2-.4-.4s.2-.4.4-.4h8c.5,0,.9-.3,1-.8l.4-2.9c0-.1.1-.2.2-.3,2.4-.9,3.9-2.5,4.5-4.7.9-3.2-.5-6.9-1.3-7.8-.8-1.1-1.9-3.1-2.5-4.3-.4-.8-.7-1.4-.9-1.7-.1,0-.2,0-.4,0-.7.2-1.4.3-2,.5-.2,0-.4,0-.4-.3,0-.2,0-.4.3-.4.7-.1,1.3-.3,2-.5.2,0,.4,0,.6-.2.2,0,.3,0,.4.2,0,0,.4.9,1,2,.6,1.1,1.7,3.1,2.5,4.2.9,1.2,2.4,5.1,1.4,8.5-.6,2.3-2.2,4-4.7,5.1l-.4,2.7c-.1.8-.8,1.4-1.7,1.4Z"/>
        <path class="cls-1" d="M5.8,75.7h-.5c-.1,0-.6,0-.9-.3-.4-.4-.6-1.1-.8-1.8-.2-.6-.3-1.2-.6-1.5-1.2-1.3-2.2-2.6-2.2-4.5s.4-1.5,1-2.6c1.2-2.4,3-6,2.8-11.2,0-.1,0-.2.1-.3,0,0,.2-.1.3,0,0,0,2.5.4,6.7.2.2,0,.4.1.4.3,0,.2-.1.4-.3.4-3.4.2-5.6,0-6.5-.1,0,5.2-1.7,8.8-2.9,11.2-.5,1-.9,1.8-.9,2.3,0,1.6,1,2.9,2.1,4.1.4.4.6,1.1.7,1.8.2.6.3,1.2.6,1.5,0,0,.3.1.4.1h.4c.2,0,.4.2.4.4s-.2.4-.4.4Z"/>
        <path class="cls-1" d="M6.5,56.9c-.4,0-.9,0-1.3,0-.2,0-.4-.2-.4-.4s.2-.4.4-.4h0c1.8,0,3.7,0,5.7-.2.2,0,.4.1.4.3,0,.2-.1.4-.3.4-1.6.1-3.1.2-4.5.2Z"/>
        <path class="cls-1" d="M19.4,55.5c-.2,0-.3-.1-.4-.3,0-.2,0-.4.3-.4,1.1-.2,2-.4,2.8-.6,1.2-.3,2-.5,2-.5.2,0,.4,0,.4.3,0,.2,0,.4-.3.4,0,0-.7.2-2,.5-.8.2-1.7.4-2.8.6,0,0,0,0,0,0Z"/>
        <path class="cls-1" d="M13.6,14.2c0,0-.1,0-.2,0-.2,0-.2-.3-.2-.5,0-.2,2.2-4.1,5.8-4.1s5.3,2.8,5.4,2.9c0,.2,0,.4-.1.5-.2,0-.4,0-.5-.1,0-.1-1.5-2.5-4.7-2.5s-5.2,3.7-5.2,3.7c0,.1-.2.2-.3.2Z"/>
        <path class="cls-1" d="M10.5,29.5c-.2,0-.4-.2-.4-.4s.2-.4.4-.4c3.4,0,4.1-3.5,4.2-3.6,0-.2.2-.3.4-.3.2,0,.3.2.3.4,0,0-.8,4.2-4.9,4.2Z"/>
        <path class="cls-1" d="M12.3,78.1c-.1,0-.3,0-.3-.2l-1.8-3.6c0-.2,0-.4.2-.5.2,0,.4,0,.5.2l1.8,3.6c0,.2,0,.4-.2.5,0,0-.1,0-.2,0Z"/>
        <path class="cls-1" d="M10.5,78.1c-.1,0-.3,0-.3-.2l-1.7-3.6c0-.2,0-.4.2-.5.2,0,.4,0,.5.2l1.7,3.6c0,.2,0,.4-.2.5,0,0-.1,0-.2,0Z"/>
        <path class="cls-1" d="M8.8,78.1c-.1,0-.3,0-.3-.2l-1.7-3.6c0-.2,0-.4.2-.5.2,0,.4,0,.5.2l1.7,3.6c0,.2,0,.4-.2.5,0,0-.1,0-.2,0Z"/>
      </g>
    </g>
  </g>
</svg>